<svg xmlns="http://www.w3.org/2000/svg" width="234" height="114" fill="none" viewBox="0 0 234 114"><path fill="#fff" d="m59.615 29.18 3.257.32v2.432h-9.589v-2.431l2.019-.322L64.89 2.432l.137-.091 7.066-.597.138.046 10.047 27.482 1.744.23v2.431H71.498v-2.431l2.844-.23q-.092-1.239-.78-3.716a54 54 0 0 0-1.422-4.726l-.55-1.514-2.478 2.248a22 22 0 0 0-1.973-.091 45 45 0 0 0-2.202-.046h-3.625a58 58 0 0 0-1.101 4.267q-.46 2.11-.596 3.486m2.752-10.874h5.506q.871 0 1.606-.046.78-.045 1.697-.138L66.68 5.827zm42.046 11.011q-2.155 1.468-3.9 2.065-1.697.55-3.991.55-1.194 0-2.661-.046a95 95 0 0 1-2.937-.229L89.32 33.63l-2.065-.597a37 37 0 0 0 .275-3.67q.093-1.881.092-6.377V9.038q0-2.57-.046-4.083-.046-1.56-.183-2.294l-2.11-.184V.275l8.9-.275.092.046q-.091 1.881-.138 4.037a267 267 0 0 0-.046 5.552v4.404q1.56-1.376 2.936-1.881 1.377-.505 3.166-.505 4.45 0 6.561 2.248 2.157 2.203 2.156 6.79 0 3.35-.825 5.047-.78 1.652-3.671 3.58M94.09 16.471v9.543q.045.964.092 1.88 1.284.37 2.34.551 1.055.138 2.11.138.965 0 1.56-.138.642-.182 1.055-.596.597-.55.826-1.652.23-1.146.23-3.44v-1.01q0-3.349-1.101-4.772-1.056-1.468-3.58-1.468-1.238 0-2.064.23-.78.183-1.468.734m34.471 14.498q-1.422.734-2.798 1.055-1.33.321-3.12.321-2.844 0-4.772-.596-1.926-.642-3.257-1.973-1.147-1.193-1.744-2.982-.55-1.79-.55-4.267 0-3.579 1.239-5.781 1.285-2.202 4.771-4.037 1.468-.78 2.845-1.102 1.375-.32 3.12-.32 2.753 0 4.679.642a8.3 8.3 0 0 1 3.304 2.018q1.192 1.194 1.743 2.983.55 1.743.551 4.22 0 3.579-1.285 5.781-1.239 2.202-4.726 4.038m-8.258-3.212q.689.688 1.698 1.055 1.009.322 2.294.322.734 0 1.284-.092.55-.138.964-.413.825-.505 1.101-1.606.275-1.1.275-3.808v-1.881q0-2.34-.275-3.487-.276-1.193-1.01-1.973-.687-.643-1.743-.963-1.01-.367-2.248-.367-.734 0-1.285.137a3.6 3.6 0 0 0-.963.322q-.826.55-1.101 1.651-.276 1.101-.276 3.762v1.927q0 2.34.276 3.533.275 1.148 1.009 1.881m41.915 2.157v2.018l-6.424.918h-.091q-.597-.55-1.101-1.56a7.9 7.9 0 0 1-.597-2.248q-1.79 1.515-3.762 2.248-1.927.734-4.037.734-3.533 0-5.139-1.606-1.606-1.605-1.606-5.184V14.452l-2.019-.321v-2.202l8.397-.367.091.091v12.571q0 1.881 1.101 2.8 1.101.916 3.35.917.78 0 1.422-.184.688-.23 1.009-.55a2.25 2.25 0 0 0 .505-1.01q.138-.642.138-1.88V11.744h6.469V24.82q0 3.029.367 3.991.412.918 1.927 1.102m16.877-2.34.872 1.055q-1.469 1.927-3.12 2.845-1.652.87-3.716.871-1.606 0-2.89-.413-1.239-.413-2.065-1.238-.78-.735-1.101-1.514-.275-.827-.275-2.065V15.048h-2.753v-2.752h2.753v-5.46l6.469-.275v5.735h5.964l.046.091-.688 2.8-5.322-.139v10.828q0 .597.137 1.055.184.413.551.826a3.3 3.3 0 0 0 1.009.597q.596.183 1.331.183.688 0 1.376-.23a5.7 5.7 0 0 0 1.422-.733"/><path fill="#fff" fill-rule="evenodd" d="M226.787 57.193c-.749.732-1.26 4.257-1.26 8.68v7.449l-5.108-2.591c-5.746-2.915-10.017-2.713-15.838.748-4.013 2.386-7.361 9.097-7.392 14.819-.029 5.01 3.647 12.44 7.514 15.193 1.545 1.101 5.091 2.211 7.878 2.465 4.188.384 5.751.008 9.007-2.166 2.167-1.447 3.939-2.215 3.939-1.708 0 1.174 3.012 4.151 4.201 4.151.495 0 1.643-.727 2.552-1.614 1.394-1.364 1.65-4.92 1.65-22.904 0-21.817-.342-23.755-4.202-23.755-.924 0-2.248.555-2.941 1.233M168.472 69.74c-4.658 1.663-7.748 4.168-9.605 7.787-6.504 12.682 2.06 26.706 16.31 26.706 8.269 0 16.219-5.849 12.025-8.847-1.514-1.082-2.475-.965-5.632.69-5.605 2.937-10.204 2.603-13.897-1.008-5.631-5.506-4.586-6.242 8.881-6.242 13.55 0 14.998-.671 13.764-6.376-2.266-10.468-12.1-16.19-21.846-12.71m11.624 8.443c4.335 4.662 3.326 5.508-6.565 5.508-4.91 0-8.928-.21-8.928-.465 0-2.199 3.171-6.244 5.752-7.336 3.919-1.66 6.668-1.013 9.741 2.293m42.36.294c6.694 6.544 2.167 18.977-6.908 18.977-3.114 0-4.578-.694-6.961-3.303-6.523-7.138-2.223-18.676 6.961-18.676 2.841 0 4.635.78 6.908 3.002" clip-rule="evenodd"/><path fill="#fff" d="M51.16 79.62c0-12.264.337-22.627.749-23.03.41-.403 1.947-.596 3.413-.428l2.665.304v22.997c0 20.344-.201 23.121-1.75 24.076-1.27.784-2.207.709-3.413-.27-1.425-1.156-1.664-4.556-1.664-23.65m-39.57 21.344C-2.463 97.17-4.222 75.116 8.982 68.295c7.161-3.699 15.445-2.015 20.372 4.142l2.706 3.38 1.32-4.307c.955-3.121 2.007-4.475 3.82-4.92 1.376-.337 2.777-.346 3.113-.017s-.954 4.393-2.867 9.031l-3.476 8.432 2.075 5.73c1.622 4.48 2.804 6.064 5.42 7.269 4.612 2.124 4.222 3.728-1.073 4.423-5.774.758-8.311-1.456-10.736-9.368-5.896-19.235-7.349-21.76-12.526-21.76-8.766 0-13.438 15.316-7.174 23.519 2.78 3.64 4.795 4.605 7.987 3.822 2.719-.668 4.126-1.867 7.376-6.285 1.464-1.99 1.533-1.96 2.28.947.639 2.486.294 3.398-2.017 5.343-3.928 3.303-9.278 4.559-13.993 3.286"/><path fill="#fff" fill-rule="evenodd" d="M78.801 69.363c-4.64 1.377-9.57 6.51-10.399 10.83-1.76 9.177 1.868 16.598 9.512 19.453 5.745 2.145 10.816 1.403 15.232-2.23l3.181-2.618v2.61c0 3.727-1.967 7.447-4.58 8.664-4.634 2.159-6.299 2.225-13.455.536-6.33-1.493-7.47-1.529-8.29-.261-1.458 2.257-.71 3.349 3.798 5.542 5.809 2.826 17.547 2.812 22.519-.026 6.444-3.68 7.61-7.027 8.182-23.473.348-10.049.124-15.306-.719-16.847-1.61-2.94-6.38-3.065-7.15-.185-.679 2.536-.774 2.536-4.321-.029-3.477-2.513-8.97-3.313-13.51-1.966M96.327 84.71c0-2.21-.974-4.192-3.07-6.241-2.355-2.303-4.036-3.003-7.211-3.003-7.78 0-12.086 6.129-9.145 13.012 1.679 3.928 4.353 5.476 9.459 5.476 5.046 0 9.967-4.564 9.967-9.244m29.14-14.965c-12.912 4.504-17.028 18.402-8.415 28.41 10.565 12.278 32.767 4.726 32.83-11.167.032-8.515-5.21-15.412-13.409-17.639-4.939-1.341-6.153-1.297-11.006.396m16.017 20.14c1.338-4.858-.431-10.085-4.313-12.743-1.345-.922-3.876-1.66-5.626-1.64-8.768.101-13.637 8.541-9.472 16.418 1.947 3.682 4.902 5.32 9.594 5.32 5.061 0 8.502-2.577 9.817-7.355" clip-rule="evenodd"/></svg>