<svg xmlns="http://www.w3.org/2000/svg" fill="none" overflow="visible" preserveAspectRatio="none" style="display:block" viewBox="0 0 233.428 57.915"><g fill="var(--fill-0, white)"><path fill-rule="evenodd" d="M226.301 1.23c-.748.73-1.258 4.248-1.258 8.662v7.432l-5.097-2.586c-5.734-2.908-9.996-2.706-15.804.748-4.005 2.38-7.345 9.077-7.376 14.786-.029 5 3.639 12.414 7.498 15.161 1.542 1.099 5.079 2.206 7.861 2.46 4.179.383 5.739.008 8.987-2.162 2.163-1.444 3.931-2.21 3.931-1.704 0 1.172 3.006 4.142 4.192 4.142.494 0 1.64-.725 2.546-1.61 1.391-1.362 1.647-4.91 1.647-22.855 0-21.77-.342-23.704-4.193-23.704-.922 0-2.243.553-2.934 1.23m-58.19 12.52c-4.649 1.66-7.732 4.16-9.584 7.77-6.491 12.655 2.055 26.649 16.274 26.649 8.251 0 16.184-5.836 12-8.828-1.512-1.08-2.471-.963-5.621.688-5.593 2.931-10.181 2.598-13.867-1.005-5.619-5.495-4.576-6.228 8.862-6.228 13.521 0 14.966-.67 13.735-6.364-2.261-10.445-12.074-16.155-21.799-12.682m11.599 8.425c4.326 4.652 3.318 5.496-6.551 5.496-4.9 0-8.909-.209-8.909-.464 0-2.194 3.164-6.23 5.739-7.32 3.911-1.656 6.654-1.011 9.721 2.288m42.269.293c6.679 6.53 2.162 18.936-6.894 18.936-3.107 0-4.568-.692-6.946-3.296-6.509-7.122-2.218-18.636 6.946-18.636 2.836 0 4.626.778 6.894 2.996" clip-rule="evenodd"/><path d="M51.05 23.609c0-12.238.336-22.579.747-22.98.41-.403 1.943-.595 3.407-.428l2.659.303v22.948c0 20.3-.201 23.072-1.746 24.025-1.268.782-2.203.707-3.407-.27-1.421-1.154-1.66-4.546-1.66-23.598M11.565 44.906c-14.022-3.785-15.777-25.791-2.6-32.597 7.144-3.692 15.41-2.011 20.327 4.132l2.7 3.373 1.317-4.298c.954-3.114 2.003-4.465 3.813-4.909 1.372-.337 2.77-.345 3.106-.017.334.328-.952 4.383-2.86 9.012l-3.47 8.414 2.07 5.716c1.62 4.472 2.798 6.052 5.41 7.254 4.6 2.12 4.212 3.72-1.072 4.414-5.762.757-8.293-1.453-10.713-9.349-5.884-19.193-7.334-21.711-12.5-21.711-8.747 0-13.408 15.283-7.158 23.468 2.773 3.633 4.785 4.596 7.97 3.814 2.713-.666 4.117-1.862 7.36-6.272 1.46-1.985 1.53-1.956 2.275.945.637 2.482.293 3.392-2.013 5.332-3.919 3.296-9.258 4.55-13.962 3.28"/><path fill-rule="evenodd" d="M78.632 13.373c-4.63 1.375-9.55 6.497-10.377 10.808-1.756 9.157 1.864 16.562 9.491 19.41 5.734 2.141 10.793 1.4 15.2-2.224l3.175-2.613v2.605c0 3.718-1.963 7.43-4.57 8.645-4.625 2.154-6.286 2.22-13.427.535-6.316-1.49-7.454-1.526-8.272-.26-1.455 2.251-.708 3.342 3.79 5.53 5.796 2.82 17.51 2.806 22.47-.027 6.431-3.672 7.594-7.01 8.164-23.422.348-10.027.124-15.273-.717-16.81-1.606-2.935-6.366-3.059-7.134-.185-.677 2.53-.773 2.53-4.312-.029-3.47-2.508-8.95-3.306-13.48-1.963m17.489 15.315c0-2.206-.973-4.184-3.064-6.228-2.35-2.298-4.027-2.996-7.196-2.996-7.762 0-12.06 6.116-9.125 12.984 1.675 3.92 4.344 5.464 9.439 5.464 5.035 0 9.946-4.554 9.946-9.224M125.198 13.755c-12.884 4.495-16.992 18.362-8.397 28.35 10.542 12.25 32.696 4.715 32.759-11.144.033-8.497-5.199-15.379-13.38-17.6-4.928-1.34-6.14-1.295-10.982.394m15.982 20.097c1.335-4.847-.43-10.064-4.304-12.716-1.341-.92-3.867-1.655-5.614-1.636-8.749.1-13.607 8.523-9.451 16.382 1.943 3.675 4.892 5.31 9.574 5.31 5.05 0 8.483-2.572 9.795-7.34" clip-rule="evenodd"/></g></svg>