<svg xmlns="http://www.w3.org/2000/svg" width="79" height="62" fill="none" viewBox="0 0 79 62"><path fill="#fff" fill-opacity=".22" d="M20.378 60.884c-24.707-6.668-27.8-45.44-4.583-57.432 12.59-6.504 27.156-3.542 35.82 7.28l4.757 5.943 2.32-7.571c1.68-5.487 3.53-7.867 6.719-8.649 2.418-.594 4.881-.609 5.472-.03.59.577-1.676 7.722-5.04 15.876L59.73 31.125l3.65 10.072c2.851 7.878 4.929 10.662 9.53 12.78 8.108 3.734 7.422 6.555-1.888 7.777-10.153 1.333-14.613-2.56-18.877-16.47C41.776 11.467 39.222 7.03 30.12 7.03c-15.414 0-23.628 26.926-12.614 41.347 4.886 6.401 8.43 8.097 14.044 6.719 4.78-1.174 7.254-3.281 12.969-11.049 2.572-3.497 2.694-3.447 4.008 1.665 1.122 4.371.517 5.975-3.547 9.393-6.905 5.807-16.313 8.015-24.602 5.778"/></svg>