<svg width="97" height="94" viewBox="0 0 97 94" fill="none" xmlns="http://www.w3.org/2000/svg">
<path fill-rule="evenodd" clip-rule="evenodd" d="M46.8528 40.2957L53.0263 36.7314C56.4217 34.7711 60.8036 35.9452 62.764 39.3407L64.5461 42.4274C69.0905 50.2986 66.8708 60.1407 59.7991 65.4994C60.5276 71.2523 58.3743 77.1461 53.931 81.0696L59.4556 90.6385L71.8026 83.51L75.3668 89.6835L44.4995 107.505L40.9352 101.331L53.2822 94.2028L47.7576 84.6339C42.1381 86.5201 35.9572 85.438 31.3393 81.9306C23.1626 85.3756 13.5293 82.3769 8.98486 74.5057L7.20273 71.419C5.24239 68.0236 6.41654 63.6416 9.81195 61.6812L15.9854 58.117L12.4212 51.9435L43.2885 34.1222L46.8528 40.2957ZM13.3762 67.8547L15.1583 70.9414C17.4751 74.9542 22.0283 76.8526 26.3574 76.0818L19.5497 64.2905L13.3762 67.8547ZM57.2248 58.2605C60.0569 54.8968 60.6894 50.0044 58.3726 45.9917L56.5905 42.9049L50.417 46.4692L57.2248 58.2605ZM47.5708 64.3745L40.0703 64.2287L36.4462 70.7973L34.2692 63.6177L26.897 62.1978L33.0514 57.9125L32.1353 50.4849L38.1097 54.9921L44.898 51.8049L42.4417 58.8994L47.5708 64.3745Z" fill="#FFCA7F"/>
<path fill-rule="evenodd" clip-rule="evenodd" d="M95.3671 12.8625L104.979 11.2373C110.266 10.3435 115.323 13.9376 116.217 19.2243L117.029 24.0304C119.101 36.2858 111.564 47.8426 99.9448 51.3396C98.1358 59.0606 92.5659 65.5885 85.0001 68.499L87.5192 83.3978L106.743 80.1474L108.369 89.7596L60.308 97.8855L58.6828 88.2734L77.907 85.023L75.388 70.1242C67.286 69.8627 59.8795 65.5289 55.6328 58.8317C43.5099 59.3489 32.5921 50.9125 30.52 38.657L29.7074 33.851C28.8136 28.5643 32.4077 23.5075 37.6943 22.6137L47.3065 20.9885L45.6813 11.3763L93.7419 3.2504L95.3671 12.8625ZM39.3195 32.2258L40.1321 37.0318C41.1885 43.2797 46.1194 47.8838 52.0358 48.9598L48.9317 30.6006L39.3195 32.2258ZM100.096 40.8338C105.33 37.8727 108.473 31.9034 107.417 25.6555L106.604 20.8495L96.9923 22.4747L100.096 40.8338ZM84.8091 44.0677L75.2647 40.3049L67.488 46.9963L68.1206 36.756L59.3483 31.4212L69.2797 28.8627L71.6467 18.9057L77.1555 27.5311L87.376 26.6823L80.8451 34.6046L84.8091 44.0677Z" fill="#FFDAA6"/>
</svg>
