<svg width="76" height="76" viewBox="0 0 76 76" fill="none" xmlns="http://www.w3.org/2000/svg">
<path fill-rule="evenodd" clip-rule="evenodd" d="M60.5017 9.04442L69.1943 7.29514C73.9751 6.33304 78.4015 9.49755 79.0305 14.3274L79.6024 18.7182C81.0606 29.9146 73.9053 40.7267 63.3473 44.2482C61.4669 51.3854 56.2457 57.5277 49.35 60.4023L51.1227 74.0137L68.5078 70.5151L69.6515 79.2967L26.1888 88.0431L25.0451 79.2615L42.4302 75.763L40.6574 62.1516C33.3843 62.1283 26.8706 58.3475 23.2747 52.3124C12.3621 53.1116 2.8278 45.6581 1.36954 34.4617L0.797682 30.0709C0.168632 25.2411 3.5656 20.5022 8.34649 19.5401L17.039 17.7908L15.8953 9.00928L59.358 0.262888L60.5017 9.04442ZM9.49022 28.3216L10.0621 32.7124C10.8055 38.4204 15.0854 42.5155 20.3673 43.3451L18.1828 26.5723L9.49022 28.3216ZM63.83 34.5987C68.6314 31.74 71.6533 26.1754 70.9098 20.4674L70.338 16.0767L61.6454 17.826L63.83 34.5987ZM49.9841 37.9743L41.5301 34.7749L34.3201 41.1265L35.2262 31.7078L27.518 27.0445L36.5282 24.4299L38.9839 15.2249L43.6506 22.9966L52.8643 21.9439L46.7334 29.3921L49.9841 37.9743Z" fill="#FFA62A" fill-opacity="0.34"/>
</svg>
