<svg xmlns="http://www.w3.org/2000/svg" width="127" height="146" fill="none" viewBox="0 0 127 146"><mask id="a" width="125" height="54" x="1" y="92" maskUnits="userSpaceOnUse" style="mask-type:luminance"><path fill="#fff" d="M1.55 92.413h124.179V146H1.549z"/></mask><g mask="url(#a)"><path fill="#222" d="M97.284 92.532c.398-.053 1.79-.046 2.224-.051 2.39-.029 4.816 0 7.194.243.603.061 1.201.336 1.5.861.418.73.82 1.615 1.202 2.382l2.668 5.295a936 936 0 0 0 4.572 8.921c.942 1.792 1.929 3.573 2.835 5.384.123.235.299.706.219.979-.392 1.325-3.1.411-4.079.194.421.626.952 1.645 1.319 2.32q1.32 2.437 2.597 4.898c.629 1.186 2.233 3.956 2.628 5.081l-.081.109c-.618.845-1.557.656-2.409.279 1.196 3.299 3.366 6.31 5.002 9.417.898 1.705 1.738 3.888.192 5.563-1.076 1.164-3.416.937-4.869.916a235 235 0 0 1-4.439-.091c-.832-.025-1.664-.028-2.496-.046-13.767-.297-27.534-.664-41.3-.921-1.542-.029-2.757.7-4.178 1.138-2.862.878-6.109.73-8.976-.065-1.29-.37-2.136-1.069-3.575-1.092-1.815-.031-3.573.082-5.376.134l-9.299.289-22.566.675c-2.89-.022-5.881.263-8.78.272-1.803.004-4.024.359-5.754-.202-1.687-.538-2.036-3.064-1.438-4.49 1.57-3.744 4.037-7.282 5.942-10.871-.893.131-1.879.422-2.36-.537.028-.453.607-1.305.836-1.738 1.398-2.659 3.054-5.384 4.293-8.111-.86.187-2.87.65-3.577.122-.3-.462-.173-1.003.047-1.48.67-1.455 1.388-2.89 2.11-4.321l2.394-4.851c1.847-3.759 3.564-7.589 5.44-11.333.142-.284.344-.745.6-.939 1.132-.856 10.954-.582 12.834-.419 2.87.263 5.719.73 8.523 1.396 9.785 2.231 17.896 6.265 24.411 14.032 5.474-10.295 15.324-16.22 26.55-18.428 2.49-.489 4.896-.725 7.42-.915M64.4 133.408c1.463-3.807 6.382-7.561 9.777-9.736 10.21-6.308 21.461-8.923 33.435-9.08 3.415-.044 6.44.106 9.793.8-.527-1.168-1.327-2.567-1.935-3.726l-2.803-5.458a780 780 0 0 0-4.154-8.152c-.592-1.163-1.229-2.497-1.843-3.624-2.086-.12-5.822-.353-7.856-.195-13.94.554-28.079 5.869-34.354 19.4-.174.378-.096 4.942-.095 5.637zm41.361-17.144c-3.6.285-7.092.563-10.648 1.234-10.33 1.948-22.73 6.974-29.062 15.798 4.083-3.459 6.46-4.95 11.566-6.769 11.426-3.923 24.953-3.637 36.634-.565 1.404.369 3.62.911 4.896 1.541q.166.081.327.169c-1.265-2.619-2.752-5.18-4.052-7.786-.527-1.056-1.222-2.22-1.61-3.33a68 68 0 0 0-8.051-.292m-93.194 3.055c-.794 1.83-1.878 3.827-2.79 5.618-.436.857-1.294 2.586-1.796 3.335 13.724-5.034 31.089-4.884 44.546.93 2.994 1.412 5.951 2.977 8.484 5.132-2.8-3.607-5.167-5.378-9.15-7.625-7.377-4.162-15.522-6.247-23.892-7.234-2.762-.32-7.617-.649-10.4-.48-1.844.057-3.285.239-5.002.324m15.477 7.125a65.6 65.6 0 0 0-15.047 2.09c-.915.241-2.368.615-3.223.971-.525 1.185-3.16 7.19-3.244 8.154l.05.116c.653.2 3.264-.404 4.132-.559q2.943-.505 5.897-.96c7.682-1.141 15.992-2.165 23.76-2.052 5.724.035 11.713.495 17.128 2.528.893.336 1.884.735 2.604 1.357q.814-.492 1.6-1.024c-.744-.74-2.069-1.732-2.927-2.365-7.761-5.727-19.292-8.315-28.831-8.289q-.95 0-1.899.033m26.697-.005c2.927 1.919 6.448 4.647 8.008 7.843l-.16-14.188c-.001-1.433-.091-4.893.151-6.157-1.06-1.732-2.912-3.589-4.448-4.908-5.5-4.724-11.836-7.608-18.857-9.274-5.174-1.228-10.089-1.901-15.421-1.765-1.77.068-3.57.108-5.323.37l-6.177 12.699c-1.152 2.362-2.397 4.812-3.488 7.187 1.575-.266 3.446-.628 5.03-.757 11.081-.894 23.105.856 33.379 5.14 2.586 1.079 4.935 2.376 7.306 3.81m39.356-1.021c-10.09.389-21.005 2.642-28.136 10.367q-.525.569-1.02 1.167c.711.765.885.839 1.88 1.192.589-.611 1.862-1.177 2.642-1.508 4.668-1.976 9.938-2.449 14.972-2.554a89 89 0 0 1 7.334.125c6.427.188 14.043 1.033 20.402 2.01q3.205.514 6.402 1.064c.986.168 2.023.384 3.006.508-1.053-2.103-1.927-4.121-2.853-6.261l-.15-.346c-.167-.385-.914-2.223-1.036-2.441-6.769-2.403-16.245-3.604-23.443-3.323"/><path fill="#fff" d="M64.4 133.408c1.463-3.807 6.382-7.561 9.777-9.736 10.21-6.308 21.461-8.923 33.435-9.08 3.415-.044 6.44.106 9.793.8-.527-1.168-1.327-2.567-1.935-3.726l-2.803-5.458a780 780 0 0 0-4.154-8.152c-.592-1.163-1.229-2.497-1.843-3.624-2.086-.12-5.822-.353-7.856-.195-13.94.554-28.079 5.869-34.354 19.4-.174.378-.096 4.942-.095 5.637z"/><path fill="#fff" d="M105.761 116.264c-3.6.285-7.092.563-10.648 1.234-10.33 1.948-22.73 6.974-29.062 15.798 4.083-3.459 6.46-4.95 11.566-6.769 11.426-3.923 24.953-3.637 36.634-.565 1.404.369 3.62.911 4.896 1.541q.166.081.327.169c-1.265-2.619-2.752-5.18-4.052-7.786-.527-1.056-1.222-2.22-1.61-3.33a68 68 0 0 0-8.051-.292"/><path fill="#fff" d="M94.097 125.418c-10.09.389-21.005 2.642-28.136 10.367q-.525.569-1.02 1.167c.711.765.885.839 1.88 1.192.589-.611 1.862-1.177 2.642-1.508 4.668-1.976 9.938-2.449 14.972-2.554a89 89 0 0 1 7.334.125c6.427.188 14.043 1.033 20.402 2.01q3.205.514 6.402 1.064c.986.168 2.023.384 3.006.508-1.053-2.103-1.927-4.121-2.853-6.261l-.15-.346c-.167-.385-.914-2.223-1.036-2.441-6.769-2.403-16.245-3.604-23.443-3.323M54.741 126.439c2.927 1.919 6.448 4.647 8.008 7.843l-.16-14.188c-.001-1.433-.091-4.893.151-6.157-1.06-1.732-2.912-3.589-4.448-4.908-5.5-4.724-11.836-7.608-18.857-9.274-5.174-1.228-10.089-1.901-15.421-1.765-1.77.068-3.57.108-5.323.37l-6.177 12.699c-1.152 2.362-2.397 4.812-3.488 7.187 1.575-.266 3.446-.628 5.03-.757 11.081-.894 23.105.856 33.379 5.14 2.586 1.079 4.935 2.376 7.306 3.81"/><path fill="#fff" d="M12.567 119.319c-.794 1.83-1.878 3.827-2.79 5.618-.436.857-1.294 2.586-1.796 3.335 13.724-5.034 31.089-4.884 44.546.93 2.994 1.412 5.951 2.977 8.484 5.132-2.8-3.607-5.167-5.378-9.15-7.625-7.377-4.162-15.522-6.247-23.892-7.234-2.762-.32-7.617-.649-10.4-.48-1.844.057-3.285.239-5.002.324"/><path fill="#fff" d="M28.044 126.444a65.6 65.6 0 0 0-15.047 2.09c-.915.241-2.368.615-3.223.971-.525 1.185-3.16 7.19-3.244 8.154l.05.116c.653.2 3.264-.404 4.132-.559q2.943-.505 5.897-.96c7.682-1.141 15.992-2.165 23.76-2.052 5.724.035 11.713.495 17.128 2.528.893.336 1.884.735 2.604 1.357q.814-.492 1.6-1.024c-.744-.74-2.069-1.732-2.927-2.365-7.761-5.727-19.292-8.315-28.831-8.289q-.95 0-1.899.033"/></g><path fill="#ea6741" d="M50.435 141.037c1.329-.065 5.31-.11 6.416.15 2.522.594 3.716 1.369 6.595 1.45 3.27.093 4.992-1.457 8.06-1.55 2.857-.087 5.788-.007 8.651.05l8.558.145q13.436.275 26.869.741c2.503.081 5.006.165 7.511.157.4-.001.668.137.837.492-.041.884-.899 1.083-1.643 1.068-4.842-.099-9.687-.255-14.53-.351l-31.514-.701c-2.051-.129-4.812-.234-6.804.326-1.13.319-2.206.999-3.429 1.194-2.229.356-4.646.33-6.792-.425-1.61-.577-2.78-1.202-4.51-1.168-16.563.316-33.123.898-49.677 1.477-1.91.066-2.245-1.552-.791-1.596 3.828-.113 7.658-.229 11.486-.387l23.39-.783c3.764-.104 7.56-.152 11.317-.289"/><path fill="#5ea4bc" d="M85.486 135.808c7.486-.183 16.796.68 24.196 1.76q3.68.557 7.352 1.176c.964.169 1.936.352 2.901.524 1.147.205 1.762.264 2.852-.173.372.604.517 1.02.73 1.685-.531-.068-1.226-.064-1.778-.088l-4.222-.146-10.828-.304c-2.944-.184-6.614-.206-9.608-.272l-13.439-.322q-3.985-.106-7.973-.13c-2.174-.022-5.097-.108-7.187.349l-.364-.734c4.088-2.903 12.512-3.246 17.368-3.325M38.662 135.877c1.672-.053 3.554.028 5.209.084 4.5.157 8.896.719 13.11 2.381.57.224 1.456.442 1.717 1.01-.018.299.03.17-.142.407-.278.061-1.583-.169-2.007-.208-1.306-.119-2.57-.109-3.88-.085q-15.36.265-30.71.808-9.141.284-18.274.773a162 162 0 0 1 1.528-3.136c.099 1.46.36 1.72 1.924 1.603 1.543-.117 3.073-.452 4.599-.714q3.704-.636 7.42-1.2c6.926-1.03 12.577-1.464 19.506-1.723"/><path fill="#222" d="M108.087 9.677c9.081-.854 17.146 5.789 18.046 14.864s-5.702 17.174-14.775 18.12c-9.136.953-17.304-5.708-18.211-14.848s5.794-17.275 14.94-18.136"/><path fill="#5ea4bc" d="M112.519 11.728c2.335.514 3.596 1.116 5.598 2.354-2.999 1.878-3.567 4.866-.72 7.31-1.217.155-2.233.38-3.176 1.267a3.98 3.98 0 0 0-1.257 2.859c-.01 1.525.843 2.587 2.131 3.319 1.443.82 3.22.37 2.938 2.641-.309 2.512-1.114 4.033.934 6.094-2.543 1.96-4.56 2.822-7.742 3.265-1.464.092-2.713.1-4.167-.115.434-2.406 1.345-2.878 3.08-4.44 1.502-1.352 2.337-3.164 1.349-5.12-.424-.839-1.345-1.262-1.865-1.999-.846-1.194-1.171-2.797-2.537-3.583-1.256-.759-3.164-.342-4.194-1.383-.368-.372-.422-.93-.378-1.425.218-2.424 2.618-1.641 3.892-3.585.572-.87.619-2.67 1.176-2.95.993-.5 2.366-.066 3.549-1.103.981-.859 1.251-2.162 1.389-3.406"/><path fill="#61a172" d="M108.009 11.501c.458-.053 2.308-.154 2.587.106.103.493-.02 1.28-.269 1.715-.652 1.137-2.143.907-3.262 1.267-1.951.629-1.42 2.37-2.144 3.715-1.32 1-2.852 1.006-3.685 2.75-1.068 2.238-.261 4.96 2.319 5.54.716.162 1.947.151 2.565.47 1.144.59 1.435 2.465 2.279 3.394.586.648 1.47 1.101 1.791 1.927.471 1.795-2.324 3.352-3.358 4.509-.479.537-.541.606-.893 1.222-.359.837-.463 1.178-.549 2.082-.493-.112-.835-.231-1.314-.396-.111-1.126-.054-2.486-.084-3.623-.053-2.02-1.361-2.401-2.047-4.01-.448-1.048-.079-2.724-.454-3.868-.411-1.257-1.518-1.563-2.216-2.589-.492-.745-.656-1.706-1.112-2.472-.602-1.015-1.408-1.27-2.462-1.521 1.803-5.892 6.169-9.493 12.308-10.218M119.532 15.413c.751.252 1.639 1.537 2.123 2.167 4.077 5.289 3.426 14.238-1.531 18.812-.686-.896-.809-1.255-.789-2.347.327-1.77.78-2.617.142-4.514-.96-2.85-5.143-1.017-4.736-4.61.177-1.197 2.134-1.776 3.177-2.033 1.267-.312 1.962-1.698.844-2.536-2.512-1.883-1.568-3.671.77-4.94"/><path fill="#5ea4bc" d="M95.424 23.492c.116.02.549.097.64.146 1.067.587 1.205 2.559 2.079 3.627.446.544 1.43 1.208 1.52 1.458.454 1.262.099 2.527.56 3.913.513 1.547 1.27 1.726 1.92 3.024.259.517.345 3.042.175 3.413l-.147-.032c-2.784-1.653-4.608-3.665-5.93-6.676-.978-2.224-1.755-6.573-.817-8.873"/><mask id="b" width="33" height="38" x="51" y="-1" maskUnits="userSpaceOnUse" style="mask-type:luminance"><path fill="#fff" d="M51.348-.026h32.005v36.442H51.348z"/></mask><g mask="url(#b)"><path fill="#222" d="M66.876.015c3.37-.268 5.255 3.157 6.075 5.91 2.064-.855 5.684-1.754 7.658-.257 3.916 2.97.26 8.742-1.837 11.69 1.145 1.276 2.75 3.295 3.493 4.803 3.287 6.682-2.403 10.02-8.552 7.959-1.117 3.62-2.594 6.46-6.87 6.135-3.063-.842-4.38-3.035-5.262-5.943a14.2 14.2 0 0 1-3.657 1.008c-1.643.215-3.853-.04-5.128-1.145-3.736-3.238.768-8.895 2.939-11.478-1.96-2.516-4.962-6.327-4.126-9.725a4.16 4.16 0 0 1 1.892-2.566c2.632-1.589 5.145-.551 7.68.074.996-3.12 2.038-5.957 5.695-6.465"/></g><path fill="#fac047" d="M67.282 11.22c1.045.3 4.903 3.151 5.783 3.985.16 2.229.186 3.61.01 5.843-1.212 1.107-4.406 3.275-5.759 4.188l-.171.103c-.706-.076-4.739-2.978-5.363-3.652-.248-1.797-.133-4.304-.085-6.154.972-1.036 4.339-3.532 5.585-4.313"/><path fill="#222" d="M66.919 15.217a3.114 3.114 0 1 1 .79 6.177 3.114 3.114 0 0 1-.79-6.177"/><path fill="#fac047" d="M67.07 16.905a1.435 1.435 0 0 1 1.559 1.96 1.434 1.434 0 1 1-1.56-1.961M77.617 18.79c2.762 2.708 6.698 8.911.383 10.18-1.614.161-2.34-.027-3.912-.368.439-2.022.642-5 .689-7.054a51 51 0 0 0 2.84-2.757M57.04 19.886c.267.163 2.87 2.518 3.24 2.854.171 2.374.2 3.532.808 5.94-1.258.492-2.252.738-3.58.925-4.982.363-5.056-3.064-2.888-6.41.765-1.18 1.558-2.198 2.42-3.31M56.526 7.448c1.598-.066 2.72.297 4.244.719-.423 1.84-.696 4.6-.734 6.485-.534.556-1.965 1.719-2.611 2.28-.13.124-.255.223-.392.337l-.115-.025c-2.244-2.59-6.641-9.012-.392-9.796M77.014 6.774c2.263-.184 3.703.388 3.456 2.992-.143 1.505-2.065 5.549-3.203 6.445a51 51 0 0 1-2.624-2.198c-.484-2.328-.327-3.768-1.189-6.29 1.215-.5 2.26-.803 3.56-.949M67.278 27.328c1.793.953 2.888 1.55 4.774 2.293-.58 2.049-1.671 4.217-3.868 4.814-3.065.106-4.146-2.303-5.061-4.76a49 49 0 0 0 4.155-2.347M67.078 1.875c2.56.196 3.587 2.718 4.444 4.759a42 42 0 0 0-4.214 2.486l-.095.048c-.218.018-3.826-1.793-4.329-2.016.734-2.307 1.493-4.78 4.194-5.277M72.842 23.176l.088.024c.196.454-.33 4.2-.417 4.862l-2.472-1.148c-.447-.196-.863-.413-1.297-.633 1.393-1.076 2.723-1.913 4.098-3.105M71.756 8.265l.076.04c.32.655.759 3.611.909 4.519-.578-.498-1.091-.855-1.711-1.292-.746-.558-1.479-.957-2.29-1.399.91-.619 2.064-1.286 3.016-1.868M62.474 8.812c1.025.412 2.195.987 3.211 1.46-.7.544-1.49 1.105-2.207 1.636-.656.518-1.105.894-1.709 1.47.247-1.64.31-2.9.705-4.566M62.094 24.17c.988.81 2.479 1.658 3.59 2.321-.31.217-.686.437-1.01.639-.642.342-1.314.653-1.97.966-.176-.987-.596-3.03-.61-3.925M59.901 17.029c.156.159.047 1.024.038 1.275-.023.74 0 1.397.09 2.13l-.851-.824a54 54 0 0 1-.96-.986c.523-.529 1.137-1.082 1.683-1.595M74.83 16.416q.852.653 1.65 1.37l-.778.807-.887.895c.181-1.256.12-1.814.016-3.072"/><path fill="#222" d="M19.61 4.41c8.949-1.033 15.798 6.971 13.277 15.637-.298 1.024-.826 2.16-1.3 3.127-1.224 2.501-1.606 4.802-1.215 7.55 1.48 1.213 1.76 2.833 1.018 4.563.932 2.31.237 3.24-1.607 4.583-.137.47-.267.995-.509 1.417-.92 1.613-2.923 1.978-4.584 1.506a5 5 0 0 1-.373-.104c-.78-.253-1.013-.784-1.367-1.46-2.481-.593-3.573-1.08-3.574-3.868-1.394-1.188-1.698-2.613-.849-4.239-1.17-4.277-1.774-4.405-4.997-6.83a11.52 11.52 0 0 1-4.507-7.703C8.076 11.556 12.496 5.35 19.61 4.41"/><path fill="#ea6741" d="M20.064 6.183q.231-.034.465-.048c2.683-.19 5.61.821 7.622 2.58 3.353 2.933 4.19 7.59 2.708 11.69-.565 1.562-1.457 2.779-1.88 4.435-.562 2.199-.504 3.885-.36 6.084-.872.171-1.553.263-2.43.367-.202-1.824-1.17-6.535-1.6-8.337.22-.126.519-.313.71-.482 1.33-1.175 1.971-4.454.711-5.852-.754-.838-1.86-.625-2.596.152-1.033 1.093-.759 2.734-.81 4.103-.01.289-.03.481-.241.67-.662-.282-1.105-2.073-1.32-2.754-.257-.745-.606-1.514-1.347-1.892a1.68 1.68 0 0 0-1.326-.091c-1.494.52-1.79 2.416-1.214 3.728.754 1.713 2.012 2.325 3.619 2.993.44 2.66 1.161 5.81 1.752 8.47-.859.157-1.537.287-2.388.514-1.18-4.425-1.982-4.882-5.451-7.569a10.45 10.45 0 0 1-3.887-6.718 10.94 10.94 0 0 1 2.092-8.06c1.768-2.311 4.317-3.612 7.17-3.983"/><path fill="#5ea4bc" d="M29.059 36.062c.247-.037.733-.132.821.208.553 2.104-2.397 2.457-3.799 2.745-1.14.233-2.794.611-3.914.272-.527-.303-1.23-.965-1.172-1.623l.1-.123a197 197 0 0 1 7.964-1.48M28.907 32.599c.212-.022.423-.062.61.07.188.135.28.355.32.575.052.29.051.656-.147.893-.136.161-7.9 1.506-8.66 1.615-.968.117-1.13-.693-.828-1.413.506-.397 7.486-1.511 8.705-1.74"/><path fill="#ea6741" d="M22.407 23.26c.278.003.299 0 .567.066.241.78 1.652 7.801 1.618 8.278l-.305-.044c-.397-.337-1.706-7.307-1.88-8.3M24.678 17.668l.154.09c.61.892.145 2.263-.357 3.107l-.135.087-.12-.041c-.227-.88-.017-2.433.458-3.244M18.81 18.341c.53.187 1.46 2.888 1.302 3.186-.791-.641-2.098-2.152-1.302-3.186"/><path fill="#5ea4bc" d="m27.636 40.29.087.086c-.568.94-1.704.86-2.638.684l-.136-.112-.01-.138c.247-.16 2.23-.444 2.697-.52"/><path fill="#222" d="M93.536 46.956c.36-.055.826-.045 1.175-.036 10.504.275 16.415 12.049 9.781 20.407-.23.29.262.757-.54 1.047-.715.26-1.397 1.14-2.066 1.537-3.161 2.196-6.85 2.776-10.54 1.78-.737 1.174-1.427 2.684-2.07 3.923-1.364 2.632-2.658 5.387-4.132 7.955-.67 1.205-1.44 2.236-2.834 2.643-1.884.577-4.567-.681-5.093-2.625-.554-2.044 1.59-4.587 2.675-6.238l3.563-5.536c.62-.96 1.528-2.248 2.065-3.217l.05-.093a12.7 12.7 0 0 1-3.365-6.891 12.84 12.84 0 0 1 2.424-9.632c2.29-3.012 5.208-4.534 8.907-5.024m1.785 19.389a6.757 6.757 0 0 0-1.323-13.45 6.757 6.757 0 1 0 1.323 13.45"/><path fill="#ea6741" d="M94.092 48.843c5.938-.299 10.998 4.262 11.314 10.199.315 5.936-4.231 11.008-10.167 11.342-5.96.334-11.06-4.236-11.376-10.196-.317-5.96 4.267-11.045 10.23-11.345m1.229 17.502a6.757 6.757 0 1 0-1.324-13.45 6.757 6.757 0 1 0 1.324 13.45"/><path fill="#222" d="M93.415 51.151a8.59 8.59 0 0 1 9.736 7.245 8.586 8.586 0 0 1-7.23 9.745 8.587 8.587 0 1 1-2.505-16.99m1.908 15.194a6.758 6.758 0 1 0-1.325-13.452 6.758 6.758 0 0 0 1.325 13.452"/><path fill="#fac047" d="M84.816 73.056q1.413.849 2.85 1.663c-.536 1.441-3.752 7.636-4.628 8.766-.362.467-.711.756-1.245 1.012-1.207.241-3.367-1.008-2.606-2.421.57-1.06 1.266-2.085 1.915-3.1a254 254 0 0 0 3.714-5.92"/><path fill="#5ea4bc" d="M86.998 69.695c.867.583 1.672 1.025 2.584 1.534-.343.64-.67 1.26-1.054 1.877q-1.347-.729-2.677-1.494c.269-.552.81-1.373 1.147-1.917"/><path fill="#222" d="M46.79 38.18c1.305-.116 3.443.428 4.528 1.157 2.295 1.544 3.205 2.912 3.819 5.494.968-.316 1.687-.558 2.709-.617a6.69 6.69 0 0 1 4.937 1.745c3.216 2.908 3.327 8.095.325 11.25-2.58 2.712-5.228 2.561-8.699 2.582q-2.715-.005-5.43.058-3.31.088-6.62.115c-1.417.025-2.861.054-4.278.099-4.3.133-8.156-2.435-8.075-7.09a6.95 6.95 0 0 1 2.215-4.962c1.772-1.678 3.787-2.142 6.134-2.087.97-4.867 3.393-7.32 8.434-7.744"/><path fill="#5ea4bc" d="M46.264 40.113c3.337-.37 6.142 1.463 6.948 4.718.178.715.168 2.047.598 2.577.417.514 2.15-.706 2.69-.932a4.8 4.8 0 0 1 1.67-.376c1.313-.051 2.42.395 3.367 1.287a5.9 5.9 0 0 1 1.873 4.243c.025 1.607-.64 3.296-1.748 4.454-2.523 2.638-8.096 1.891-11.621 1.91-3.195.092-6.397.089-9.593.202-1.464.015-3.047.113-4.484-.148-3.729-.697-5.418-5.102-3.005-8.062 1.655-2.18 4.027-2.21 6.502-2.003.895.075.797-2.329.982-2.998a6.5 6.5 0 0 1 1.106-2.25c1.169-1.536 2.825-2.373 4.715-2.622"/><path fill="#222" d="M12.131 50.89c.224-.008.5-.037.716.025.664.188 6.478 6.795 7.007 7.74.621 1.108.909 2.566 1.295 3.779l2.484 7.777 2.666 8.174c1.265 3.849 3.214 7.206-1.347 9.73-2.038 1.096-5.043 1.344-6.556-.63-1.268-1.656-1.957-4.803-2.598-6.843l-2.894-9.123-1.982-6.134c-.125-.397-.965-3.073-.946-3.442.155-3.078.629-6.709 1.172-9.772.14-.792.376-.902.983-1.28"/><path fill="#5ea4bc" d="M18.798 61.291c.265.303 5.64 17.067 6.224 18.83l-2.481.728c-.062.007-.152-.016-.22-.029-.528-1.394-1.082-3.517-1.573-5.017-1.493-4.57-2.85-9.167-4.377-13.73.697-.288 1.688-.559 2.427-.782M14.54 62.634l.088.007c.343.289 5.408 16.692 6.012 18.732q-1.154.393-2.298.818l-.028-.006c-.26-.24-1.934-5.763-2.164-6.49l-2.59-8.07c-.442-1.39-.986-2.936-1.324-4.34.641-.23 1.626-.467 2.305-.65"/><path fill="#fac047" d="M25.435 81.71c.152.217.413 1.092.479 1.385.173.767.023 1.57-.416 2.222-1.126 1.656-3.758 2.388-5.483 1.202-.905-.933-1.024-1.441-1.347-2.663 1.367-.34 5.48-1.607 6.767-2.145M14.678 55.54c.46.251 3.228 3.478 3.601 4.052-1.025.407-2.684.843-3.79 1.164l-2.757.808c.083-1.448.453-3.81.663-5.303.696-.25 1.566-.498 2.283-.722"/><path fill="#222" d="M46.416 67.856c.293-.027.755-.035 1.021.1 1.56.782 2.419 5.115 3.5 5.992.51.415 5.586-.578 6.527-.266.364.12.377.13.728.34 1.591 2.103-.952 3.853-2.23 5.299-.629.71-1.327 1.26-1.876 2.067.81 2.032 2.1 4.594 2.239 6.697-1.564 3.974-6.556-1.595-8.163-1.243-1.633 1.203-3.292 2.713-5.016 3.774-1.057.65-2.054.212-2.807-.714-.094-2.179.64-4.831 1.052-7.04-1.659-1.545-4.963-2.704-5.9-4.68-1.49-3.136 6.838-2.632 7.36-3.209 1.404-1.544 1.224-5.974 3.565-7.117"/><path fill="#fac047" d="M46.726 70.025c.795.634 1.923 4.653 3.048 5.572 1.12.913 6.213-.424 6.941 0-.066.91-4.345 4.085-4.449 5.586-.106 1.553 2.129 5.045 2.104 6.313-.616.546-4.664-2.576-6.24-2.562-1.34.37-4.502 3.118-5.972 4.118q.157-1.596.478-3.167c.612-3.126 1.043-4.046-2.064-5.823-.98-.561-2.396-1.577-3.162-2.38 1.79-.143 4.53-.655 6.277-1.014 1.33-.273 2.463-5.27 3.04-6.643"/><path fill="#222" d="M66.753 86.525c.544.117.77.152 1.053.648.094.67-.722 7.146-.91 8.312-.041.262-.576.472-.845.577-.304-.03-.995-.217-.984-.596.074-2.75.316-5.768.898-8.449.05-.23.601-.436.788-.492M4.068 38.462c.14.016.267.036.4.087.612.231 5.427 4.545 5.657 5.143.122.316.15.645-.004.955-.136.275-.299.374-.579.475-1.314-.044-4.151-3.512-5.353-4.373-.183-.132-.7-.707-.825-.908a.77.77 0 0 1-.067-.663c.143-.384.432-.543.771-.716M122.246 50.13c.139.006.284.014.42.048.273.068.565.315.704.557a.73.73 0 0 1 .049.648c-.253.61-5.409 4.215-6.21 4.65-.189.011-.399.033-.582-.017a.91.91 0 0 1-.572-.502c-.099-.218-.086-.43-.01-.652.231-.68 5.292-4.293 6.201-4.733M102.995 78.574c.437-.02.803.095 1.154.362.289.496-.12 1.195-.513 1.463-1.526 1.04-3.405 2.63-4.99 3.474-2.062.237-1.29-2.019.52-2.747.898-.362 2.597-2.01 3.829-2.552M120.598 68.182c.634.02 1.37.617 1.035 1.128-.888 1.355-4.293 2.98-5.718 3.628-.095-.003-.167-.002-.259-.016-.277-.038-.603-.207-.757-.447-.149-.233-.164-.597-.063-.855.211-.537 4.989-3.132 5.762-3.438M.636 73.928c.994-.004 4.288 2.18 5.407 2.72 1.041.501.787 1.192.141 1.936-1.141.16-4.882-2.342-5.951-3.092-.562-.394.022-1.233.403-1.564M79.472 41.872c.844.009.967.06 1.433.76-.41 1.377-1.626 5.046-2.588 5.93-2.192.026-.995-2.442-.525-3.575.395-.95.863-2.506 1.68-3.115M68.922 65.759c.585.09 1.102.332 1.03 1.016-.145 1.368-.542 2.773-.888 4.105-.118.46-.391.547-.778.74-.81-.123-1.347-.271-1.171-1.235.254-1.396.502-2.852.986-4.188.1-.277.562-.369.82-.438M42.704 18.737c.273-.015.865-.032 1.016.255.615 1.17 1.24 3.509 1.34 4.828.022.293-.476.544-.687.659-.733-.008-.977-.052-1.191-.801-.393-1.376-.99-2.828-1.105-4.247-.021-.272.467-.587.627-.694"/></svg>