<svg xmlns="http://www.w3.org/2000/svg" width="95" height="123" fill="none" viewBox="0 0 95 123"><mask id="a" width="96" height="123" x="-1" y="0" maskUnits="userSpaceOnUse" style="mask-type:luminance"><path fill="#fff" d="M-.016 0h94.813v123H-.016z"/></mask><g mask="url(#a)"><path fill="#182f5f" fill-rule="evenodd" d="M15.483 122.998 0 122.995c.522-7.351 2.03-14.633 4.97-21.414.886-2.044 1.874-4.056 3.156-5.884 1.001-1.639 2.61-2.926 4.368-3.672l6.867-2.929 10.013-3.661 7.029-7.24.568.518-.025-5.106c-.054-.294-.95-.828-1.234-1.041-1.54-1.155-2.987-2.514-4.286-3.936-2.659-2.912-5.111-6.38-6.06-10.242-.44.075-.953.072-1.386-.045l-.108-.031c-1.398-.386-2.57-1.551-3.437-2.66-1.385-1.771-2.459-4.23-2.139-6.525.152-1.079.687-2.32 1.617-2.959 1.097-.753 2.389-.61 3.621-.428-.391-1.391-.587-2.941-.783-4.374-.602-4.386-.915-8.734-.338-13.144l-9.818-5.07-2.243-1.132c-.61-.298-1.303-.563-1.834-.989l-.058-.049c-.067-.071-.136-.14-.184-.227-.129-.228-.105-.55-.015-.789.123-.322.468-.494.754-.645l11.071-5.546L31.81 7.854l9.675-4.88 3.687-1.877C45.926.717 46.678.308 47.466 0l32.33 16.314 1.722.854 3.104 1.533c.509.257 1.146.506 1.6.846.12.091.215.226.267.369.11.302.082.65-.076.931-.215.386-2.497 1.302-3.023 1.502l-.018.003-1.837.823.004 9.688c.513.284.885.73 1.047 1.298.15.535.034 1.085-.245 1.556l-.246.363c.593.861.865 1.977 1.184 2.966l.962 2.933c-1.084.42-2.227.504-3.38.54-1.416.046-2.865.01-4.205-.49.115-.591.366-1.153.559-1.723l1.594-4.441-.082-.135c-.292-.541-.395-1.072-.203-1.665.198-.598.653-.944 1.192-1.212.12-.91.051-1.913.054-2.833l-.015-6.01-8.67 3.922.3 3.01c.512 4.982-.323 9.711-1.342 14.57 1.832-.146 3.763-.302 5.262.99.938.808 1.456 1.911 1.527 3.14.13 2.258-1.09 4.386-2.56 6.015-1.085 1.2-2.402 2.274-3.9 2.913-.195.083-1.353.397-1.407.445-.034.032-.117.372-.138.434-.15.47-.305.944-.493 1.399-.527 1.278-1.208 2.546-1.94 3.719-1.465 2.34-3.28 4.572-5.339 6.415-.82.734-1.656 1.456-2.537 2.116-.159.12-.847.509-.915.64-.022.045-.003.296-.003.354-.003.46.056 1.022-.044 1.47v3.157c.197-.178.4-.405.636-.53.706.579 1.315 1.359 1.956 2.017l4.907 5.13 9.931 3.822 7.16 2.833c1.87.76 3.883 1.48 4.849 3.396l1.853 3.94c2.49 5.905 4.391 12.018 5.378 18.36.27 1.743.517 3.549.554 5.313l-15.615-.002z" clip-rule="evenodd"/></g><path fill="#182f5f" d="M79.717 32.853c.658-.232 1.162-.205 1.822.01.513.283.885.73 1.046 1.3.15.533.035 1.083-.244 1.553l-.246.364-.486.394c-.405.261-1.03.314-1.495.187l-.073-.022c-.519-.152-.839-.422-1.233-.775l-.08-.134c-.293-.542-.396-1.073-.204-1.666.198-.597.653-.943 1.193-1.211m1.803-15.685 3.102 1.533c.51.258 1.146.507 1.6.845a.8.8 0 0 1 .267.37c.111.302.083.649-.076.93-.215.386-2.496 1.303-3.023 1.503l-.017.003-1.837.823.012-1.762z"/><path fill="#18244c" d="M81.547 21.413c.592.248 1.407.448 1.826.939l-1.838.823z"/><path fill="#f9b871" d="m79.795 16.314 1.723.854.028 4.246-.012 1.762.005 9.688c-.66-.215-1.164-.242-1.823-.01.119-.911.05-1.914.054-2.832l-.015-6.011.004-3.444zm-.985 19.551c.392.353.713.623 1.232.774l.073.022c.464.128 1.09.075 1.494-.186l.487-.395c.593.862.864 1.977 1.183 2.968l.963 2.931c-1.085.42-2.228.505-3.38.54-1.416.046-2.865.01-4.206-.49.116-.591.367-1.153.56-1.723zM25.365 58.387a3.35 3.35 0 0 1-1.385-.044l-.108-.031c-1.398-.386-2.57-1.551-3.437-2.66-1.385-1.771-2.459-4.23-2.139-6.526.152-1.078.687-2.319 1.617-2.956 1.097-.754 2.389-.611 3.621-.43.182.726.328 1.601.605 2.29l-.206.066c.046.09.095.14.084.243-.134 1.27 1.1 7.305.837 7.77l.123.076c.135.721.135 1.51.388 2.202"/><path fill="#ec6542" d="m24.855 56.11-.069-.021c-1.622-.501-2.66-1.642-3.42-3.113-.543-1.048-.987-2.537-.592-3.701a1.92 1.92 0 0 1 1.035-1.15c.734-.345 1.385-.294 2.125-.029.046.089.095.14.084.243-.135 1.271 1.1 7.305.837 7.77"/><mask id="b" width="17" height="28" x="-1" y="95" maskUnits="userSpaceOnUse" style="mask-type:luminance"><path fill="#fff" d="M-.016 95.667H15.74V123H-.016z"/></mask><g mask="url(#b)"><path fill="#247a84" d="M8.126 95.697c.689.931 1.129 2.214 1.574 3.28 2.515 6.046 4.131 12.501 5.141 18.961.261 1.664.546 3.378.642 5.061L0 122.995c.522-7.351 2.03-14.632 4.97-21.414.886-2.043 1.874-4.056 3.156-5.884"/></g><mask id="c" width="16" height="28" x="79" y="95" maskUnits="userSpaceOnUse" style="mask-type:luminance"><path fill="#fff" d="M79.138 95.287h15.66V123h-15.66z"/></mask><g mask="url(#c)"><path fill="#247a84" d="m86.996 95.386 1.853 3.94c2.49 5.906 4.391 12.018 5.377 18.361.272 1.742.518 3.548.555 5.313l-15.615-.003.874-6.371c.696-4.078 1.657-8.212 2.925-12.152l1.97-5.382 1.034-2.368c.17-.353.36-.789.622-1.081.108-.123.258-.191.405-.257"/></g><path fill="#182f5f" d="M8.459 20.982c-.066-.071-.135-.14-.183-.225-.129-.23-.105-.552-.015-.79.124-.321.468-.495.754-.646l11.071-5.546 11.725-5.921 9.674-4.88 3.687-1.877C45.927.717 46.678.308 47.466 0l32.33 16.314-.036 4.253c-.686-.46-1.482-.802-2.22-1.169l-4.49-2.148c-4.184-1.979-8.523-3.81-12.973-5.1-7.135-2.069-14.793-2.77-22.11-1.323-2.88.57-5.71 1.56-8.38 2.768-1.247.563-2.467 1.14-3.643 1.838l-3.221 2.094a24.6 24.6 0 0 1-5.46 2.531c-2.061.656-4.213.95-6.375.958-.773.002-1.686-.166-2.43-.034"/><path fill="#f9b871" d="M43.55 20.275c6.665-.494 13.744.048 20.118 2.153 2.299.759 4.521 1.66 6.558 2.988.06.04.673.457.692.45.037-.016.058-.054.088-.08-.146.371-.072.881-.052 1.279.028.292.043.587.133.867l.3 3.01c.51 4.982-.324 9.711-1.342 14.57 1.831-.146 3.762-.3 5.261.99.939.808 1.456 1.911 1.528 3.14.13 2.258-1.09 4.386-2.563 6.015-1.082 1.2-2.4 2.274-3.897 2.913-.196.083-1.354.397-1.407.445-.035.032-.118.372-.138.436-.152.468-.306.941-.494 1.397-.527 1.28-1.207 2.546-1.941 3.719-1.464 2.341-3.28 4.572-5.337 6.415-.82.734-1.657 1.456-2.538 2.118-.158.118-.846.507-.915.639-.023.044-.003.296-.003.353-.003.46.055 1.023-.044 1.47v3.158c-.979 1.08-2.078 2.066-3.111 3.095l-4.557 4.622-1.633 1.676c-.2.209-.516.458-.62.722-.22-.007-.427-.02-.644.022-.11-.344-3.243-3.325-3.77-3.86l-3.951-3.943c-.75-.75-1.655-1.502-2.299-2.341l-.025-5.106c-.053-.294-.949-.826-1.234-1.041-1.54-1.156-2.988-2.514-4.285-3.936-2.66-2.912-5.112-6.378-6.061-10.243-.254-.692-.254-1.481-.389-2.202l-.123-.075c.264-.466-.971-6.5-.836-7.771.01-.102-.039-.154-.085-.243l.206-.067c.147.538.356 1.18.651 1.655.146.234.215.24.466.301.12-.126.142-.159.174-.337.13-.754.135-1.572.19-2.337.096-1.294.226-2.593.438-3.873.27-1.628.668-3.212 1.236-4.763l.703-1.54c-.371-.529-.571-1.147-.795-1.75a30 30 0 0 1-1.701-7.128c-.116-1.062-.111-2.125-.172-3.191 1.916-1.228 4.21-1.892 6.316-2.718 3.016-.849 6.102-1.498 9.218-1.861z"/><path fill="#ec6542" d="m71.717 48.219.18-.015c.58-.03 1.153.04 1.592.467.342.335.436.782.443 1.246.034 2.146-1.66 4.256-3.1 5.699-.318.326-.742.645-1.22.655-.247.006-.302-.004-.471-.182-.025-1.022.062-2.033.135-3.052.081-1.129.06-2.527.658-3.516.429-.706.985-1.105 1.783-1.302"/><path fill="#e89e5c" d="m27.295 38.675.025.085c.182.645.147 1.37.215 2.039l.53 5.453.824 7.57c.203 1.836.276 3.765.789 5.546.388 1.348 1.094 2.662 1.83 3.854 1.824 2.957 4.109 5.714 6.726 8.002a30 30 0 0 0 4.796 3.423c1.415.814 2.878 1.538 4.428 2.06.535.179 1.043.372 1.61.382l.127.006.077.002c3.004-.405 5.801-1.562 8.267-3.315l-.02 1.7c-1.045.596-2.099 1.229-3.195 1.721-2.315 1.043-4.984 1.574-7.521 1.408-1.246-.082-2.413-.338-3.617-.638l.037 7.025-3.952-3.943c-.75-.75-1.655-1.503-2.299-2.342l-.025-5.106c-.052-.293-.949-.826-1.234-1.04-1.54-1.156-2.986-2.514-4.285-3.936-2.66-2.913-5.112-6.379-6.061-10.243-.254-.693-.254-1.481-.389-2.202l-.123-.076c.264-.465-.971-6.5-.836-7.77.01-.103-.039-.155-.085-.244l.206-.066c.147.538.356 1.18.651 1.655.146.234.215.24.466.3.12-.125.142-.16.174-.336.13-.755.135-1.572.19-2.337.097-1.295.226-2.594.438-3.874a26.3 26.3 0 0 1 1.236-4.763"/><path fill="#18244c" d="M31.783 30.67c.077.001.155-.012.233.003.215.043 1.205.884 1.47 1.059 1.094.728 2.22 1.411 3.398 1.996 9.175 4.56 20.313 4.953 29.727.883 1.235-.535 2.475-1.078 3.624-1.782-.495.629-1.373 1.186-2.042 1.627-.255.167-.847.455-1 .714-4.438 2.57-9.664 3.764-14.778 3.638-3.077-.075-6.243-.443-9.203-1.308-4.296-1.256-8.336-3.589-11.43-6.83"/><path fill="#354b78" d="M43.549 20.275c6.665-.494 13.745.048 20.118 2.153 2.299.759 4.522 1.66 6.558 2.988.06.04.673.457.693.45.037-.016.057-.054.087-.08-.145.371-.071.881-.052 1.279.028.292.043.587.134.867l.3 3.01a.75.75 0 0 1-.249.214c-1.408.76-2.995 1.326-4.52 1.814-6.428 2.064-13.4 2.344-19.915.49-4.94-1.404-9.324-4.132-12.72-7.975-.803-.907-1.623-1.895-2.213-2.955l-.125-.182c3.016-.849 6.102-1.498 9.218-1.861z"/><path fill="#182f5f" d="m29.375 85.435 7.028-7.24.57.518c.643.84 1.547 1.59 2.298 2.341l3.952 3.943c.526.536 3.66 3.516 3.77 3.86.216-.043.423-.03.643-.022.104-.264.42-.513.62-.722l1.632-1.676 4.558-4.622c1.033-1.03 2.132-2.015 3.11-3.095.198-.18.401-.406.637-.53.706.578 1.315 1.358 1.956 2.016l4.907 5.131 9.931 3.822 7.16 2.833c1.87.76 3.882 1.479 4.849 3.395-.147.065-.297.135-.405.256-.261.293-.45.728-.621 1.081l-1.035 2.369-1.97 5.381c-1.268 3.94-2.229 8.075-2.924 12.153l-.875 6.371H15.484c-.096-1.682-.38-3.396-.642-5.06-1.01-6.46-2.625-12.915-5.141-18.961-.445-1.066-.885-2.349-1.573-3.28 1-1.639 2.61-2.926 4.367-3.672l6.867-2.929z"/><mask id="d" width="64" height="36" x="12" y="77" maskUnits="userSpaceOnUse" style="mask-type:luminance"><path fill="#fff" d="M12.322 77.825h63.019v34.926H12.322z"/></mask><g mask="url(#d)"><mask id="e" width="63" height="35" x="12" y="78" maskUnits="userSpaceOnUse" style="mask-type:luminance"><path fill="#fff" d="m29.373 85.435 7.028-7.24.57.518c.643.84 1.548 1.59 2.298 2.341l3.952 3.943c.527.536 3.66 3.516 3.77 3.86.216-.043.424-.03.643-.022.104-.264.42-.513.62-.722l1.633-1.676 4.557-4.622c1.033-1.03 2.132-2.015 3.111-3.095.197-.18.4-.406.636-.53.706.578 1.316 1.358 1.956 2.016l4.907 5.131 9.932 3.822c-.62.8-1.565 1.456-2.336 2.111l-3.887 3.324-21.228 17.896-1.637-1.397c-.112.04-.215.078-.318.139-.726.437-1.63.595-2.46.725-2.141.337-4.665-.36-6.628-1.197l-1.998-.941-.193.083-13.707-11.247-5.156-4.277c-.953-.785-1.905-1.684-2.945-2.353l6.868-2.927z"/></mask><g mask="url(#e)"><path fill="url(#f)" d="m1.972 81.788 17.078 49.83 66.459-22.726-17.079-49.83z"/></g></g><path fill="#ec6542" fill-rule="evenodd" d="m42.909 95.519-1.461-1.66 2.207-1.968 3.336-3.034a2 2 0 0 1 .453-.03c.15-.004.298 0 .45.03l3.338 3.034 2.206 1.968-1.461 1.66-.015 1.426-1.044-.06.135.89 1.188 5.943.359 1.613-5.157 4.519-5.157-4.519.36-1.613 1.188-5.942.135-.891-1.044.06z" clip-rule="evenodd"/><path fill="#4fb0c8" d="m29.374 85.435 7.027-7.24.57.518c.643.839 1.548 1.59 2.298 2.341l3.952 3.943c.527.536 3.66 3.516 3.77 3.86l-3.337 3.034-2.206 1.968-4.332 4.162zm28.182-6.715c.197-.18.4-.407.636-.53.706.577 1.315 1.357 1.956 2.016l4.907 5.13-6.844 12.832-6.206-5.518c-.264-.12-.636-.537-.874-.738l-3.496-3.076c.104-.265.42-.514.62-.722l1.632-1.677 4.557-4.623c1.034-1.027 2.133-2.015 3.111-3.094"/><path fill="#ec6542" fill-rule="evenodd" d="M34.301 109.902 20.594 98.655l-5.156-4.277c-.953-.786-1.905-1.684-2.945-2.352l6.868-2.929c.36.41.839.742 1.262 1.086l2.6 2.083 6.128 4.933 9.779 8.202 6.768 5.691 1.637 1.399 21.228-17.896 3.887-3.324c.771-.655 1.716-1.312 2.335-2.113l7.16 2.834c-.953.507-1.8 1.178-2.642 1.846L76.187 96.6l-6.36 5.417-22.308 18.787z" clip-rule="evenodd"/><path fill="#18244c" fill-rule="evenodd" d="m27.998 37.137-.703 1.538a26.3 26.3 0 0 0-1.236 4.763c-.212 1.28-.34 2.579-.437 3.873-.056.766-.06 1.583-.191 2.337-.032.178-.054.211-.174.337-.25-.06-.32-.067-.466-.3-.295-.476-.504-1.118-.65-1.656-.278-.688-.423-1.563-.606-2.29-.391-1.39-.587-2.94-.783-4.373-.602-4.386-.915-8.734-.338-13.144l-9.818-5.07-2.242-1.132c-.613-.297-1.304-.562-1.835-.99l-.06-.048c.744-.132 1.657.035 2.43.034 2.162-.007 4.314-.302 6.375-.958a24.6 24.6 0 0 0 5.46-2.531l3.221-2.094c1.176-.697 2.397-1.276 3.642-1.838 2.671-1.208 5.5-2.197 8.38-2.768 7.319-1.448 14.976-.746 22.11 1.322 4.451 1.29 8.79 3.122 12.974 5.1l4.49 2.15c.738.365 1.535.708 2.22 1.168l-.005 3.443-8.669 3.922c-.09-.28-.105-.575-.133-.867-.02-.398-.094-.908.052-1.28-.03.027-.05.065-.088.08-.02.008-.632-.41-.693-.45-2.035-1.326-4.258-2.228-6.557-2.987-6.374-2.105-13.453-2.647-20.119-2.154l-2.685.213c-3.116.363-6.202 1.012-9.218 1.86l.124.183c.59 1.06 1.41 2.048 2.214 2.956 3.396 3.842 7.78 6.57 12.72 7.975 6.514 1.854 13.488 1.573 19.915-.491 1.525-.488 3.111-1.054 4.52-1.814a.75.75 0 0 0 .248-.213c.511 4.98-.324 9.71-1.342 14.57-.166 1.004-.353 1.991-.66 2.962-.138.438-.29.92-.56 1.297-.084.117-.053.103-.21.129-.064-.05-.142-.084-.194-.146-.126-.147-.027-1.075-.02-1.285.141-4.44-.105-8.98-1.208-13.3-4.437 2.57-9.663 3.764-14.777 3.638-3.078-.075-6.244-.443-9.204-1.308-4.296-1.256-8.335-3.588-11.429-6.83l-1.023-1.02c-.06.838-.034 1.673-.015 2.51.008.281.094.796.017 1.04-.04.13-.955 1.126-1.089 1.305a21 21 0 0 0-1.675 2.631" clip-rule="evenodd"/><path fill="#247a84" fill-rule="evenodd" d="m43.548 20.275-2.686.212c-3.116.363-6.202 1.013-9.218 1.86-2.106.827-4.4 1.491-6.316 2.72-.992.56-1.918 1.181-2.78 1.927-.03-.86.01-1.757.09-2.614.097-1.024.19-2.087.914-2.888.758-.838 1.908-1.185 2.926-1.622 5.834-2.505 11.985-3.516 18.292-3.874l4.309.024c5.959.239 12.285 1.296 17.797 3.616 1.401.588 2.894 1.275 4.13 2.163l-.002 3.986c-.03.027-.05.066-.087.08-.02.008-.632-.409-.693-.449-2.036-1.327-4.259-2.229-6.557-2.988-6.374-2.104-13.453-2.647-20.12-2.153" clip-rule="evenodd"/><defs><linearGradient id="f" x1="11.042" x2="77.485" y1="108.252" y2="85.48" gradientUnits="userSpaceOnUse"><stop stop-color="#12234f"/><stop offset=".125" stop-color="#12234f"/><stop offset=".188" stop-color="#12234f"/><stop offset=".219" stop-color="#12234f"/><stop offset=".234" stop-color="#132450"/><stop offset=".25" stop-color="#132551"/><stop offset=".266" stop-color="#142552"/><stop offset=".281" stop-color="#152652"/><stop offset=".297" stop-color="#152753"/><stop offset=".313" stop-color="#162854"/><stop offset=".328" stop-color="#162855"/><stop offset=".344" stop-color="#172955"/><stop offset=".359" stop-color="#172a56"/><stop offset=".375" stop-color="#182a57"/><stop offset=".391" stop-color="#192b57"/><stop offset=".406" stop-color="#192c58"/><stop offset=".422" stop-color="#1a2d59"/><stop offset=".438" stop-color="#1a2d5a"/><stop offset=".453" stop-color="#1b2e5a"/><stop offset=".469" stop-color="#1b2f5b"/><stop offset=".484" stop-color="#1c305c"/><stop offset=".5" stop-color="#1d305d"/><stop offset=".516" stop-color="#1d315d"/><stop offset=".531" stop-color="#1e325e"/><stop offset=".547" stop-color="#1e325f"/><stop offset=".563" stop-color="#1f3360"/><stop offset=".578" stop-color="#1f3460"/><stop offset=".594" stop-color="#203561"/><stop offset=".609" stop-color="#203562"/><stop offset=".625" stop-color="#213663"/><stop offset=".641" stop-color="#223763"/><stop offset=".656" stop-color="#223764"/><stop offset=".672" stop-color="#233865"/><stop offset=".688" stop-color="#233965"/><stop offset=".703" stop-color="#243a66"/><stop offset=".719" stop-color="#243a67"/><stop offset=".734" stop-color="#253b68"/><stop offset=".75" stop-color="#263c68"/><stop offset=".766" stop-color="#263c69"/><stop offset=".781" stop-color="#273d6a"/><stop offset=".797" stop-color="#273e6b"/><stop offset=".813" stop-color="#283f6b"/><stop offset=".828" stop-color="#283f6c"/><stop offset=".844" stop-color="#29406d"/><stop offset=".859" stop-color="#29416e"/><stop offset=".875" stop-color="#2a426e"/><stop offset=".891" stop-color="#2b426f"/><stop offset=".906" stop-color="#2b4370"/><stop offset=".922" stop-color="#2c4471"/><stop offset=".938" stop-color="#2c4471"/><stop offset="1" stop-color="#2d4572"/></linearGradient></defs></svg>