<svg xmlns="http://www.w3.org/2000/svg" width="136" height="110" fill="none" viewBox="0 0 136 110"><mask id="a" width="135" height="58" x="0" y="52" maskUnits="userSpaceOnUse" style="mask-type:luminance"><path fill="#fff" d="M0 52.243h134.075V110H0z"/></mask><g mask="url(#a)"><path fill="#5d85bd" d="m.395 70.014 59.942-17.708 68.79 12.568s9.135 10.28 2.383 23.276C115.812 94.148 75.75 110 75.75 110L.395 95.433s-1.713-1.714 1.998-2.57V72.298s-2.57-.57-1.998-2.284"/></g><path fill="#3f5983" d="M78.477 106.669c6.999-12.293-.31-22.761-.31-22.761s11.433-3.99 17.252-6.193l1.187-.229c6.21 12.16 1.504 21.48 1.504 21.48z"/><path fill="#f2f2f2" d="M1.897 72.298v20.565l73.26 13.709s7.469-8.284 0-22.278C44.13 78.297 1.897 72.298 1.897 72.298"/><path fill="#dad9d7" d="m75.157 106.572-73.26-13.71V72.299s21.29 3.024 44.74 6.923c7.853 3.096 13.47 5.32 13.47 5.32l8.076-1.562c2.37.437 4.702.877 6.974 1.315 2.492 4.667 3.32 8.7 3.319 12 0 6.598-3.319 10.278-3.319 10.278"/><mask id="b" width="135" height="59" x="1" y="26" maskUnits="userSpaceOnUse" style="mask-type:luminance"><path fill="#fff" d="M1.67 26.754h134.185v57.86H1.669z"/></mask><g mask="url(#b)"><path fill="#ecb348" d="m135.463 45.486-59.942-18.64-68.789 12.57s-9.135 10.28-2.384 23.275c15.7 6 55.76 21.85 55.76 21.85l75.355-14.566s1.714-1.715-1.998-2.571v-19.89s2.571-.314 1.998-2.028"/></g><path fill="#f2f2f2" d="M133.775 67.404 59.872 82.118 6.465 61.231s-4.96-9.203 1.655-19.337c10.54 4.135 52.684 17.993 52.684 17.993l72.971-12.428z"/><path fill="#dad9d7" d="M59.873 82.118 6.466 61.231s-1.787-3.314-1.786-8.155c0-2.657.54-5.772 2.208-9.054l15.628 3.021c16.194 5.58 38.289 12.844 38.289 12.844z"/><mask id="c" width="135" height="58" x="1" y="0" maskUnits="userSpaceOnUse" style="mask-type:luminance"><path fill="#fff" d="M1.67 0h134.185v57.893H1.669z"/></mask><g mask="url(#c)"><path fill="#47ad96" d="M2.254 17.707 62.196-.001l68.791 12.568s9.134 10.28 2.384 23.274c-15.7 6-55.762 21.852-55.762 21.852L2.254 43.127s-1.713-1.717 2-2.572V19.99s-2.57-.57-2-2.283"/></g><mask id="d" width="90" height="22" x="2" y="-1" maskUnits="userSpaceOnUse" style="mask-type:luminance"><path fill="#fff" d="M2.005-.056h89.04v20.354H2.005z"/></mask><g mask="url(#d)"><path fill="#62bfa9" d="M4.255 19.991s-2.084-.462-2.082-1.805q0-.223.083-.478L62.198 0l28.827 5.266z"/></g><path fill="#f2f2f2" d="M3.756 19.99v20.566l73.26 13.709s7.47-8.284 0-22.279C45.99 25.99 3.756 19.991 3.756 19.991"/><path fill="#9edbc8" d="M80.338 54.265c6.999-12.293-.31-22.763-.31-22.763s13.23-4.656 18.857-6.206c6.356 12.251 1.085 21.544 1.085 21.544z"/></svg>