<svg xmlns="http://www.w3.org/2000/svg" width="163" height="147" fill="none" viewBox="0 0 163 147"><path fill="#cfe1ff" d="M21.887 78.36c-.142-37 29.72-67.109 66.7-67.252 36.977-.143 67.07 29.737 67.213 66.737s-29.72 67.109-66.7 67.252c-36.977.143-67.07-29.736-67.213-66.736"/><mask id="a" width="137" height="138" x="20" y="9" maskUnits="userSpaceOnUse" style="mask-type:luminance"><path fill="#fff" d="M20.828 9.963h136.137v136.111H20.828z"/></mask><g mask="url(#a)"><path fill="#dbe6f9" d="M22.868 78.357c.068 17.633 6.994 34.185 19.505 46.606 12.446 12.358 28.941 19.155 46.466 19.155h.261c17.623-.068 34.165-6.999 46.579-19.515 12.413-12.517 19.212-29.121 19.145-46.755-.14-36.313-29.712-65.761-65.974-65.761h-.258c-36.38.141-65.864 29.87-65.724 66.27m65.97 67.72c-9.076 0-17.887-1.763-26.194-5.24a67.7 67.7 0 0 1-21.65-14.486 67.7 67.7 0 0 1-14.642-21.548c-3.575-8.367-5.406-17.263-5.441-26.438-.036-9.176 1.727-18.085 5.237-26.48a67.8 67.8 0 0 1 14.475-21.662 67.7 67.7 0 0 1 21.538-14.65c8.362-3.577 17.252-5.408 26.423-5.444h.27c9.076 0 17.887 1.763 26.194 5.24a67.7 67.7 0 0 1 21.65 14.484 67.8 67.8 0 0 1 14.642 21.55c3.575 8.368 5.405 17.262 5.441 26.438s-1.727 18.085-5.237 26.48a67.8 67.8 0 0 1-14.476 21.661 67.7 67.7 0 0 1-21.537 14.65c-8.362 3.578-17.254 5.409-26.424 5.445z"/></g><path fill="#c6dcff" d="M34.036 78.315c-.116-30.287 24.327-54.934 54.596-55.05s54.899 24.34 55.017 54.626c.116 30.287-24.327 54.932-54.597 55.049-30.267.117-54.9-24.341-55.016-54.625"/><path fill="#c6dcff" d="m30.211 72.068 59.335-.228a4.58 4.58 0 0 1 4.58 4.546 4.58 4.58 0 0 1-4.546 4.583l-59.332.228a4.577 4.577 0 0 1-4.58-4.546 4.577 4.577 0 0 1 4.543-4.583M73.822 36.158l59.333-.228a4.575 4.575 0 0 1 4.579 4.546 4.58 4.58 0 0 1-4.545 4.583l-59.332.227a4.575 4.575 0 0 1-4.58-4.546 4.577 4.577 0 0 1 4.545-4.582"/><path fill="#c6dcfe" d="M45.942 78.268c-.09-23.708 19.043-43 42.737-43.093 23.696-.09 42.977 19.055 43.069 42.762.09 23.709-19.043 43.001-42.738 43.094-23.694.09-42.977-19.055-43.068-42.763"/><path fill="#c6dcfe" d="m52.431 102.086 59.333-.229a4.576 4.576 0 0 1 4.58 4.547c.009 2.509-2.035 4.572-4.544 4.582l-59.334.228a4.577 4.577 0 0 1-4.58-4.547 4.577 4.577 0 0 1 4.545-4.581M42.102 46.556l59.334-.227c2.509-.011 4.569 2.036 4.578 4.546a4.576 4.576 0 0 1-4.543 4.582l-59.334.228c-2.509.01-4.57-2.036-4.578-4.546-.01-2.51 2.034-4.573 4.543-4.583M84.784 81.746l59.333-.229a4.575 4.575 0 0 1 4.579 4.547c.01 2.51-2.035 4.572-4.544 4.581l-59.334.229c-2.508.01-4.57-2.035-4.58-4.546a4.576 4.576 0 0 1 4.546-4.582M148.65 64.256l-1.058.513a.12.12 0 0 1-.109-.003l-1.021-.58a.117.117 0 0 0-.173.119l.16 1.163a.12.12 0 0 1-.036.103l-.867.794a.117.117 0 0 0 .059.201l1.156.205a.12.12 0 0 1 .086.068l.486 1.07a.117.117 0 0 0 .21.007l.553-1.038a.12.12 0 0 1 .09-.061l1.168-.132a.117.117 0 0 0 .071-.198l-.814-.847a.12.12 0 0 1-.031-.104l.235-1.152a.117.117 0 0 0-.165-.129M77.958 139.36v-1.582c0-.051.024-.1.069-.13l1.3-.897a.157.157 0 0 0-.04-.28l-1.503-.487a.16.16 0 0 1-.103-.105l-.451-1.516a.158.158 0 0 0-.28-.048l-.928 1.279a.16.16 0 0 1-.132.066l-1.58-.038a.156.156 0 0 0-.13.249l.929 1.279a.16.16 0 0 1 .02.145l-.524 1.492a.156.156 0 0 0 .197.202l1.503-.49a.16.16 0 0 1 .145.025l1.255.961c.104.08.253.006.253-.125M118.847 34.223l-.001-2.023c0-.067.033-.129.086-.167l1.667-1.148a.203.203 0 0 0-.053-.359l-1.924-.624a.2.2 0 0 1-.132-.134l-.576-1.94a.201.201 0 0 0-.356-.06l-1.188 1.637a.2.2 0 0 1-.169.084l-2.021-.051a.203.203 0 0 0-.169.32l1.191 1.637a.2.2 0 0 1 .026.187l-.672 1.906a.202.202 0 0 0 .252.26l1.924-.626a.2.2 0 0 1 .184.032l1.607 1.23a.202.202 0 0 0 .324-.161M49.527 33.237l.846-.31c.14-.05.116-.257-.034-.273l-.894-.097a.14.14 0 0 1-.09-.236l.606-.666c.101-.111-.018-.283-.157-.227l-.838.33a.141.141 0 0 1-.189-.167l.228-.872c.037-.145-.147-.242-.245-.128l-.588.682a.141.141 0 0 1-.245-.06l-.205-.878c-.034-.146-.241-.146-.275 0l-.204.877a.142.142 0 0 1-.246.06l-.588-.681c-.097-.114-.282-.017-.245.128l.228.872a.141.141 0 0 1-.19.166l-.837-.33c-.14-.055-.257.117-.156.228l.605.666a.14.14 0 0 1-.09.236l-.894.096c-.15.017-.174.224-.033.274l.845.31c.11.04.127.186.031.251l-.748.502c-.124.083-.05.278.098.258l.892-.121c.116-.015.2.107.144.208l-.43.793c-.07.131.085.27.207.183l.734-.521a.141.141 0 0 1 .224.117l-.011.9c-.002.15.2.201.268.066l.408-.802a.14.14 0 0 1 .252 0l.407.802c.069.135.271.084.268-.065l-.01-.901a.141.141 0 0 1 .223-.117l.734.521c.122.087.278-.052.206-.183l-.429-.793a.142.142 0 0 1 .145-.208l.89.12c.15.021.224-.174.098-.257l-.747-.502a.143.143 0 0 1 .031-.251M114.273 127.252l.968-.354c.162-.058.132-.294-.038-.312l-1.024-.111a.163.163 0 0 1-.103-.27l.693-.763c.117-.127-.019-.322-.179-.261l-.958.38a.163.163 0 0 1-.217-.192l.26-.999c.043-.166-.168-.275-.279-.146l-.673.78a.162.162 0 0 1-.281-.07l-.233-1.002c-.039-.168-.277-.168-.315 0l-.234 1.002a.162.162 0 0 1-.281.07l-.672-.78c-.113-.129-.324-.02-.28.146l.259.999a.163.163 0 0 1-.216.192l-.958-.38c-.16-.061-.294.134-.18.261l.693.763a.161.161 0 0 1-.102.27l-1.024.111c-.171.018-.2.254-.038.312l.967.354a.163.163 0 0 1 .035.288l-.854.573c-.143.096-.059.319.112.296l1.019-.138a.162.162 0 0 1 .165.238l-.49.905c-.082.152.097.311.236.21l.84-.596a.162.162 0 0 1 .255.135l-.013 1.031c-.003.171.229.228.307.074l.467-.918a.162.162 0 0 1 .289 0l.467.918c.077.154.308.097.306-.074l-.014-1.031a.163.163 0 0 1 .257-.135l.839.596c.141.101.317-.058.236-.21l-.49-.905a.162.162 0 0 1 .164-.238l1.022.138c.169.023.253-.2.111-.296l-.856-.573a.163.163 0 0 1 .035-.288"/><path fill="#222" d="m161.938 96.6-9.908-5.091a1.952 1.952 0 0 0-2.633.847l-1.014 1.972-1.012 1.97-1.013 1.974-2.023 3.943-1.014 1.972a1.95 1.95 0 0 0-.184 1.245l-.16.062a2.94 2.94 0 0 0-.521.011 6.12 6.12 0 0 0-3.168-4.046 1.97 1.97 0 0 0-1.494-.121 1.96 1.96 0 0 0-1.141.968l-.652 1.267a2.787 2.787 0 0 0-1.558-.479 2.76 2.76 0 0 0-2.467 1.506 2.76 2.76 0 0 0-.174 2.116 2.75 2.75 0 0 0 1.685 1.755l-.651 1.269a1.957 1.957 0 0 0 .847 2.636 6.16 6.16 0 0 0 2.798.679c.81 0 1.602-.16 2.333-.459q.13.231.299.437.02.082.042.159c-.389.183-.708.49-.907.876l-3.036 5.916-1.014 1.972-2.024 3.944a1.96 1.96 0 0 0 .846 2.637l4.954 2.545 4.954 2.546a1.955 1.955 0 0 0 2.634-.847l1.013-1.972 1.013-1.972 1.011-1.972 1.013-1.972 2.025-3.942c.197-.386.26-.823.185-1.244l.003-.002a2.83 2.83 0 0 0 1.853-.244q.097.008.195.008a2.4 2.4 0 0 0 1.035-.233 2.92 2.92 0 0 0 2.454-1.587 2.93 2.93 0 0 0-.142-2.921 2.362 2.362 0 0 0-.527-1.129 2.87 2.87 0 0 0-.886-1.656c.387-.183.706-.489.903-.875l1.013-1.972 1.012-1.972 1.011-1.972 1.014-1.971 1.012-1.972 1.013-1.972a1.96 1.96 0 0 0-.847-2.637"/><path fill="#007af5" d="m155.25 115.347-.988 1.925a.44.44 0 0 1-.59.19l-1.064-.02c-.214-.111-.086-.793.024-1.007l.988-1.926c.11-.215.627-.788.842-.679l.6.926a.44.44 0 0 1 .188.591"/><path fill="#1561d4" d="m141.692 108.467-.458.893-1.785-.917.458-.893z"/><path fill="#007af5" d="m141.235 109.36-.458.892-1.785-.917.458-.892zM149.124 107.169l.89.458-.917 1.786-.89-.458z"/><path fill="#1561d4" d="m150.014 107.627.893.458-.917 1.786-.892-.458z"/><path fill="#007af5" d="m144.967 115.267.893.458-.917 1.784-.892-.459z"/><path fill="#1561d4" d="m145.858 115.725.892.458-.916 1.785-.893-.459z"/><path fill="#f23f3f" d="M155.622 116.753a.973.973 0 0 0-.42-1.309l-.89 1.73a.97.97 0 0 0 1.31-.421"/><path fill="#ff494b" d="m143.591 108.78-1.454 2.836a.92.92 0 0 1-1.235.395.92.92 0 0 1-.395-1.234l1.455-2.835a.916.916 0 0 1 1.629.838M154.671 114.474l-1.456 2.833a.92.92 0 0 1-1.234.398.92.92 0 0 1-.396-1.235l1.455-2.835a.92.92 0 0 1 1.234-.396.92.92 0 0 1 .397 1.235"/><path fill="#f23f3f" d="m153.802 113.648-1.764 3.437a1.613 1.613 0 0 1-2.175.698l-8.013-4.118a1.62 1.62 0 0 1-.699-2.176l1.765-3.437a1.616 1.616 0 0 1 2.176-.699l8.011 4.119a1.614 1.614 0 0 1 .699 2.176M139.88 127.369l-1.012 1.972-4.954-2.545 1.013-1.972zM141.903 123.425l-1.012 1.972-4.953-2.545 1.011-1.972zM143.93 119.481l-1.011 1.973-4.954-2.546 1.012-1.972z"/><path fill="#f23f3f" d="m144.833 129.915-1.013 1.972-4.953-2.546 1.011-1.972zM146.856 125.971l-1.012 1.972-4.953-2.546 1.012-1.972zM148.883 122.028 147.87 124l-4.952-2.546 1.011-1.973z"/><path fill="#ff494b" d="m140.891 125.397-1.013 1.972-4.952-2.545 1.012-1.972zM142.917 121.454l-1.014 1.971-4.954-2.545 1.013-1.972zM144.942 117.509l-1.012 1.972-4.953-2.545 1.012-1.972zM145.845 127.943l-1.012 1.972-4.954-2.546 1.013-1.972zM147.872 124l-1.012 1.971-4.954-2.546 1.013-1.971z"/><path fill="#ff494b" d="m149.896 120.056-1.012 1.972-4.954-2.547 1.012-1.972z"/><path fill="#f23f3f" d="m151.029 105.655-1.013 1.972-4.954-2.546 1.014-1.972zM153.05 101.712l-1.011 1.971-4.953-2.545 1.012-1.972zM155.075 97.768l-1.012 1.972-4.954-2.546 1.013-1.972z"/><path fill="#f23f3f" d="m155.983 108.201-1.013 1.972-4.954-2.546 1.013-1.972zM158.005 104.258l-1.013 1.971-4.953-2.546 1.011-1.971zM160.028 100.314l-1.011 1.971-4.955-2.545 1.013-1.972z"/><path fill="#ff494b" d="m152.04 103.683-1.013 1.972-4.953-2.546 1.012-1.971zM154.063 99.74l-1.013 1.972-4.952-2.546 1.012-1.972zM156.091 95.796l-1.013 1.972-4.953-2.546 1.013-1.972z"/><path fill="#ff494b" d="m156.993 106.229-1.011 1.972-4.955-2.546 1.013-1.972zM159.018 102.285l-1.013 1.973-4.954-2.546 1.013-1.972zM161.04 98.342l-1.013 1.972-4.953-2.546 1.013-1.972z"/><path fill="#007af5" d="m137.031 106.99-.168.329-2.109-1.084.168-.329z"/><path fill="#ffda65" d="M134.814 105.142a.816.816 0 1 1-.747 1.45.816.816 0 0 1 .747-1.45"/><path fill="#f23f3f" d="M140.2 108.827a4.18 4.18 0 0 0-1.807-5.626l-3.815 7.434a4.176 4.176 0 0 0 5.622-1.808"/><path fill="#47adff" d="M125.713 79.207c0 20.457-16.574 37.04-37.019 37.04s-37.018-16.583-37.018-37.04 16.573-37.04 37.018-37.04 37.019 16.583 37.019 37.04"/><path fill="#222" d="M88.695 116.247c-20.445 0-37.018-16.583-37.018-37.04s16.573-37.04 37.018-37.04 37.019 16.583 37.019 37.04-16.574 37.04-37.019 37.04m35.912-52.22a38.9 38.9 0 0 0-8.352-12.396 38.9 38.9 0 0 0-12.389-8.357 38.7 38.7 0 0 0-15.17-3.065 38.7 38.7 0 0 0-15.173 3.065 38.9 38.9 0 0 0-12.388 8.357 38.9 38.9 0 0 0-11.416 27.576c0 5.263 1.031 10.37 3.064 15.18a38.9 38.9 0 0 0 8.352 12.395 38.8 38.8 0 0 0 12.388 8.357 38.7 38.7 0 0 0 15.172 3.066c5.26 0 10.365-1.032 15.171-3.066a38.85 38.85 0 0 0 12.389-8.357 38.9 38.9 0 0 0 11.416-27.575c0-5.264-1.032-10.37-3.064-15.18"/><path fill="#00a34c" d="M89.523 98.89c0-1.87-1.53-3.4-3.398-3.4H80.94a3.41 3.41 0 0 0 3.398-3.4c0-1.87-1.53-3.4-3.398-3.4h-8.868a3.41 3.41 0 0 0 1.893-3.041c0-1.87-1.53-3.4-3.397-3.4H58.942c1.87 0 3.398-1.53 3.398-3.4s-1.529-3.4-3.398-3.4h18.062a3.41 3.41 0 0 0 3.399-3.4c0-1.87-1.53-3.4-3.399-3.4h1.788c1.87 0 3.398-1.53 3.398-3.4s-1.528-3.399-3.398-3.399h-5.185a3.41 3.41 0 0 0 3.397-3.4 3.41 3.41 0 0 0-3.397-3.4h-.894a3.41 3.41 0 0 0 3.397-3.4c0-1.868-1.529-3.398-3.397-3.398h8.046a3.41 3.41 0 0 0-3.397 3.399c0 1.87 1.529 3.399 3.397 3.399h3.756c1.87 0 3.398-1.53 3.398-3.4 0-1.868-1.529-3.398-3.398-3.398h2.147a3.41 3.41 0 0 0 3.396-3.4c0-1.09-.52-2.06-1.322-2.684a36.83 36.83 0 0 0-20.258 6.084h.48q-.285.002-.556.049a37 37 0 0 0-2.446 1.764 3.4 3.4 0 0 0-.397 1.586c0 1.87 1.529 3.399 3.398 3.399h-8.211a36.9 36.9 0 0 0-8.769 20.4h3.21a3.407 3.407 0 0 0-3.394 3.47 3.407 3.407 0 0 0 3.394 3.329h2.504a3.41 3.41 0 0 0-3.398 3.4c0 1.33.774 2.483 1.893 3.041h-1.715c-.49 0-.954.107-1.376.296a37 37 0 0 0 2.456 6.504h7.683a3.41 3.41 0 0 0-3.398 3.4 3.41 3.41 0 0 0 3.398 3.399h5.723a3.41 3.41 0 0 0-3.398 3.399 3.41 3.41 0 0 0 3.398 3.402h3.22c-1.21 0-2.273.64-2.876 1.599a36.8 36.8 0 0 0 12.245 4.843 3.41 3.41 0 0 0 1.895-3.044 3.407 3.407 0 0 0-3.396-3.398h3.219a3.41 3.41 0 0 0 3.398-3.402 3.41 3.41 0 0 0-3.398-3.399h2.861a3.41 3.41 0 0 0 3.398-3.399"/><path fill="#00a34c" d="M102.398 68.65c1.87 0 3.398-1.53 3.398-3.4s-1.528-3.4-3.398-3.4h15.022a3.41 3.41 0 0 0-3.398 3.4 3.41 3.41 0 0 0 3.398 3.4zm23.428 10.557c0-17.358-11.934-31.924-28.038-35.94a3.4 3.4 0 0 0-.397 1.584c0 1.87 1.53 3.4 3.398 3.4h4.828a3.41 3.41 0 0 0-3.397 3.4c0 1.869 1.529 3.399 3.397 3.399H99a3.41 3.41 0 0 0-3.397 3.4c0 1.87 1.529 3.4 3.397 3.4h.18a3.41 3.41 0 0 0-3.399 3.4c0 1.87 1.53 3.4 3.398 3.4h-3.04a3.41 3.41 0 0 0-3.397 3.399c0 1.87 1.53 3.4 3.398 3.4h-3.578a3.41 3.41 0 0 0-3.398 3.4c0 1.87 1.53 3.4 3.398 3.4h5.009a3.41 3.41 0 0 0-3.4 3.4c0 1.87 1.53 3.399 3.4 3.399h11.265a3.41 3.41 0 0 0-3.397 3.4c0 1.87 1.529 3.4 3.397 3.4h2.504a3.41 3.41 0 0 0-3.397 3.4c0 1.87 1.529 3.4 3.397 3.4h.358a3.41 3.41 0 0 0-3.398 3.399c0 1.446.918 2.687 2.198 3.176 9.286-6.73 15.328-17.666 15.328-30.016"/><path fill="#069658" d="M67.721 62.289a2.52 2.52 0 0 0 1.225-2.155 2.524 2.524 0 0 0-2.516-2.518h-7.818a36.9 36.9 0 0 0-6.303 14.742H65.68a2.524 2.524 0 0 0 2.516-2.517 2.524 2.524 0 0 0-2.516-2.518h2.034a2.523 2.523 0 0 0 2.515-2.518 2.524 2.524 0 0 0-2.509-2.517M111.185 49.787a2.53 2.53 0 0 0-1.952 2.452 2.525 2.525 0 0 0 2.517 2.517h-2.035a2.525 2.525 0 0 0-2.516 2.518 2.525 2.525 0 0 0 2.516 2.518h10.508a37.2 37.2 0 0 0-9.038-10.005M107.974 73.996c0 .912.492 1.713 1.224 2.154h-3.847a2.524 2.524 0 0 0-2.516 2.518 2.524 2.524 0 0 0 2.516 2.518h-2.033a2.524 2.524 0 0 0-2.517 2.517 2.524 2.524 0 0 0 2.517 2.518h21.728a37.3 37.3 0 0 0-.144-14.742h-14.411a2.525 2.525 0 0 0-2.517 2.517M63.184 92.369a2.523 2.523 0 0 1 2.51-2.517 2.52 2.52 0 0 1-1.225-2.156 2.524 2.524 0 0 1 2.516-2.517h1.063a2.525 2.525 0 0 1 2.517 2.517c0 .913-.493 1.714-1.225 2.155h3.847a2.524 2.524 0 0 1 2.517 2.518 2.524 2.524 0 0 1-2.517 2.517h2.034a2.525 2.525 0 0 1 2.517 2.517 2.525 2.525 0 0 1-2.517 2.518h-7.487a2.524 2.524 0 0 1-2.516-2.518 2.524 2.524 0 0 1 2.516-2.517H65.7a2.524 2.524 0 0 1-2.516-2.517M75.795 107.554a2.59 2.59 0 0 1-2.58-2.583 2.59 2.59 0 0 1 2.58-2.582c1.42 0 2.58 1.162 2.58 2.582a2.59 2.59 0 0 1-2.58 2.583"/><path fill="#fff" d="M40.842 78.443a3.65 3.65 0 0 1-3.647-3.65 3.65 3.65 0 0 1 3.647-3.65h.745a3.6 3.6 0 0 1-.197-1.575c.181-1.877 1.764-3.293 3.68-3.293h15.442a3.657 3.657 0 0 1 3.618 4.116c-.23 1.814-1.807 3.183-3.67 3.183h-.689a3.652 3.652 0 0 1-3.436 4.869z"/><path fill="#222" d="M63.162 70.268c-.17 1.34-1.347 2.327-2.699 2.327h-2.617a2.67 2.67 0 0 1 1.16 2.198 2.68 2.68 0 0 1-2.669 2.67H40.845a2.677 2.677 0 0 1-2.668-2.67c0-1.469 1.2-2.67 2.668-2.67h2.67a2.67 2.67 0 0 1-1.148-2.46c.133-1.377 1.323-2.41 2.705-2.41h15.443a2.676 2.676 0 0 1 2.647 3.015m.822-3.4a4.62 4.62 0 0 0-3.47-1.572H45.073a4.7 4.7 0 0 0-3.116 1.178 4.58 4.58 0 0 0-1.55 3.71 4.635 4.635 0 0 0-4.187 4.61 4.633 4.633 0 0 0 4.626 4.627h15.492a4.633 4.633 0 0 0 4.618-4.894c2.134-.222 3.877-1.873 4.148-4.013a4.64 4.64 0 0 0-1.119-3.646"/><path fill="#fff" d="M76.853 121.616a3.652 3.652 0 0 1-3.617-4.117c.23-1.814 1.807-3.183 3.669-3.183h.692a3.65 3.65 0 0 1-.196-1.573c.181-1.879 1.763-3.295 3.68-3.295h15.443c1.044 0 2.04.452 2.735 1.241a3.65 3.65 0 0 1 .882 2.875c-.23 1.814-1.808 3.182-3.67 3.182h-.691c.177.498.248 1.035.195 1.577-.182 1.877-1.764 3.293-3.68 3.293z"/><path fill="#222" d="M99.169 113.441c-.17 1.342-1.347 2.326-2.698 2.326h-2.618A2.67 2.67 0 0 1 95 118.229c-.133 1.376-1.323 2.408-2.706 2.408H76.852a2.676 2.676 0 0 1-2.647-3.015c.17-1.341 1.348-2.327 2.698-2.327h2.619a2.67 2.67 0 0 1-1.148-2.459c.133-1.376 1.323-2.409 2.705-2.409h15.444a2.676 2.676 0 0 1 2.646 3.014m.824-3.4a4.63 4.63 0 0 0-3.47-1.572H81.079c-1.15 0-2.256.418-3.116 1.179a4.58 4.58 0 0 0-1.55 3.716c-2.135.221-3.878 1.871-4.15 4.012a4.64 4.64 0 0 0 1.12 3.647 4.63 4.63 0 0 0 3.469 1.572h15.442c1.15 0 2.256-.419 3.116-1.178a4.58 4.58 0 0 0 1.551-3.717c2.135-.221 3.879-1.872 4.151-4.013a4.64 4.64 0 0 0-1.12-3.646"/><path fill="#fff" d="M62.543 52.714a3.653 3.653 0 0 1-3.648-3.649 3.653 3.653 0 0 1 3.647-3.65h13.519a3.654 3.654 0 0 1 3.648 3.65 3.653 3.653 0 0 1-3.648 3.65z"/><path fill="#222" d="M78.731 49.065a2.68 2.68 0 0 1-2.669 2.67H62.544a2.677 2.677 0 0 1-2.67-2.67c0-1.468 1.201-2.67 2.67-2.67h13.518a2.68 2.68 0 0 1 2.67 2.67m-2.669-4.629H62.544a4.633 4.633 0 0 0-4.626 4.63 4.63 4.63 0 0 0 4.626 4.627h13.518a4.63 4.63 0 0 0 4.626-4.628 4.633 4.633 0 0 0-4.626-4.629"/><path fill="#fff" d="M109.284 62.83a3.65 3.65 0 0 1-3.647-3.65 3.65 3.65 0 0 1 3.647-3.65h13.517a3.65 3.65 0 0 1 3.648 3.65 3.653 3.653 0 0 1-3.648 3.65z"/><path fill="#222" d="M125.468 59.18c0 1.469-1.2 2.67-2.669 2.67h-13.517a2.677 2.677 0 0 1-2.669-2.67 2.68 2.68 0 0 1 2.669-2.67h13.517a2.677 2.677 0 0 1 2.669 2.67m-2.669-4.63h-13.517a4.633 4.633 0 0 0-4.626 4.63 4.633 4.633 0 0 0 4.626 4.628h13.517a4.633 4.633 0 0 0 4.627-4.628 4.633 4.633 0 0 0-4.627-4.63"/><path fill="#fff" d="M70.502 93.529a3.65 3.65 0 0 1-3.646-3.65 3.653 3.653 0 0 1 3.646-3.65h13.519a3.65 3.65 0 0 1 3.647 3.65 3.65 3.65 0 0 1-3.647 3.65z"/><path fill="#222" d="M86.688 89.88a2.68 2.68 0 0 1-2.669 2.67H70.501a2.68 2.68 0 0 1-2.67-2.67 2.68 2.68 0 0 1 2.67-2.671h13.518a2.68 2.68 0 0 1 2.67 2.67M84.02 85.25H70.501a4.633 4.633 0 0 0-4.626 4.629 4.63 4.63 0 0 0 4.626 4.628h13.518a4.63 4.63 0 0 0 4.626-4.628 4.633 4.633 0 0 0-4.626-4.629"/><path fill="#fff" d="M107.72 81.422a3.533 3.533 0 0 1-3.529-3.53 3.533 3.533 0 0 1 3.529-3.53h1.783a3.53 3.53 0 0 1 3.528 3.53 3.53 3.53 0 0 1-3.528 3.53z"/><path fill="#222" d="M109.502 80.443h-1.784a2.56 2.56 0 0 1-2.55-2.55 2.56 2.56 0 0 1 2.55-2.552h1.784a2.56 2.56 0 0 1 2.55 2.552 2.56 2.56 0 0 1-2.55 2.55m0-7.06h-1.784a4.515 4.515 0 0 0-4.507 4.51 4.513 4.513 0 0 0 4.507 4.508h1.784a4.513 4.513 0 0 0 4.507-4.508 4.515 4.515 0 0 0-4.507-4.51"/><path fill="#fff" d="M81.397 71.892a3.65 3.65 0 0 1-3.647-3.65 3.655 3.655 0 0 1 3.528-3.647 3.653 3.653 0 0 1 3.417-4.922h2.423a3.653 3.653 0 0 1 3.419 4.92h4.38a3.653 3.653 0 0 1 3.646 3.65 3.65 3.65 0 0 1-3.647 3.649z"/><path fill="#222" d="M97.587 68.243c0 1.468-1.2 2.67-2.67 2.67H81.399a2.677 2.677 0 0 1-2.668-2.67c0-1.469 1.2-2.671 2.668-2.671h1.87a2.67 2.67 0 0 1-1.24-2.25c0-1.468 1.201-2.67 2.669-2.67h2.422a2.68 2.68 0 0 1 2.67 2.67c0 .944-.497 1.775-1.24 2.25h6.369a2.68 2.68 0 0 1 2.669 2.67m-2.67-4.63h-3.181q.01-.144.009-.29a4.633 4.633 0 0 0-4.626-4.63h-2.422a4.63 4.63 0 0 0-4.6 5.108 4.64 4.64 0 0 0-3.324 4.442 4.63 4.63 0 0 0 4.625 4.628h13.52a4.63 4.63 0 0 0 4.625-4.628 4.633 4.633 0 0 0-4.625-4.63"/><path fill="#fff" d="M111.28 103.791a3.65 3.65 0 0 1-3.647-3.65 3.653 3.653 0 0 1 3.526-3.648 3.653 3.653 0 0 1 3.418-4.922h2.422a3.652 3.652 0 0 1 3.42 4.921h4.379a3.65 3.65 0 0 1 3.647 3.649 3.653 3.653 0 0 1-3.647 3.65z"/><path fill="#222" d="M124.8 102.811h-13.518a2.68 2.68 0 0 1-2.669-2.67 2.68 2.68 0 0 1 2.669-2.671h1.869a2.67 2.67 0 0 1-1.239-2.249c0-1.47 1.2-2.671 2.668-2.671h2.422a2.68 2.68 0 0 1 2.669 2.671 2.67 2.67 0 0 1-1.241 2.249h6.37a2.677 2.677 0 0 1 2.668 2.671c0 1.468-1.2 2.67-2.668 2.67m0-7.299h-3.181q.009-.145.009-.291a4.633 4.633 0 0 0-4.626-4.629h-2.422a4.63 4.63 0 0 0-4.601 5.107 4.635 4.635 0 0 0-3.323 4.442 4.633 4.633 0 0 0 4.626 4.629H124.8a4.633 4.633 0 0 0 4.626-4.629 4.633 4.633 0 0 0-4.626-4.629M60.257 119.88v-.033l-.004-.097v-.01a2.8 2.8 0 0 0-.134-.695l-.03-.092a3 3 0 0 0-.092-.228l-.028-.063a3 3 0 0 0-.132-.25l-.004-.008q-.02-.033-.04-.066-.053-.089-.111-.175l-.001-.001-.04-.057a4 4 0 0 0-.153-.208l-.044-.053q-.062-.077-.13-.155l-.008-.008-.046-.054-.144-.153-.033-.035a6 6 0 0 0-.182-.177l-.01-.011-.039-.035-.011-.012-.146-.133-.014-.011-.04-.037a11 11 0 0 0-.247-.208l-.006-.005q-.082-.068-.17-.136l-.074-.058-.178-.135-.005-.004-.046-.033-.226-.165q-.044-.028-.08-.057l-.176-.12-.015-.01-.07-.048q-.117-.08-.245-.164l-.056-.035-.014-.009-.201-.129-.097-.062-.21-.131-.015-.008q-.03-.02-.062-.038l-.275-.165-.077-.046-.029-.016-.202-.118-.033-.019-.08-.046-.294-.167-.052-.029-.036-.019-.236-.131-.13-.07-.223-.12-.033-.018-.083-.044q-.157-.083-.32-.168l-.115-.06-.022-.012-.222-.113-.045-.023-.105-.052-.287-.145-.132-.067-.036-.017-.255-.125-.165-.081-.234-.112-.024-.012-.132-.064-.357-.169-.133-.061-.044-.02-.231-.109-.046-.021-.142-.066-.272-.124q-.128-.059-.26-.116l-.26-.118-.208-.093-.235-.104-.068-.029-.13-.058q-.198-.086-.393-.172l-.212-.089-.239-.103-.213-.091-.011-.005-.261-.11-.008-.003-.325-.136-.082-.034-.199-.083-.236-.098-.246-.1-.234-.095-.426-.173-.243-.096-.25-.1-.012-.005-.243-.097-.248-.096-.016-.007-.653-.253a15.4 15.4 0 0 0-.813-3.794l-.012-.035a16 16 0 0 0-.766-1.796l-.012-.022q-.071-.143-.156-.304l-.027-.051-.073-.13-.022-.039-.028-.052q-.052-.095-.107-.19l-.026-.046-.07-.118-.026-.041-.032-.053q-.055-.094-.114-.186l-.009-.015a15 15 0 0 0-.387-.588l-.01-.013-.134-.19-.019-.027-.17-.232-.025-.033-.004-.005-.08-.106-.026-.032c-.07-.089-.146-.187-.227-.286l-.005-.006-.01-.012-.017-.022-.017-.021-.004-.004-.007-.009-.009-.011a15 15 0 0 0-.294-.347l-.031-.035-.007-.007-.024-.027-.003-.004q-.046-.052-.093-.102l-.03-.033-.014-.015q-.094-.106-.193-.21l-.03-.031-.031-.033-.014-.016q-.105-.11-.208-.211l-.005-.005-.017-.017-.04-.041q-.053-.052-.11-.106l-.041-.042-.011-.01q-.076-.074-.16-.152l-.039-.036-.008-.008-.005-.004q-.088-.082-.178-.162l-.044-.04-.008-.007-.076-.067-.01-.008-.042-.038-.292-.248q-.016-.014-.032-.026l-.015-.012-.005-.004-.07-.058-.016-.012-.023-.018a14 14 0 0 0-.667-.51l-.047-.033-.019-.013-.01-.007-.064-.045-.05-.037-.02-.013-.013-.009-.121-.083q-.052-.035-.102-.068l-.03-.021-.01-.006-.006-.005-.021-.014q-.033-.022-.066-.043l-.085-.056-.013-.008-.013-.008-.019-.012-.102-.065-.026-.016-.013-.008-.142-.088-.049-.03-.012-.007-.124-.074-.019-.011-.04-.023-.17-.098-.035-.02-.04-.023-.056-.03-.015-.01-.159-.086-.074-.04-.013-.007-.02-.01-.1-.053q-.126-.065-.251-.126l-.022-.011-.076-.038-.01-.005-.018-.01q-.04-.018-.08-.037l-.026-.012-.042-.02-.016-.008-.048-.022-.136-.064-.01-.004-.114-.051-.037-.015-.078-.034-.031-.013-.032-.015-.085-.037-.082-.033-.026-.01q-.125-.052-.257-.104l-.022-.009-.098-.036-.029-.011-.245-.09-.067-.025-.022-.007-.008-.004-.014-.004-.02-.007-.02-.007-.006-.002-.04-.014-.186-.063-.146-.047-.208-.065-.034-.01h-.005l-.02-.008q-.06-.016-.118-.034l-.13-.037-.037-.01-.015-.004-.021-.005-.05-.014-.008-.002-.033-.01-.097-.026-.014-.003q-.01-.004-.022-.006l-.25-.062-.026-.006-.07-.017q-.091-.022-.176-.04l-.031-.007-.014-.003a15 15 0 0 0-.576-.115h-.006l-.05-.009-.01-.002a13 13 0 0 0-.41-.065l-.03-.004-.284-.038-.123-.015h-.006l-.269-.03-.13-.012a12 12 0 0 0-.4-.03 9 9 0 0 0-.284-.016l-.026-.001-.087-.003-.322-.01h-.064l-.008-.001-.185-.001a14 14 0 0 0-1.023.034l-.063.005-.022.002q-.155.01-.31.025l-.078.007-.026.003-.293.031-.114.014-.286.04-.022.003-.083.012-.302.05-.014.001-.079.014q-.168.03-.334.064h-.004l-.047.01c-.115.023-.231.048-.357.078l-.03.007-.066.016c-3.38.8-6.406 2.738-8.55 5.475-5.386-1.156-9.893-1.787-12.788-1.787-1.159 0-2.074.096-2.797.294-1.566.428-2.139 1.334-2.342 2.02a2.64 2.64 0 0 0-.012 1.454c.002.41.1.895.392 1.424.242.44.598.869 1.086 1.314.756.689 1.835 1.424 3.302 2.244 2.46 1.378 5.913 2.935 10.04 4.528.16 1.863.659 3.697 1.467 5.374a15.2 15.2 0 0 0 4.527 5.546 15.2 15.2 0 0 0 9.303 3.149 15.4 15.4 0 0 0 11.419-5.075l.007-.008a17 17 0 0 0 .366-.42q.108-.13.21-.257l.104-.131c5.387 1.155 9.895 1.786 12.787 1.786 1.16 0 2.075-.095 2.798-.294 1.566-.428 2.138-1.334 2.343-2.02.106-.356.172-.861.01-1.46"/><path fill="#f93" d="M29.885 113.516c-11.07-3.303-19.892-6.489-19.705-7.116s9.312 1.542 20.382 4.846 19.891 6.489 19.704 7.117c-.186.626-9.311-1.543-20.381-4.847m28.485 7.265c.661-2.223-11.403-7.784-26.948-12.423-15.544-4.638-28.683-6.598-29.345-4.376s11.402 7.784 26.947 12.423c15.544 4.638 28.683 6.598 29.346 4.376"/><path fill="#ffdd57" d="M29.791 112.819c-11.069-3.303-19.892-6.489-19.704-7.115.186-.627 9.312 1.543 20.38 4.846 11.07 3.304 19.892 6.488 19.705 7.116-.186.626-9.311-1.543-20.381-4.847m28.485 7.265c.662-2.222-11.402-7.783-26.947-12.422-15.545-4.638-28.683-6.598-29.346-4.377-.662 2.223 11.403 7.784 26.948 12.423 15.544 4.638 28.683 6.598 29.345 4.376"/><path fill="#47adff" d="M29.026 116.405a188 188 0 0 1-12.21-4.086 13.4 13.4 0 0 0 5.281 10.734c5.89 4.492 14.305 3.356 18.794-2.537.208-.274.4-.555.585-.838-3.801-.851-8.027-1.954-12.45-3.273M29.793 112.819c4.877 1.456 9.372 2.689 12.895 3.563 2.02-5.397.39-11.696-4.427-15.369-5.89-4.492-14.305-3.356-18.795 2.538a13.3 13.3 0 0 0-2.415 5.179c3.426 1.202 7.863 2.634 12.742 4.089"/><path fill="#75d6fd" d="M41.475 119.678c-3.801-.851-8.027-1.954-12.45-3.273a203 203 0 0 1-5.427-1.704 15.4 15.4 0 0 0 4.07 4.667 15.35 15.35 0 0 0 11.512 3.001c.615-.555 1.19-1.17 1.71-1.853.208-.274.4-.555.585-.838"/><path fill="#ffb842" d="M43.476 111.722c-.306.535-.477 1.135-.45 1.752.023.518.18.922.43 1.25 1.818.64 3.338 1.212 4.47 1.683.284.07.551.148.79.241 2.868 1.119 5.332 3.057 8.182 4.214.789-.143 1.265-.399 1.378-.778.475-1.594-5.596-4.905-14.8-8.362"/><path fill="#f93" d="M56.752 119.588a9 9 0 0 0-1.016-.925c-1.282-.999-3.413-2.134-5.04-1.826 1.06 1.449 4.24 3.211 6.056 2.751"/><path fill="#75d6fd" d="M38.258 101.013c-4.682-3.571-10.959-3.582-15.592-.477a15.43 15.43 0 0 0-.63 9.873c2.375.771 4.993 1.586 7.754 2.41 4.878 1.456 9.373 2.689 12.896 3.563 2.02-5.397.389-11.696-4.428-15.369"/><path fill="#47adff" d="M38.259 101.013a13.38 13.38 0 0 0-11.176-2.396c-1.014 5.175.882 10.715 5.357 14.128.864.658 1.78 1.2 2.729 1.634 1.565.44 3.056.847 4.45 1.216a14.4 14.4 0 0 0 3.346-.048c1.563-5.2-.136-11.048-4.706-14.534"/><path fill="#2694ed" d="M31.48 98.334c-.735 4.464.955 9.175 4.8 12.108a12.55 12.55 0 0 0 7.185 2.575c.445-4.478-1.367-9.076-5.207-12.004a13.35 13.35 0 0 0-6.777-2.679"/><path fill="#ffb842" d="M4.863 103.513c.82 2.135 2.941 3.706 5.222 3.864-.768-1.343-2.466-4.754-5.222-3.864"/><path fill="#ffb842" d="M7.105 103.631q.061.055.12.114c.262.08-.12-.114-.12-.114"/><path fill="#47adff" d="M41.493 107.555c.568.686.608 1.593.087 2.024-.52.43-1.402.225-1.97-.462-.569-.686-.608-1.592-.088-2.022.52-.433 1.402-.226 1.97.46"/><path fill="#75d6fd" d="M22.718 116.98c.477.752.403 1.657-.167 2.018-.57.362-1.42.046-1.898-.707-.476-.752-.401-1.657.169-2.018.57-.362 1.419-.045 1.896.707M25.937 121.363c.278.438.233.965-.098 1.175-.332.212-.827.027-1.105-.412-.279-.438-.234-.964.098-1.175.331-.211.826-.026 1.105.412"/><path fill="#47adff" d="M36.733 105.764c.337.407.36.944.053 1.2-.309.255-.832.132-1.17-.274-.336-.407-.36-.945-.052-1.2.308-.257.832-.133 1.17.274"/><mask id="b" width="38" height="38" x="56" y="-1" maskUnits="userSpaceOnUse" style="mask-type:luminance"><path fill="#fff" d="M56.664-.085H93.02v36.347H56.664z"/></mask><g mask="url(#b)"><path fill="#222" d="M92.812 15.934a17.92 17.92 0 0 0-6.72-12.048A17.932 17.932 0 0 0 74.93 0a18 18 0 0 0-11.886 4.467l-.03.026-.014.01q-.163.147-.327.298l-.019.017-.043.042a13 13 0 0 0-.367.352l-.036.035-.01.011q-.151.15-.301.309l-.097.101c-.08.086-.165.178-.247.27l-.022.022q-.042.049-.085.095l-.24.278-.028.032-.069.082q-.176.208-.323.397a18 18 0 0 0-1.983 3.117l-.018.036q-.13.257-.242.506l-.02.042q-.02.039-.033.073l-.002.005a15 15 0 0 0-.165.376l-.025.06-.005.012a18 18 0 0 0-1.03 3.35l-.001.009-.01.052q-.069.335-.118.645l-.001.004-.005.029c-.037.227-.069.456-.095.677l-.003.02-.003.027a18.2 18.2 0 0 0-.014 4.124v.019q.03.248.063.491l.004.03.003.015a15 15 0 0 0 .163.963l.018.09.008.036c.03.152.056.271.081.385l.027.11.012.047a18 18 0 0 0 .123.492l.016.056.01.041a13 13 0 0 0 .135.47l.018.059.019.062q.03.1.06.197a19 19 0 0 0 .317.902l.006.013.002.004q.07.187.148.375l.014.034q.075.181.15.356l.018.041.005.01q.073.164.15.334l.026.055.006.013q.075.16.153.316l.04.079q.074.153.155.303l.032.062.014.026.156.29.038.065.016.03.004.005q.076.138.156.274l.048.08.017.03.157.259q.03.044.055.087l.02.033.16.248.061.093.023.032a16 16 0 0 0 .23.337l.022.033.01.014.15.21q.037.053.077.105l.024.034q.08.108.16.211.04.056.083.107l.03.038.013.02q.073.09.146.184.048.058.098.12l.026.03.021.028.136.162q.052.062.104.121l.03.035.032.037.125.143.103.114.04.044.038.042.121.132.114.12.038.039.039.042.119.123.129.13.037.035.037.038.116.114q.07.068.141.133l.077.073.113.108.157.14.04.037.042.037.097.087q.097.086.195.167l.035.03.033.027q.042.039.086.074.178.15.357.291.13.103.283.217l.048.038.174.128.01.007.02.015q.002 0 .005.003.05.039.1.073.138.1.274.195l.006.005q.126.088.252.172l.063.04.019.012q.255.17.515.33l.013.008.052.032q.278.17.57.332l.058.033.025.014c.402.22.81.427 1.217.612l.006.003.037.017a17.84 17.84 0 0 0 7.42 1.6c2.66 0 5.332-.6 7.73-1.735a17.85 17.85 0 0 0 6.41-5.11 17.92 17.92 0 0 0 3.764-13.273"/></g><path fill="#ffa545" d="M62.322 8.06C67.824 1.098 77.923-.083 84.88 5.422c6.958 5.505 8.137 15.609 2.636 22.57-5.502 6.96-15.6 8.14-22.558 2.637-6.956-5.505-8.137-15.61-2.636-22.57"/><path fill="#ffb842" d="M64.958 30.63a15.98 15.98 0 0 0 9.383 3.452 17.2 17.2 0 0 0 3.328-3.21c5.898-7.462 4.633-18.295-2.825-24.198a17.2 17.2 0 0 0-6.656-3.237 16 16 0 0 0-5.866 4.622c-5.5 6.96-4.32 17.066 2.636 22.571"/><path fill="#ffdd57" d="M67.194 32.11c4.677-7.358 3.125-17.212-3.86-22.74a18 18 0 0 0-1.296-.93c-5.167 6.944-3.91 16.785 2.92 22.19a16 16 0 0 0 2.236 1.48"/><mask id="c" width="9" height="9" x="79" y="13" maskUnits="userSpaceOnUse" style="mask-type:luminance"><path fill="#fff" d="M79.29 13.368h8.057v8.064H79.29z"/></mask><g mask="url(#c)"><mask id="d" width="30" height="33" x="58" y="2" maskUnits="userSpaceOnUse" style="mask-type:luminance"><path fill="#fff" d="M58.977 16.094c.258.394.58.756.97 1.066a4.49 4.49 0 0 0 6.307-.737 4.494 4.494 0 0 0-.736-6.31 4.49 4.49 0 0 0-4.111-.768 16 16 0 0 0-2.43 6.749m21.908 9.042a2.212 2.212 0 1 0 3.47 2.745 2.212 2.212 0 0 0-3.47-2.745M76.6 9.856a2.213 2.213 0 1 0 2.745-3.472 2.213 2.213 0 0 0-2.745 3.472m-6.187-4.895a2.22 2.22 0 0 0 .215-2.417c-1.41.391-2.775.974-4.047 1.747a2.21 2.21 0 0 0 3.832.67m-3.61 21.786a5 5 0 0 0 7.021-.822 5.004 5.004 0 0 0-.82-7.025 4.997 4.997 0 0 0-7.022.82 5.005 5.005 0 0 0 .82 7.027m7.444 4.936a3.34 3.34 0 0 0-.71 2.35 16.15 16.15 0 0 0 6.652-.83 3.34 3.34 0 0 0-1.223-2.071 3.36 3.36 0 0 0-4.719.55m5.906-16.754a3.983 3.983 0 0 1 5.597-.654 3.987 3.987 0 0 1 .654 5.6 3.98 3.98 0 0 1-5.597.654 3.99 3.99 0 0 1-.654-5.6"/></mask><g mask="url(#d)"><path fill="#fc861e" d="M80.156 14.93a3.983 3.983 0 0 1 5.597-.655 3.986 3.986 0 0 1 .654 5.6 3.98 3.98 0 0 1-5.597.654 3.99 3.99 0 0 1-.654-5.6"/></g></g><mask id="e" width="8" height="5" x="73" y="30" maskUnits="userSpaceOnUse" style="mask-type:luminance"><path fill="#fff" d="M73.426 30.332h6.785v3.77h-6.785z"/></mask><g mask="url(#e)"><mask id="f" width="30" height="33" x="58" y="2" maskUnits="userSpaceOnUse" style="mask-type:luminance"><path fill="#fff" d="M58.977 16.094c.258.394.58.756.97 1.066a4.49 4.49 0 0 0 6.307-.737 4.494 4.494 0 0 0-.736-6.311 4.49 4.49 0 0 0-4.111-.767 16 16 0 0 0-2.43 6.749m21.908 9.042a2.212 2.212 0 1 0 3.47 2.745 2.212 2.212 0 0 0-3.47-2.745M76.6 9.856a2.213 2.213 0 1 0 2.745-3.472 2.213 2.213 0 0 0-2.745 3.472m-6.187-4.895a2.22 2.22 0 0 0 .215-2.417c-1.41.39-2.775.974-4.047 1.747a2.21 2.21 0 0 0 3.832.67m-3.61 21.785a5 5 0 0 0 7.021-.821 5.004 5.004 0 0 0-.82-7.025 4.997 4.997 0 0 0-7.022.82 5.005 5.005 0 0 0 .82 7.026m7.444 4.937a3.34 3.34 0 0 0-.71 2.35 16.15 16.15 0 0 0 6.652-.83 3.34 3.34 0 0 0-1.223-2.071 3.36 3.36 0 0 0-4.719.55m5.906-16.754a3.983 3.983 0 0 1 5.597-.654 3.987 3.987 0 0 1 .654 5.6 3.98 3.98 0 0 1-5.597.654 3.99 3.99 0 0 1-.654-5.6"/></mask><g mask="url(#f)"><path fill="#fc861e" d="M80.19 33.202a3.34 3.34 0 0 0-1.223-2.07 3.358 3.358 0 0 0-5.429 2.901 16.15 16.15 0 0 0 6.652-.83"/></g></g><mask id="g" width="11" height="11" x="64" y="17" maskUnits="userSpaceOnUse" style="mask-type:luminance"><path fill="#fff" d="M64.898 17.745h10.016v10.136H64.898z"/></mask><g mask="url(#g)"><mask id="h" width="30" height="33" x="58" y="2" maskUnits="userSpaceOnUse" style="mask-type:luminance"><path fill="#fff" d="M58.973 16.093c.258.395.58.757.97 1.067a4.49 4.49 0 0 0 6.308-.737 4.494 4.494 0 0 0-.737-6.311 4.49 4.49 0 0 0-4.111-.768 16 16 0 0 0-2.43 6.75m21.908 9.043a2.212 2.212 0 1 0 3.47 2.745 2.212 2.212 0 0 0-3.47-2.745m-4.284-15.28a2.213 2.213 0 1 0 2.746-3.472 2.213 2.213 0 0 0-2.746 3.472M70.41 4.961a2.22 2.22 0 0 0 .216-2.417c-1.411.39-2.776.974-4.048 1.746a2.21 2.21 0 0 0 3.832.671M66.8 26.746a5 5 0 0 0 7.021-.822 5.004 5.004 0 0 0-.82-7.024 4.997 4.997 0 0 0-7.022.82 5.005 5.005 0 0 0 .82 7.026m7.444 4.937a3.34 3.34 0 0 0-.71 2.35 16.15 16.15 0 0 0 6.652-.83 3.34 3.34 0 0 0-1.223-2.071 3.36 3.36 0 0 0-4.719.55m5.906-16.754a3.983 3.983 0 0 1 5.597-.654 3.986 3.986 0 0 1 .654 5.6 3.98 3.98 0 0 1-5.597.654 3.99 3.99 0 0 1-.654-5.6"/></mask><g mask="url(#h)"><path fill="#fc861e" d="M65.976 19.72a4.997 4.997 0 0 1 7.021-.82 5.004 5.004 0 0 1 .821 7.025 4.999 4.999 0 1 1-7.842-6.205"/></g></g><mask id="i" width="5" height="4" x="66" y="2" maskUnits="userSpaceOnUse" style="mask-type:luminance"><path fill="#fff" d="M66.512 2.541h4.49v3.297h-4.49z"/></mask><g mask="url(#i)"><mask id="j" width="30" height="33" x="58" y="2" maskUnits="userSpaceOnUse" style="mask-type:luminance"><path fill="#fff" d="M58.977 16.094c.258.394.58.756.97 1.066a4.49 4.49 0 0 0 6.307-.737 4.494 4.494 0 0 0-.736-6.311 4.49 4.49 0 0 0-4.111-.767 16 16 0 0 0-2.43 6.749m21.908 9.042a2.212 2.212 0 1 0 3.47 2.745 2.212 2.212 0 0 0-3.47-2.745M76.6 9.856a2.213 2.213 0 1 0 2.745-3.472 2.213 2.213 0 0 0-2.745 3.472m-6.187-4.895a2.22 2.22 0 0 0 .215-2.417c-1.41.39-2.775.974-4.047 1.747a2.21 2.21 0 0 0 3.832.67m-3.61 21.785a5 5 0 0 0 7.021-.821 5.004 5.004 0 0 0-.82-7.025 4.997 4.997 0 0 0-7.022.82 5.005 5.005 0 0 0 .82 7.026m7.444 4.937a3.34 3.34 0 0 0-.71 2.35 16.15 16.15 0 0 0 6.652-.83 3.34 3.34 0 0 0-1.223-2.071 3.36 3.36 0 0 0-4.719.55m5.906-16.754a3.983 3.983 0 0 1 5.597-.654 3.987 3.987 0 0 1 .654 5.6 3.98 3.98 0 0 1-5.597.654 3.99 3.99 0 0 1-.654-5.6"/></mask><g mask="url(#j)"><path fill="#fc861e" d="M67.306 5.324a2.213 2.213 0 0 0 3.324-2.78c-1.411.39-2.776.974-4.048 1.747.132.393.375.756.724 1.033"/></g></g><mask id="k" width="6" height="6" x="75" y="5" maskUnits="userSpaceOnUse" style="mask-type:luminance"><path fill="#fff" d="M75.746 5.881h4.465v4.493h-4.465z"/></mask><g mask="url(#k)"><mask id="l" width="30" height="33" x="58" y="2" maskUnits="userSpaceOnUse" style="mask-type:luminance"><path fill="#fff" d="M58.977 16.094c.258.394.58.756.97 1.066a4.49 4.49 0 0 0 6.307-.737 4.494 4.494 0 0 0-.736-6.31 4.49 4.49 0 0 0-4.111-.768 16 16 0 0 0-2.43 6.749m21.908 9.042a2.212 2.212 0 1 0 3.47 2.745 2.212 2.212 0 0 0-3.47-2.745M76.6 9.856a2.213 2.213 0 1 0 2.745-3.472 2.213 2.213 0 0 0-2.745 3.472m-6.187-4.895a2.22 2.22 0 0 0 .215-2.417c-1.41.391-2.775.974-4.047 1.747a2.21 2.21 0 0 0 3.832.67m-3.61 21.786a5 5 0 0 0 7.021-.822 5.004 5.004 0 0 0-.82-7.025 4.997 4.997 0 0 0-7.022.82 5.005 5.005 0 0 0 .82 7.027m7.444 4.936a3.34 3.34 0 0 0-.71 2.35 16.15 16.15 0 0 0 6.652-.83 3.34 3.34 0 0 0-1.223-2.071 3.36 3.36 0 0 0-4.719.55m5.906-16.754a3.983 3.983 0 0 1 5.597-.654 3.986 3.986 0 0 1 .654 5.6 3.98 3.98 0 0 1-5.597.654 3.99 3.99 0 0 1-.654-5.6"/></mask><g mask="url(#l)"><path fill="#fc861e" d="M76.239 6.746a2.213 2.213 0 1 1 3.47 2.747 2.213 2.213 0 0 1-3.47-2.747"/></g></g><mask id="m" width="5" height="5" x="80" y="24" maskUnits="userSpaceOnUse" style="mask-type:luminance"><path fill="#fff" d="M80.387 24.195h4.543v4.59h-4.543z"/></mask><g mask="url(#m)"><mask id="n" width="30" height="33" x="58" y="2" maskUnits="userSpaceOnUse" style="mask-type:luminance"><path fill="#fff" d="M58.977 16.094c.258.394.58.756.97 1.066a4.49 4.49 0 0 0 6.307-.737 4.494 4.494 0 0 0-.736-6.31 4.49 4.49 0 0 0-4.111-.768 16 16 0 0 0-2.43 6.749m21.908 9.042a2.212 2.212 0 1 0 3.47 2.745 2.212 2.212 0 0 0-3.47-2.745M76.6 9.856a2.213 2.213 0 1 0 2.745-3.472 2.213 2.213 0 0 0-2.745 3.472m-6.187-4.895a2.22 2.22 0 0 0 .215-2.417c-1.41.391-2.775.974-4.047 1.747a2.21 2.21 0 0 0 3.832.67m-3.61 21.786a5 5 0 0 0 7.021-.822 5.004 5.004 0 0 0-.82-7.025 4.997 4.997 0 0 0-7.022.82 5.005 5.005 0 0 0 .82 7.027m7.444 4.936a3.34 3.34 0 0 0-.71 2.35 16.15 16.15 0 0 0 6.652-.83 3.34 3.34 0 0 0-1.223-2.071 3.36 3.36 0 0 0-4.719.55m5.906-16.754a3.983 3.983 0 0 1 5.597-.654 3.987 3.987 0 0 1 .654 5.6 3.98 3.98 0 0 1-5.597.654 3.99 3.99 0 0 1-.654-5.6"/></mask><g mask="url(#n)"><path fill="#fc861e" d="M80.884 25.136a2.212 2.212 0 1 1 3.47 2.746 2.212 2.212 0 0 1-3.47-2.746"/></g></g><mask id="o" width="10" height="10" x="58" y="9" maskUnits="userSpaceOnUse" style="mask-type:luminance"><path fill="#fff" d="M58.914 9.107h8.324v9.099h-8.324z"/></mask><g mask="url(#o)"><mask id="p" width="30" height="33" x="58" y="2" maskUnits="userSpaceOnUse" style="mask-type:luminance"><path fill="#fff" d="M58.977 16.094c.258.394.58.756.97 1.066a4.49 4.49 0 0 0 6.307-.737 4.494 4.494 0 0 0-.736-6.311 4.49 4.49 0 0 0-4.111-.767 16 16 0 0 0-2.43 6.749m21.908 9.042a2.212 2.212 0 1 0 3.47 2.745 2.212 2.212 0 0 0-3.47-2.745M76.6 9.856a2.213 2.213 0 1 0 2.745-3.472 2.213 2.213 0 0 0-2.745 3.472m-6.187-4.895a2.22 2.22 0 0 0 .215-2.417c-1.41.39-2.775.974-4.047 1.747a2.21 2.21 0 0 0 3.832.67m-3.61 21.785a5 5 0 0 0 7.021-.821 5.004 5.004 0 0 0-.82-7.025 4.997 4.997 0 0 0-7.022.82 5.005 5.005 0 0 0 .82 7.026m7.444 4.937a3.34 3.34 0 0 0-.71 2.35 16.15 16.15 0 0 0 6.652-.83 3.34 3.34 0 0 0-1.223-2.071 3.36 3.36 0 0 0-4.719.55m5.906-16.754a3.983 3.983 0 0 1 5.597-.654 3.987 3.987 0 0 1 .654 5.6 3.98 3.98 0 0 1-5.597.654 3.99 3.99 0 0 1-.654-5.6"/></mask><g mask="url(#p)"><path fill="#fc861e" d="M58.977 16.094c.258.394.58.756.97 1.066a4.49 4.49 0 0 0 6.307-.737 4.494 4.494 0 0 0-.736-6.31 4.49 4.49 0 0 0-4.111-.768 16 16 0 0 0-2.43 6.749"/></g></g><mask id="q" width="9" height="9" x="78" y="13" maskUnits="userSpaceOnUse" style="mask-type:luminance"><path fill="#fff" d="M78.48 13.023h8.06v8.027h-8.06z"/></mask><g mask="url(#q)"><mask id="r" width="30" height="33" x="58" y="2" maskUnits="userSpaceOnUse" style="mask-type:luminance"><path fill="#fff" d="M58.973 16.093c.258.395.58.757.97 1.067a4.49 4.49 0 0 0 6.308-.737 4.494 4.494 0 0 0-.737-6.311 4.49 4.49 0 0 0-4.111-.768 16 16 0 0 0-2.43 6.75m21.908 9.043a2.212 2.212 0 1 0 3.47 2.745 2.212 2.212 0 0 0-3.47-2.745m-4.284-15.28a2.213 2.213 0 1 0 2.746-3.472 2.213 2.213 0 0 0-2.746 3.472M70.41 4.961a2.22 2.22 0 0 0 .216-2.417c-1.411.39-2.776.974-4.048 1.746a2.21 2.21 0 0 0 3.832.671M66.8 26.746a5 5 0 0 0 7.021-.822 5.004 5.004 0 0 0-.82-7.024 4.997 4.997 0 0 0-7.022.82 5.005 5.005 0 0 0 .82 7.026m7.444 4.937a3.34 3.34 0 0 0-.71 2.35 16.15 16.15 0 0 0 6.652-.83 3.34 3.34 0 0 0-1.223-2.071 3.36 3.36 0 0 0-4.719.55m5.906-16.754a3.983 3.983 0 0 1 5.597-.654 3.986 3.986 0 0 1 .654 5.6 3.98 3.98 0 0 1-5.597.654 3.99 3.99 0 0 1-.654-5.6"/></mask><g mask="url(#r)"><path fill="#f93" d="M79.355 14.57a3.985 3.985 0 1 1 6.252 4.946 3.984 3.984 0 0 1-5.598.655 3.99 3.99 0 0 1-.654-5.601"/></g></g><mask id="s" width="8" height="5" x="72" y="29" maskUnits="userSpaceOnUse" style="mask-type:luminance"><path fill="#fff" d="M72.727 29.955h6.677v3.801h-6.677z"/></mask><g mask="url(#s)"><mask id="t" width="30" height="33" x="58" y="2" maskUnits="userSpaceOnUse" style="mask-type:luminance"><path fill="#fff" d="M58.977 16.093c.258.395.58.757.97 1.067a4.49 4.49 0 0 0 6.307-.737 4.494 4.494 0 0 0-.736-6.311 4.49 4.49 0 0 0-4.111-.768 16 16 0 0 0-2.43 6.75m21.908 9.043a2.212 2.212 0 1 0 3.47 2.745 2.212 2.212 0 0 0-3.47-2.745M76.6 9.856a2.213 2.213 0 1 0 2.745-3.472 2.213 2.213 0 0 0-2.745 3.472m-6.187-4.895a2.22 2.22 0 0 0 .215-2.417c-1.41.39-2.775.974-4.047 1.746a2.21 2.21 0 0 0 3.832.671m-3.61 21.785a5 5 0 0 0 7.021-.822 5.004 5.004 0 0 0-.82-7.024 4.997 4.997 0 0 0-7.022.82 5.005 5.005 0 0 0 .82 7.026m7.444 4.937a3.34 3.34 0 0 0-.71 2.35 16.15 16.15 0 0 0 6.652-.83 3.34 3.34 0 0 0-1.223-2.071 3.36 3.36 0 0 0-4.719.55m5.906-16.754a3.983 3.983 0 0 1 5.597-.654 3.986 3.986 0 0 1 .654 5.6 3.98 3.98 0 0 1-5.597.654 3.99 3.99 0 0 1-.654-5.6"/></mask><g mask="url(#t)"><path fill="#f93" d="M79.398 32.843a3.34 3.34 0 0 0-1.224-2.07 3.36 3.36 0 0 0-4.719.55 3.35 3.35 0 0 0-.71 2.352 16.1 16.1 0 0 0 6.653-.832"/></g></g><mask id="u" width="11" height="11" x="64" y="17" maskUnits="userSpaceOnUse" style="mask-type:luminance"><path fill="#fff" d="M64.094 17.44h10.015v10.056H64.094z"/></mask><g mask="url(#u)"><mask id="v" width="30" height="33" x="58" y="2" maskUnits="userSpaceOnUse" style="mask-type:luminance"><path fill="#fff" d="M58.977 16.093c.258.395.58.757.97 1.067a4.49 4.49 0 0 0 6.307-.737 4.494 4.494 0 0 0-.736-6.311 4.49 4.49 0 0 0-4.111-.768 16 16 0 0 0-2.43 6.75m21.908 9.043a2.212 2.212 0 1 0 3.47 2.745 2.212 2.212 0 0 0-3.47-2.745M76.6 9.856a2.213 2.213 0 1 0 2.745-3.472 2.213 2.213 0 0 0-2.745 3.472m-6.187-4.895a2.22 2.22 0 0 0 .215-2.417c-1.41.39-2.775.974-4.047 1.746a2.21 2.21 0 0 0 3.832.671m-3.61 21.785a5 5 0 0 0 7.021-.822 5.004 5.004 0 0 0-.82-7.024 4.997 4.997 0 0 0-7.022.82 5.005 5.005 0 0 0 .82 7.026m7.444 4.937a3.34 3.34 0 0 0-.71 2.35 16.15 16.15 0 0 0 6.652-.83 3.34 3.34 0 0 0-1.223-2.071 3.36 3.36 0 0 0-4.719.55m5.906-16.754a3.983 3.983 0 0 1 5.597-.654 3.986 3.986 0 0 1 .654 5.6 3.98 3.98 0 0 1-5.597.654 3.99 3.99 0 0 1-.654-5.6"/></mask><g mask="url(#v)"><path fill="#f93" d="M65.188 19.362a4.996 4.996 0 0 1 7.02-.82 5 5 0 0 1 .82 7.024 4.996 4.996 0 0 1-7.02.82 5.003 5.003 0 0 1-.82-7.024"/></g></g><mask id="w" width="6" height="4" x="65" y="2" maskUnits="userSpaceOnUse" style="mask-type:luminance"><path fill="#fff" d="M65.707 2.541h4.49v2.995h-4.49z"/></mask><g mask="url(#w)"><mask id="x" width="30" height="33" x="58" y="2" maskUnits="userSpaceOnUse" style="mask-type:luminance"><path fill="#fff" d="M58.977 16.094c.258.394.58.756.97 1.066a4.49 4.49 0 0 0 6.307-.737 4.494 4.494 0 0 0-.736-6.311 4.49 4.49 0 0 0-4.111-.767 16 16 0 0 0-2.43 6.749m21.908 9.042a2.212 2.212 0 1 0 3.47 2.745 2.212 2.212 0 0 0-3.47-2.745M76.6 9.856a2.213 2.213 0 1 0 2.745-3.472 2.213 2.213 0 0 0-2.745 3.472m-6.187-4.895a2.22 2.22 0 0 0 .215-2.417c-1.41.39-2.775.974-4.047 1.747a2.21 2.21 0 0 0 3.832.67m-3.61 21.785a5 5 0 0 0 7.021-.821 5.004 5.004 0 0 0-.82-7.025 4.997 4.997 0 0 0-7.022.82 5.005 5.005 0 0 0 .82 7.026m7.444 4.937a3.34 3.34 0 0 0-.71 2.35 16.15 16.15 0 0 0 6.652-.83 3.34 3.34 0 0 0-1.223-2.071 3.36 3.36 0 0 0-4.719.55m5.906-16.754a3.983 3.983 0 0 1 5.597-.654 3.987 3.987 0 0 1 .654 5.6 3.98 3.98 0 0 1-5.597.654 3.99 3.99 0 0 1-.654-5.6"/></mask><g mask="url(#x)"><path fill="#f93" d="M66.51 4.965a2.213 2.213 0 0 0 3.323-2.78c-1.412.39-2.776.974-4.048 1.746a2.2 2.2 0 0 0 .724 1.034"/></g></g><mask id="y" width="6" height="6" x="74" y="5" maskUnits="userSpaceOnUse" style="mask-type:luminance"><path fill="#fff" d="M74.914 5.535h4.49v4.492h-4.49z"/></mask><g mask="url(#y)"><mask id="z" width="30" height="33" x="58" y="2" maskUnits="userSpaceOnUse" style="mask-type:luminance"><path fill="#fff" d="M58.977 16.093c.258.395.58.757.97 1.067a4.49 4.49 0 0 0 6.307-.737 4.494 4.494 0 0 0-.736-6.311 4.49 4.49 0 0 0-4.111-.768 16 16 0 0 0-2.43 6.75m21.908 9.043a2.212 2.212 0 1 0 3.47 2.745 2.212 2.212 0 0 0-3.47-2.745M76.6 9.856a2.213 2.213 0 1 0 2.745-3.472 2.213 2.213 0 0 0-2.745 3.472m-6.187-4.895a2.22 2.22 0 0 0 .215-2.417c-1.41.39-2.775.974-4.047 1.746a2.21 2.21 0 0 0 3.832.671m-3.61 21.785a5 5 0 0 0 7.021-.822 5.004 5.004 0 0 0-.82-7.024 4.997 4.997 0 0 0-7.022.82 5.005 5.005 0 0 0 .82 7.026m7.444 4.937a3.34 3.34 0 0 0-.71 2.35 16.15 16.15 0 0 0 6.652-.83 3.34 3.34 0 0 0-1.223-2.071 3.36 3.36 0 0 0-4.719.55m5.906-16.754a3.983 3.983 0 0 1 5.597-.654 3.986 3.986 0 0 1 .654 5.6 3.98 3.98 0 0 1-5.597.654 3.99 3.99 0 0 1-.654-5.6"/></mask><g mask="url(#z)"><path fill="#f93" d="M75.44 6.387a2.214 2.214 0 1 1 3.474 2.749 2.214 2.214 0 0 1-3.473-2.749"/></g></g><mask id="A" width="6" height="6" x="79" y="23" maskUnits="userSpaceOnUse" style="mask-type:luminance"><path fill="#fff" d="M79.52 23.886h4.604v4.572H79.52z"/></mask><g mask="url(#A)"><mask id="B" width="30" height="33" x="58" y="2" maskUnits="userSpaceOnUse" style="mask-type:luminance"><path fill="#fff" d="M58.977 16.094c.258.394.58.756.97 1.066a4.49 4.49 0 0 0 6.307-.737 4.494 4.494 0 0 0-.736-6.31 4.49 4.49 0 0 0-4.111-.768 16 16 0 0 0-2.43 6.749m21.908 9.042a2.212 2.212 0 1 0 3.47 2.745 2.212 2.212 0 0 0-3.47-2.745M76.6 9.856a2.213 2.213 0 1 0 2.745-3.472 2.213 2.213 0 0 0-2.745 3.472m-6.187-4.895a2.22 2.22 0 0 0 .215-2.417c-1.41.391-2.775.974-4.047 1.747a2.21 2.21 0 0 0 3.832.67m-3.61 21.786a5 5 0 0 0 7.021-.822 5.004 5.004 0 0 0-.82-7.025 4.997 4.997 0 0 0-7.022.82 5.005 5.005 0 0 0 .82 7.027m7.444 4.936a3.34 3.34 0 0 0-.71 2.35 16.15 16.15 0 0 0 6.652-.83 3.34 3.34 0 0 0-1.223-2.071 3.36 3.36 0 0 0-4.719.55m5.906-16.754a3.983 3.983 0 0 1 5.597-.654 3.987 3.987 0 0 1 .654 5.6 3.98 3.98 0 0 1-5.597.654 3.99 3.99 0 0 1-.654-5.6"/></mask><g mask="url(#B)"><path fill="#f93" d="M80.09 24.777a2.214 2.214 0 1 1 .363 3.11 2.216 2.216 0 0 1-.363-3.11"/></g></g><mask id="C" width="9" height="10" x="58" y="8" maskUnits="userSpaceOnUse" style="mask-type:luminance"><path fill="#fff" d="M58.914 8.76h7.55v9.1h-7.55z"/></mask><g mask="url(#C)"><mask id="D" width="30" height="33" x="58" y="2" maskUnits="userSpaceOnUse" style="mask-type:luminance"><path fill="#fff" d="M58.977 16.094c.258.394.58.756.97 1.066a4.49 4.49 0 0 0 6.307-.737 4.494 4.494 0 0 0-.736-6.31 4.49 4.49 0 0 0-4.111-.768 16 16 0 0 0-2.43 6.749m21.908 9.042a2.212 2.212 0 1 0 3.47 2.745 2.212 2.212 0 0 0-3.47-2.745M76.6 9.856a2.213 2.213 0 1 0 2.745-3.472 2.213 2.213 0 0 0-2.745 3.472m-6.187-4.895a2.22 2.22 0 0 0 .215-2.417c-1.41.391-2.775.974-4.047 1.747a2.21 2.21 0 0 0 3.832.67m-3.61 21.786a5 5 0 0 0 7.021-.822 5.004 5.004 0 0 0-.82-7.025 4.997 4.997 0 0 0-7.022.82 5.005 5.005 0 0 0 .82 7.027m7.444 4.936a3.34 3.34 0 0 0-.71 2.35 16.15 16.15 0 0 0 6.652-.83 3.34 3.34 0 0 0-1.223-2.071 3.36 3.36 0 0 0-4.719.55m5.906-16.754a3.983 3.983 0 0 1 5.597-.654 3.986 3.986 0 0 1 .654 5.6 3.98 3.98 0 0 1-5.597.654 3.99 3.99 0 0 1-.654-5.6"/></mask><g mask="url(#D)"><path fill="#f93" d="M58.18 15.734c.258.395.58.758.97 1.067a4.49 4.49 0 0 0 6.307-.737 4.494 4.494 0 0 0-.737-6.311 4.48 4.48 0 0 0-4.11-.768 16 16 0 0 0-2.43 6.75"/></g></g></svg>