<svg xmlns="http://www.w3.org/2000/svg" width="131" height="128" fill="none" viewBox="0 0 131 128"><mask id="a" width="133" height="130" x="-1" y="-1" maskUnits="userSpaceOnUse" style="mask-type:luminance"><path fill="#fff" d="M131.153-.249H-.495v128.487h131.648z"/></mask><g mask="url(#a)"><path fill="#c6eef0" d="M124.741 73.145q-.366 1.512-1.92 1.495a.94.94 0 0 1-.672-.394l-6.067-7.799 2.374-1.848 6.068 7.798a.94.94 0 0 1 .217.748"/><path fill="#252835" d="M122.856 75.1h-.04a1.368 1.368 0 0 1-1.029-.572l-6.349-8.161 3.099-2.414 6.349 8.162q.199.237.278.536.078.299.023.602c-.292 1.209-1.097 1.846-2.331 1.846m-6.129-8.573 5.785 7.436a.5.5 0 0 0 .315.217h.03c.803 0 1.247-.354 1.438-1.143a.52.52 0 0 0-.134-.358l-5.785-7.436z"/><path fill="#c6eef0" d="M109.345 81.345q-1.159 1.285-2.67.444a1.04 1.04 0 0 1-.447-.742l-1.799-10.843 3.3-.548 1.799 10.843q.05.222 0 .443a1 1 0 0 1-.183.403"/><path fill="#252835" d="M107.821 82.583a2.77 2.77 0 0 1-1.367-.394 1.47 1.47 0 0 1-.678-1.068l-1.874-11.296 4.207-.698 1.874 11.297q.068.324-.01.647t-.286.581c-.557.62-1.188.93-1.866.93m-2.862-12 1.723 10.388a.6.6 0 0 0 .218.417c.824.457 1.473.35 2.105-.35a.6.6 0 0 0 .071-.464l-1.722-10.39z"/><path fill="#c6eef0" d="M109.917 79.404q-2.017 1.502-4.409.732a.95.95 0 0 1-.438-.288.95.95 0 0 1-.225-.474l-1.922-11.584 5.452-.906 1.922 11.585a.96.96 0 0 1-.059.52.96.96 0 0 1-.321.415"/><path fill="#252835" fill-opacity=".2" d="M106.783 79.452a.95.95 0 0 1-.437-.288.95.95 0 0 1-.224-.474l-1.845-11.124-1.354.224 1.922 11.584q.046.269.225.474a.95.95 0 0 0 .438.288q2.351.757 4.339-.683-1.446.518-3.064-.002"/><path fill="#c6eef0" d="M124.36 71.365q-.95 2.051-3.171 2.47a.85.85 0 0 1-.469-.04.86.86 0 0 1-.38-.28l-6.482-8.33 3.921-3.054 6.482 8.331q.15.194.176.438a.86.86 0 0 1-.077.465"/><path fill="#252835" fill-opacity=".2" d="M121.663 72.73a.86.86 0 0 1-.47-.04.85.85 0 0 1-.38-.28l-6.124-7.872-.831.647 6.481 8.331a.86.86 0 0 0 .381.279q.23.085.469.04 2.221-.419 3.171-2.47a.85.85 0 0 0 .08-.404q-.966 1.426-2.777 1.768"/><path fill="#c6eef0" d="M115.613 75.679q-.994 1.195-2.383.494a.94.94 0 0 1-.428-.65l-2.006-9.677 2.944-.611 2.007 9.676a.94.94 0 0 1-.134.768"/><path fill="#252835" d="M114.21 76.894a2.6 2.6 0 0 1-1.185-.311 1.37 1.37 0 0 1-.671-.967l-2.101-10.127 3.845-.798 2.101 10.127a1.38 1.38 0 0 1-.232 1.155c-.509.612-1.105.921-1.757.921m-2.871-10.691 1.914 9.226a.5.5 0 0 0 .186.334c.734.371 1.295.255 1.822-.378a.5.5 0 0 0 .038-.38l-1.913-9.227z"/><path fill="#c6eef0" d="m109.778 65.76 1.723 8.31a.86.86 0 0 0 .218.417q.168.18.404.243 2.178.605 3.935-.817a.85.85 0 0 0 .274-.383.86.86 0 0 0 .034-.47l-1.682-8.115z"/><path fill="#252835" fill-opacity=".2" d="M113.334 73.992a.84.84 0 0 1-.404-.243.86.86 0 0 1-.219-.418l-1.616-7.79-1.317.219 1.723 8.31a.86.86 0 0 0 .218.417q.168.18.404.243 2.178.605 3.935-.817.02-.016.037-.034a4.15 4.15 0 0 1-2.761.112"/><path fill="#252835" d="M107.087 80.909a5.6 5.6 0 0 1-1.737-.286 1.46 1.46 0 0 1-.67-.44 1.46 1.46 0 0 1-.34-.725l-2.006-12.09 6.461-1.073 2.006 12.09a1.48 1.48 0 0 1-.58 1.429c-.979.73-2.028 1.095-3.134 1.095m-3.576-12.698 1.838 11.08q.022.126.107.222.084.098.207.135c1.442.464 2.733.249 3.947-.655a.45.45 0 0 0 .181-.44l-1.838-11.08zM121.022 74.362a1.37 1.37 0 0 1-1.087-.531l-6.797-8.736 4.729-3.683 6.797 8.736a1.37 1.37 0 0 1 .281.694 1.37 1.37 0 0 1-.122.738c-.704 1.52-1.894 2.448-3.54 2.757a1.4 1.4 0 0 1-.261.025m-6.447-9.088 6.167 7.928a.36.36 0 0 0 .352.13c1.319-.25 2.236-.962 2.8-2.182a.357.357 0 0 0-.038-.372l-6.168-7.928z"/><path fill="#252835" d="M113.389 75.423a5.2 5.2 0 0 1-1.403-.2 1.364 1.364 0 0 1-.86-.694 1.4 1.4 0 0 1-.126-.356l-1.831-8.831 5.916-.983 1.782 8.597q.039.186.025.376-.014.191-.077.37a1.4 1.4 0 0 1-.435.61c-.915.74-1.917 1.111-2.991 1.111m-3.002-9.246 1.615 7.788a.35.35 0 0 0 .091.173.35.35 0 0 0 .167.099c1.294.36 2.431.123 3.476-.722a.35.35 0 0 0 .114-.157.37.37 0 0 0 .015-.194l-1.583-7.633z"/><path fill="#c6eef0" d="M112.675 27.323h-8.722c-.431-9.32-.628-18.123 0-25.092h8.722c.65 6.498.411 15.548 0 25.092"/><path fill="#252835" fill-opacity=".2" d="M111.98 19.885h-4.721a2.1 2.1 0 0 1-.779-.151 2 2 0 0 1-.667-.43 2.1 2.1 0 0 1-.642-1.42c-.236-5.532-.372-10.842-.283-15.653h-.935c-.628 6.97-.431 15.772 0 25.092h8.722c.112-2.612.212-5.186.284-7.682a2.05 2.05 0 0 1-.979.244"/><path fill="#252835" d="M113.171 27.84h-9.711l-.023-.493c-.38-8.22-.677-17.64.001-25.162l.043-.47h9.663l.047.466c.666 6.666.394 16.034.001 25.164zm-8.724-1.034h7.735c.37-8.723.616-17.61.025-24.057h-7.78c-.607 7.23-.339 16.161.02 24.057"/><path fill="#c6eef0" d="M97.21 118.862V88.96s-9.366 3.77-15.76-8.007c-6.395-11.779-2.528-22.936 7.731-23.381 10.26-.447 15.018-.596 15.018-.596V28.711s-11.449-2.678-24.235 8.182c-12.788 10.86-17.992 30.645-13.978 47.902 4.015 17.256 19.915 32.695 19.915 32.695z"/><path fill="#f3ffff" d="M85.721 90.289a9.8 9.8 0 0 1-2.186-1.375 13.634 13.634 0 0 1-1.837-1.831 14.3 14.3 0 0 1-1.469-2.13 13.3 13.3 0 0 1-1.036-2.36.14.14 0 0 1 .002-.104.15.15 0 0 1 .172-.094.15.15 0 0 1 .088.056l.005.007c.27.336.507.685.741 1.033.111.179.24.346.355.52q.174.261.356.515c.475.686.953 1.362 1.456 2.02.252.33.512.651.776.971.136.156.268.317.41.469q.201.236.416.462a28 28 0 0 0 1.805 1.758q.038.034.004.07-.023.028-.058.013M89.875 91.997a2.8 2.8 0 0 1-.866.072 4 4 0 0 1-.832-.148 3.1 3.1 0 0 1-.772-.331 2.1 2.1 0 0 1-.642-.583.16.16 0 0 1-.012-.174q.045-.09.146-.093h.002q.42-.003.825.11.38.104.74.263c.24.102.478.211.716.34q.376.193.715.448a.05.05 0 0 1 .02.055.05.05 0 0 1-.04.042M76.917 43.564a5 5 0 0 1-.412.902 9.208 9.208 0 0 1-1.124 1.567q-.323.377-.711.688a.15.15 0 0 1-.114.032.15.15 0 0 1-.102-.057.15.15 0 0 1-.029-.132q.123-.488.358-.936a6.5 6.5 0 0 1 .504-.845 6.4 6.4 0 0 1 .621-.762q.345-.369.77-.645a.16.16 0 0 1 .223.053q.039.065.016.135M86.68 34.709l-2.269 1.84c-.373.31-.752.61-1.12.926a57 57 0 0 0-1.109.938 73 73 0 0 0-2.162 1.935l-2.126 2.005a.14.14 0 0 1-.096.039.14.14 0 0 1-.099-.035.14.14 0 0 1-.05-.09.14.14 0 0 1 .024-.103 20 20 0 0 1 1.833-2.324 25 25 0 0 1 2.119-2.074c.374-.323.757-.633 1.144-.94.395-.297.787-.596 1.197-.872a19.5 19.5 0 0 1 2.55-1.503.15.15 0 0 1 .11-.01.15.15 0 0 1 .087.065.15.15 0 0 1 .022.108.14.14 0 0 1-.054.094z"/><path fill="#252835" fill-opacity=".2" d="M81.449 80.953c-6.394-11.779-2.528-22.936 7.731-23.381 4.151-.181 7.402-.314 9.801-.407v-.067c-2.468.093-6.285.243-11.554.473-10.26.446-14.125 11.603-7.732 23.38 4.262 7.85 9.843 8.793 13.092 8.55-3.275-.245-7.77-1.975-11.338-8.548"/><path fill="#252835" fill-opacity=".2" d="M87.524 116.122s-15.9-15.439-19.914-32.696C63.666 66.47 68.622 47.071 80.93 36.1q-.483.384-.965.794c-12.788 10.86-17.992 30.645-13.978 47.902 4.015 17.256 19.915 32.695 19.915 32.695l11.31 1.371v-1.565z"/><path fill="#252835" d="m97.728 119.445-12.062-1.462-.125-.122c-.04-.038-4.057-3.957-8.506-9.939-4.114-5.529-9.458-14.01-11.552-23.01-1.99-8.556-1.744-18.005.694-26.608 2.535-8.945 7.186-16.484 13.452-21.805 6.697-5.688 13.033-7.643 17.169-8.28 4.507-.696 7.398-.04 7.519-.012l.399.094v29.176l-.501.016c-.047 0-4.873.154-15.01.595-3.887.169-6.998 1.979-8.76 5.096-2.574 4.548-2.028 11.099 1.459 17.522 2.572 4.737 5.906 7.481 9.91 8.157 2.964.5 5.182-.374 5.204-.383l.71-.285zm-11.59-2.446 10.556 1.279V89.666a11.9 11.9 0 0 1-5.052.217c-2.98-.503-7.244-2.417-10.646-8.683-3.658-6.74-4.201-13.664-1.452-18.525 1.945-3.439 5.36-5.435 9.615-5.62 8.307-.362 13.05-.53 14.523-.579V29.141c-.924-.147-3.395-.421-6.783.108-3.99.624-10.11 2.525-16.601 8.038-12.21 10.37-17.887 29.857-13.808 47.39 3.748 16.112 18.165 30.84 19.649 32.322"/><path fill="#c6eef0" d="M93.528 119.655c.184-.241.17-8.334.118-15.779-.028-4-5.121-5.677-7.519-2.474l-13.66 18.253z"/><path fill="#f3ffff" d="M91.533 114.937a25 25 0 0 1-.142-1.743 43 43 0 0 1-.037-3.485c.023-.581.057-1.161.133-1.743a.17.17 0 0 1 .058-.111.17.17 0 0 1 .117-.043q.066 0 .116.043a.17.17 0 0 1 .06.111c.076.58.112 1.161.137 1.743q.033.872.022 1.743c-.006.582-.02 1.163-.05 1.744a26 26 0 0 1-.136 1.743.13.13 0 0 1-.047.088.14.14 0 0 1-.093.035.14.14 0 0 1-.092-.035.13.13 0 0 1-.046-.088z"/><path fill="#252835" fill-opacity=".2" d="m74.517 119.339 13.66-18.253a4.1 4.1 0 0 1 1.678-1.344 4 4 0 0 0-1.065.027 4.05 4.05 0 0 0-1.93.859 4 4 0 0 0-.733.774l-13.66 18.253h21.06q.05-.154.052-.316z"/><path fill="#252835" d="M81.643 107.938c-.515 1.164-1.242 2.169-1.975 3.169a303 303 0 0 1-4.431 5.976c-.373.495-.757.982-1.137 1.472s-.76.98-1.15 1.462l-.485-.967h21.06l-.48.238-.003.004a.4.4 0 0 0-.089.178v-.006l.003-.021.01-.096.014-.231.017-.491.016-1 .014-2.015-.01-4.039-.014-4.042-.012-2.022-.01-1.516c0-.088-.004-.162-.007-.231-.005-.071-.005-.145-.013-.216a4 4 0 0 0-.172-.833 3.7 3.7 0 0 0-.37-.758 3.44 3.44 0 0 0-1.242-1.14 3.7 3.7 0 0 0-1.645-.459 3.42 3.42 0 0 0-2.367.829 4 4 0 0 0-.598.646l-1.22 1.611c-.814 1.076-1.653 2.132-2.644 3.074a.32.32 0 0 1-.206.088.3.3 0 0 1-.214-.065.32.32 0 0 1-.123-.187.32.32 0 0 1 .028-.222c.624-1.217 1.4-2.32 2.202-3.404l1.203-1.625a4.8 4.8 0 0 1 1.724-1.496 4.64 4.64 0 0 1 2.251-.511 4.9 4.9 0 0 1 2.222.589 4.7 4.7 0 0 1 1.722 1.548q.324.493.525 1.05.19.557.25 1.14c.009.097.01.193.016.29.005.096.009.194.008.273l.003.505.006 1.012.01 2.024.01 4.048c0 1.349-.016 2.699-.033 4.05l-.038 2.03q-.015.507-.04 1.021l-.03.52-.023.273-.02.155-.018.104-.005.026a.8.8 0 0 1-.121.266l-.005.007-.162.239h-21.38l-1.18.037.696-1.006c.354-.51.716-1.012 1.079-1.515s.722-1.008 1.092-1.506q1.1-1.5 2.224-2.982 1.12-1.485 2.26-2.954c.753-.987 1.512-1.967 2.484-2.789a.33.33 0 0 1 .206-.079.33.33 0 0 1 .212.067.33.33 0 0 1 .123.184q.03.114-.019.222z"/><path fill="#c6eef0" d="M104.795 106.812h7.063a4 4 0 0 1 .813.08 4 4 0 0 1 .78.236q.189.08.37.175a4.2 4.2 0 0 1 .981.729 4 4 0 0 1 .518.631 4.3 4.3 0 0 1 .522 1.105 4 4 0 0 1 .159.801q.021.203.021.408v8.678h-15.39v-8.678a4.3 4.3 0 0 1 .08-.812 4.3 4.3 0 0 1 .237-.782q.08-.189.174-.37a4.3 4.3 0 0 1 .729-.981 4.17 4.17 0 0 1 2.131-1.14 4 4 0 0 1 .812-.08"/><path fill="#252835" fill-opacity=".2" d="M102.617 119.392v-8.678q0-.317.047-.63.048-.312.142-.615a4.2 4.2 0 0 1 .951-1.62q.217-.23.467-.423.25-.194.526-.35.275-.153.572-.264h-.527a4.3 4.3 0 0 0-.812.079 4.3 4.3 0 0 0-1.15.412 4 4 0 0 0-.35.211 4 4 0 0 0-.631.518 4.14 4.14 0 0 0-1.22 2.945v8.678h15.39v-.263z"/><path fill="#252835" d="M116.536 120.172h-16.423v-9.195a4.687 4.687 0 0 1 4.681-4.682h7.062a4.67 4.67 0 0 1 2.599.791 5 5 0 0 1 .708.582 4.7 4.7 0 0 1 .819 1.103q.108.202.197.415a4.6 4.6 0 0 1 .266.878 4.7 4.7 0 0 1 .091.913zm-15.389-1.035h14.356v-8.16a3.6 3.6 0 0 0-.071-.711 4 4 0 0 0-.087-.348 4 4 0 0 0-.274-.66 3.66 3.66 0 0 0-1.82-1.651 4 4 0 0 0-.684-.208 4 4 0 0 0-.353-.053 4 4 0 0 0-.358-.017h-7.062q-.18 0-.358.017-.178.019-.353.053a3.8 3.8 0 0 0-1.008.362 3.6 3.6 0 0 0-.859.638 3.7 3.7 0 0 0-.453.552 4 4 0 0 0-.185.307 3.573 3.573 0 0 0-.413 1.362 4 4 0 0 0-.018.357z"/><path fill="#c6eef0" d="M116.019 100.787H100.63c-.621-3.92-.833-7.594 0-10.637h15.389c.581 3.012.411 6.714 0 10.637"/><path fill="#252835" fill-opacity=".2" d="M101.99 92.435a1.365 1.365 0 0 1 1.342-1.12h11.703q.626 0 1.197.258a19 19 0 0 0-.213-1.423H100.63c-.833 3.043-.621 6.716 0 10.637h1.443c-.416-3.018-.545-5.864-.083-8.352"/><path fill="#252835" d="M116.483 101.304h-16.295l-.069-.437c-.74-4.67-.736-8.12.012-10.854l.105-.38h16.209l.081.42c.652 3.385.346 7.544.006 10.788zm-15.411-1.034h14.48c.298-2.96.534-6.585.033-9.603h-14.556c-.587 2.444-.573 5.518.043 9.603"/><path fill="#252835" d="M116.803 101.946a75.6 75.6 0 0 1-16.96 0 1.142 1.142 0 0 1-.925-.721 1.1 1.1 0 0 1-.074-.403v-2.445a1.13 1.13 0 0 1 .293-.758 1.13 1.13 0 0 1 .725-.368c5.364-.564 11.002-.528 16.916.016a1.14 1.14 0 0 1 .73.365 1.12 1.12 0 0 1 .294.762v2.428a1.13 1.13 0 0 1-.608 1.004 1.1 1.1 0 0 1-.391.12"/><path fill="#252835" d="M108.324 102.937q-4.282 0-8.538-.477a1.6 1.6 0 0 1-.823-.336 1.5 1.5 0 0 1-.219-.204 1.643 1.643 0 0 1-.415-1.098v-2.445a1.65 1.65 0 0 1 1.48-1.64c5.29-.556 10.856-.55 17.018.015a1.7 1.7 0 0 1 .583.164 1.64 1.64 0 0 1 .883 1.175q.028.15.026.303v2.428q.002.15-.026.299a1.63 1.63 0 0 1-.608 1.003 1.7 1.7 0 0 1-.53.276 1.6 1.6 0 0 1-.293.06 77 77 0 0 1-8.538.477m-.407-5.574a77 77 0 0 0-7.999.401.62.62 0 0 0-.514.392.6.6 0 0 0-.041.221v2.445q-.001.113.038.218a.62.62 0 0 0 .289.328.6.6 0 0 0 .212.065q8.422.942 16.845 0a.62.62 0 0 0 .501-.393.6.6 0 0 0 .039-.218v-2.428a.618.618 0 0 0-.554-.613 97 97 0 0 0-8.816-.418M128.655 126.159a332 332 0 0 1-59.472 0 1.9 1.9 0 0 1-.962-.371 1.9 1.9 0 0 1-.75-1.506v-4.108a1.9 1.9 0 0 1 .507-1.286 1.8 1.8 0 0 1 .567-.415 1.9 1.9 0 0 1 .681-.178 443 443 0 0 1 59.387 0 1.86 1.86 0 0 1 1.247.593 1.8 1.8 0 0 1 .376.595 1.9 1.9 0 0 1 .131.691v4.109a1.9 1.9 0 0 1-.127.681 2 2 0 0 1-.156.311q-.09.149-.209.278a1.85 1.85 0 0 1-.877.543 2 2 0 0 1-.343.063"/><path fill="#f3ffff" fill-opacity=".2" d="M114.131 118.843a31 31 0 0 1 2.771-.121c.924-.009 1.845.018 2.767.054l1.382.079c.459.039.92.065 1.378.116.919.089 1.836.202 2.749.379a.195.195 0 0 1-.018.386h-.005c-.928.09-1.851.115-2.772.116-.462.008-.921-.01-1.382-.014l-1.379-.053a56 56 0 0 1-2.754-.207 31 31 0 0 1-2.75-.384l-.003-.001a.17.17 0 0 1-.106-.064.17.17 0 0 1-.037-.117.17.17 0 0 1 .048-.114.17.17 0 0 1 .111-.054zM109.331 118.701a4 4 0 0 1 .932-.228q.46-.059.927-.05.464.009.922.089.478.078.918.276a.2.2 0 0 1 .121.196.195.195 0 0 1-.132.189l-.002.001q-.45.173-.931.224a6 6 0 0 1-.925.035 6 6 0 0 1-.921-.1 4 4 0 0 1-.918-.282h-.001a.175.175 0 0 1-.109-.178.18.18 0 0 1 .119-.171zM74.13 125.141q-.24.083-.49.098a3 3 0 0 1-.484 0 2.8 2.8 0 0 1-.95-.218.13.13 0 0 1-.068-.075.132.132 0 0 1 .09-.174q.48-.118.97-.066.242.018.477.076.246.055.469.173a.1.1 0 0 1 .05.06.1.1 0 0 1-.009.078.1.1 0 0 1-.055.048M82.199 125.658c-.604.034-1.205.035-1.806.023a43 43 0 0 1-1.802-.075c-1.199-.077-2.397-.177-3.587-.368a.11.11 0 0 1-.077-.046.12.12 0 0 1-.027-.084.12.12 0 0 1 .037-.082.12.12 0 0 1 .082-.036h.003c1.206-.039 2.405.009 3.603.083q.898.056 1.794.151c.597.064 1.194.14 1.79.249h.001a.1.1 0 0 1 .058.034q.02.028.019.064 0 .036-.027.061a.1.1 0 0 1-.061.026"/><mask id="b" width="65" height="13" x="66" y="116" maskUnits="userSpaceOnUse" style="mask-type:luminance"><path fill="#fff" d="M66.796 116.722h64.119v11.284h-64.12z"/></mask><g mask="url(#b)"><path fill="#252835" d="M98.922 128c-9.95 0-19.902-.442-29.783-1.326a2.4 2.4 0 0 1-.85-.237 2.4 2.4 0 0 1-.708-.532 2.35 2.35 0 0 1-.585-1.18 2.4 2.4 0 0 1-.039-.442v-4.109a2.5 2.5 0 0 1 .169-.88 2.4 2.4 0 0 1 .816-1.057q.181-.134.385-.23.205-.097.422-.155.219-.058.445-.073a445.5 445.5 0 0 1 59.456 0 2.4 2.4 0 0 1 1.252.458q.183.134.336.299a2.4 2.4 0 0 1 .479.758 2.4 2.4 0 0 1 .169.88v4.109q0 .222-.039.442a2.334 2.334 0 0 1-.318.825 2.44 2.44 0 0 1-.974.887 2.4 2.4 0 0 1-.414.159 2.4 2.4 0 0 1-.438.078A334 334 0 0 1 98.922 128m0-10.179c-9.91 0-19.82.33-29.66.989a1.35 1.35 0 0 0-.712.262 1.4 1.4 0 0 0-.347.373 1.33 1.33 0 0 0-.212.729v4.109a1.4 1.4 0 0 0 .09.495 1.4 1.4 0 0 0 .264.428 1.3 1.3 0 0 0 .403.303 1.3 1.3 0 0 0 .484.136 333.4 333.4 0 0 0 59.38 0 1.4 1.4 0 0 0 .699-.268q.102-.077.187-.171a1.32 1.32 0 0 0 .333-.672q.023-.124.022-.251v-4.109a1.41 1.41 0 0 0-.212-.729 1.35 1.35 0 0 0-.567-.505 1.4 1.4 0 0 0-.493-.13 444 444 0 0 0-29.66-.989"/></g><path fill="#252835" d="M98.557 39.897q0 .279-.027.554a5.7 5.7 0 0 1-.64 2.111 5.82 5.82 0 0 1-.988 1.333 5.7 5.7 0 0 1-1.833 1.225 5.7 5.7 0 0 1-1.608.403 5.5 5.5 0 0 1-1.108 0 5.8 5.8 0 0 1-1.086-.216 5.64 5.64 0 0 1-2.355-1.412 5.809 5.809 0 0 1-.988-1.333A5.6 5.6 0 0 1 87.366 41a5.7 5.7 0 0 1-.109-1.103q0-.278.027-.553a5.8 5.8 0 0 1 .403-1.61 5.5 5.5 0 0 1 .522-.977 5.66 5.66 0 0 1 3.058-2.27 5.6 5.6 0 0 1 1.086-.215 6 6 0 0 1 1.108 0 5.8 5.8 0 0 1 1.608.403 6 6 0 0 1 .977.523 5.8 5.8 0 0 1 .856.703q.197.195.372.41a5.7 5.7 0 0 1 1.04 1.946 6 6 0 0 1 .216 1.087q.027.276.027.553M89.755 51.843a3.36 3.36 0 0 1-.568 1.872 3.3 3.3 0 0 1-.929.93 3.35 3.35 0 0 1-2.527.503 3.34 3.34 0 0 1-1.725-.922 3.354 3.354 0 0 1-.92-3.04 3.4 3.4 0 0 1 .502-1.214 3.3 3.3 0 0 1 .93-.93 3.36 3.36 0 0 1 3.158-.31 3.35 3.35 0 0 1 1.51 1.24 3.35 3.35 0 0 1 .569 1.871"/><path fill="#252835" d="M92.907 46.01q-.3 0-.6-.03a6.08 6.08 0 0 1-3.276-1.357 6.2 6.2 0 0 1-.847-.848 6 6 0 0 1-.665-.996 6.12 6.12 0 0 1-.257-5.22 6.2 6.2 0 0 1 .922-1.54q.19-.231.402-.444.213-.211.445-.403a6 6 0 0 1 .996-.665 6 6 0 0 1 1.106-.459 6 6 0 0 1 1.175-.233 6.2 6.2 0 0 1 1.79.088 6 6 0 0 1 1.146.347 6.1 6.1 0 0 1 3.654 4.455q.059.295.089.593a6.2 6.2 0 0 1-.09 1.792 6.3 6.3 0 0 1-.348 1.146 6.2 6.2 0 0 1-1.325 1.982 6.2 6.2 0 0 1-1.44 1.068 6 6 0 0 1-1.686.605 6 6 0 0 1-1.191.12m0-11.306a5.2 5.2 0 0 0-1.987.396 5 5 0 0 0-.897.48 5 5 0 0 0-.787.645 5.1 5.1 0 0 0-.907 1.225 5.2 5.2 0 0 0-.588 1.938 5.18 5.18 0 0 0 1.873 4.524 5 5 0 0 0 .846.566 5.2 5.2 0 0 0 1.938.588 5.4 5.4 0 0 0 1.017 0 5.4 5.4 0 0 0 .998-.199 5 5 0 0 0 1.377-.65q.213-.143.41-.305a5 5 0 0 0 .72-.72 5.1 5.1 0 0 0 .782-1.307 5 5 0 0 0 .296-.974 5.4 5.4 0 0 0 .1-1.014 5.2 5.2 0 0 0-.225-1.506 5 5 0 0 0-.39-.94 5.2 5.2 0 0 0-4.576-2.747M86.387 55.672q-.188 0-.376-.018a3.8 3.8 0 0 1-1.09-.274 3.7 3.7 0 0 1-.66-.353 3.775 3.775 0 0 1-1.25-1.379 3.7 3.7 0 0 1-.287-.693 4 4 0 0 1-.145-.736 3.84 3.84 0 0 1 .433-2.18 3.83 3.83 0 0 1 5.5-1.378 3.7 3.7 0 0 1 .58.476 3.8 3.8 0 0 1 .83 1.242 3.82 3.82 0 0 1-1.411 4.646 3.7 3.7 0 0 1-.66.355 3.8 3.8 0 0 1-1.09.273q-.186.019-.374.019m0-6.738q-.287 0-.568.057a2.9 2.9 0 0 0-1.048.434 2.9 2.9 0 0 0-.803.802 2.92 2.92 0 0 0-.268 2.73 2.9 2.9 0 0 0 .63.944 2.9 2.9 0 0 0 .944.63 3 3 0 0 0 1.112.222q.287 0 .567-.056a2.87 2.87 0 0 0 1.49-.796 2.9 2.9 0 0 0 .63-.944 2.9 2.9 0 0 0 .221-1.113 2.92 2.92 0 0 0-1.293-2.418 2.93 2.93 0 0 0-1.614-.492M91.841 104.617q0 .216-.041.428a2.2 2.2 0 0 1-.328.791 2.18 2.18 0 0 1-1.396.933 2.1 2.1 0 0 1-.856 0 2 2 0 0 1-.412-.125 2.2 2.2 0 0 1-.711-.475 2.18 2.18 0 0 1-.601-1.124 2.2 2.2 0 0 1 .125-1.269 2.2 2.2 0 0 1 .476-.711q.152-.154.332-.273a2.2 2.2 0 0 1 .79-.328 2.195 2.195 0 0 1 2.622 2.153"/><path fill="#f3ffff" fill-opacity=".3" d="M90.465 103.81a.67.67 0 0 1-.416.624.7.7 0 0 1-.259.052.7.7 0 0 1-.476-.199.66.66 0 0 1-.198-.477q0-.134.051-.257a.67.67 0 0 1 .365-.367.7.7 0 0 1 .517 0 .69.69 0 0 1 .365.367.7.7 0 0 1 .05.257"/><path fill="#c6eef0" d="M95.359 39.897a2.5 2.5 0 0 1-.186.94 2.5 2.5 0 0 1-.532.796 2.49 2.49 0 0 1-1.256.671 2.43 2.43 0 0 1-1.418-.139 2.5 2.5 0 0 1-.796-.532 2.48 2.48 0 0 1-.672-1.257 2.4 2.4 0 0 1 0-.957 2.5 2.5 0 0 1 .366-.885q.135-.2.306-.373a2.5 2.5 0 0 1 .796-.531 2.452 2.452 0 0 1 3.392 2.267"/><path fill="#252835" fill-opacity=".2" d="M93.416 41.512a2 2 0 0 1-.75-.143 2.05 2.05 0 0 1-.898-.699 2.05 2.05 0 0 1-.129-2.181 2.04 2.04 0 0 1 .809-.8 2 2 0 0 1 .728-.231 2.5 2.5 0 0 0-1.192.165 2.4 2.4 0 0 0-.788.513 2.5 2.5 0 0 0-.536.773 2.4 2.4 0 0 0-.206.918 2.5 2.5 0 0 0 .153.929 2.45 2.45 0 0 0 1.249 1.36q.214.101.445.16a2.4 2.4 0 0 0 .939.052 2.42 2.42 0 0 0 1.275-.577q.178-.157.325-.343a2.47 2.47 0 0 0 .51-1.304 2 2 0 0 1-.289.567 2.02 2.02 0 0 1-1.646.84"/><path fill="#252835" d="M92.91 42.812q-.288 0-.569-.057a2.9 2.9 0 0 1-1.491-.797 3 3 0 0 1-.362-.442 2.9 2.9 0 0 1-.435-1.05 2.9 2.9 0 0 1 0-1.137q.056-.282.165-.547t.27-.503a2.85 2.85 0 0 1 .803-.805 2.93 2.93 0 0 1 1.618-.491 2.916 2.916 0 0 1 1.618 5.337 3 3 0 0 1-1.05.435 3 3 0 0 1-.568.057m0-4.91a1.99 1.99 0 0 0-1.66.887 1.995 1.995 0 1 0 1.66-.887M113.493 109.043a.24.24 0 0 1-.025.106.4.4 0 0 1-.074.105 1 1 0 0 1-.124.103 1.953 1.953 0 0 1-.388.194 5.116 5.116 0 0 1-.562.176 7 7 0 0 1-.341.078q-.178.039-.375.072a17 17 0 0 1-.842.117q-.224.025-.459.045-.235.021-.477.036a25 25 0 0 1-.993.041 21 21 0 0 1-1.014 0 21 21 0 0 1-1.47-.077 15 15 0 0 1-1.676-.234 7 7 0 0 1-.643-.163 3 3 0 0 1-.477-.186 1.4 1.4 0 0 1-.171-.099 1 1 0 0 1-.124-.103.4.4 0 0 1-.074-.105.24.24 0 0 1 0-.211.4.4 0 0 1 .074-.105 1 1 0 0 1 .124-.103q.073-.05.171-.099.096-.05.217-.096a4 4 0 0 1 .562-.175 7 7 0 0 1 .341-.079 14 14 0 0 1 .782-.134q.212-.029.435-.055.224-.024.459-.044t.477-.037q.243-.014.492-.025.249-.01.501-.015a21 21 0 0 1 1.014 0 21 21 0 0 1 1.47.077q.235.02.459.044.224.026.435.055.21.03.407.063.197.035.375.071a7 7 0 0 1 .643.163q.142.045.26.091a2 2 0 0 1 .388.195q.074.051.124.103a.4.4 0 0 1 .074.105q.025.052.025.105"/><path fill="#c6eef0" d="M114.499 60.609c-1.624 1.521-3.666 2.658-6.186 3.358-2.455-.814-4.627-1.834-6.177-3.31a2.3 2.3 0 0 1-.706-1.552 330 330 0 0 1 .043-34.46h13.679c.472 13.125.629 25.1.057 34.434a2.3 2.3 0 0 1-.209.833q-.184.396-.501.697"/><path fill="#252835" fill-opacity=".2" d="M104.157 60.461a2 2 0 0 1-.707-1.413 275 275 0 0 1-.084-29.095 2.4 2.4 0 0 1 .218-.885 2.4 2.4 0 0 1 .53-.742q.167-.158.359-.282a2.4 2.4 0 0 1 .846-.338q.226-.044.456-.044h8.808q.342 0 .675.09-.05-1.542-.106-3.107h-13.679a331 331 0 0 0-.044 34.46q.02.443.205.845.183.401.503.707c1.55 1.476 3.721 2.496 6.176 3.31a17 17 0 0 0 1.733-.579c-2.337-.728-4.4-1.635-5.889-2.927"/><path fill="#252835" d="M100.723 48.015c-.501-1.942-.36-3.897-.414-5.848-.023-1.952-.006-3.904.021-5.856.037-1.951.091-3.903.18-5.854.04-.975.101-1.949.157-2.924l.091-1.46.109-1.461.044-.573h14.823l.021.584c.255 7.214.445 14.434.42 21.66a244 244 0 0 1-.256 10.844l-.074 1.356-.038.689a2.94 2.94 0 0 1-.612 1.569 3 3 0 0 1-.291.315l-.261.238q-.53.468-1.103.884a15.9 15.9 0 0 1-5.064 2.373h-.003l-.164.047-.188-.056a24 24 0 0 1-2.016-.709 17 17 0 0 1-1.961-.915 12.6 12.6 0 0 1-1.835-1.217c-.142-.121-.288-.235-.424-.364l-.207-.189a2.869 2.869 0 0 1-.831-1.443 3 3 0 0 1-.083-.644l-.016-.524-.033-1.047-.052-2.095c-.032-1.397-.105-2.793.148-4.196a.3.3 0 0 1 .106-.183.3.3 0 0 1 .197-.078.3.3 0 0 1 .201.063q.09.067.119.175l.002.008c.36 1.383.396 2.773.471 4.164l.108 2.085.049 1.043.024.521a1.8 1.8 0 0 0 .053.39q.117.461.462.79l.179.162c.117.112.248.21.37.316q.778.615 1.641 1.1a24 24 0 0 0 3.708 1.64l-.352-.01h.003a14.6 14.6 0 0 0 4.681-2.188 14 14 0 0 0 1.007-.807l.238-.217a1.663 1.663 0 0 0 .411-.611q.091-.236.111-.486l.038-.662.072-1.346c.172-3.59.243-7.189.255-10.79.025-7.2-.165-14.407-.419-21.611l.604.583h-13.679l.604-.572-.168 5.829a567 567 0 0 0-.132 5.83c-.044 1.942-.06 3.885-.082 5.83-.055 1.944.121 3.884-.311 5.837a.33.33 0 0 1-.116.188.33.33 0 0 1-.209.077.33.33 0 0 1-.211-.069.33.33 0 0 1-.123-.185"/><mask id="c" width="13" height="3" x="102" y="0" maskUnits="userSpaceOnUse" style="mask-type:luminance"><path fill="#fff" d="M102.023 0h12.42v2.235h-12.42z"/></mask><g mask="url(#c)"><path fill="#252835" d="M103.355 0h9.912a1.13 1.13 0 0 1 .62.188 1.05 1.05 0 0 1 .307.308 1.05 1.05 0 0 1 .167.402 1.13 1.13 0 0 1-.063.645 1 1 0 0 1-.104.192 1.1 1.1 0 0 1-.307.308 1.1 1.1 0 0 1-.402.167 1 1 0 0 1-.218.02h-9.912a1.1 1.1 0 0 1-.427-.084 1.2 1.2 0 0 1-.361-.242 1.101 1.101 0 0 1-.305-.572 1.1 1.1 0 0 1 0-.434 1.1 1.1 0 0 1 .305-.572q.076-.078.168-.138a1.2 1.2 0 0 1 .402-.167q.108-.021.218-.021"/></g><path fill="#252835" d="M104.433 20.48h7.76a4.3 4.3 0 0 1 1.262.187 4 4 0 0 1 .787.327 4.34 4.34 0 0 1 2.298 3.834v.535h-16.454v-.535a4.34 4.34 0 0 1 .987-2.758q.136-.165.286-.317.152-.15.316-.287a4.6 4.6 0 0 1 .709-.473 4.4 4.4 0 0 1 .787-.327 4.6 4.6 0 0 1 .836-.166q.213-.02.426-.02"/><path fill="#252835" d="M117.066 26.116a65.2 65.2 0 0 1-17.5 0 .68.68 0 0 1-.55-.44.7.7 0 0 1-.043-.241v-.045q0-.143.059-.274a.68.68 0 0 1 .684-.407q8.6.715 17.2 0a.68.68 0 0 1 .684.406q.058.132.058.275v.045a.68.68 0 0 1-.592.68"/><path fill="#c6eef0" d="m102.791 64.445 16.593-2.756a1.5 1.5 0 0 1 .577.019 1.5 1.5 0 0 1 .525.237q.119.084.218.191a1.48 1.48 0 0 1 .38.77l.237 1.428-19.509 3.24-.236-1.429a1.4 1.4 0 0 1-.019-.289q.004-.145.037-.287a1.48 1.48 0 0 1 .658-.92 1.5 1.5 0 0 1 .539-.204"/><path fill="#252835" fill-opacity=".2" d="m103.66 67.137-.236-1.428a1.4 1.4 0 0 1-.009-.425q.025-.213.112-.409a1.46 1.46 0 0 1 .541-.643l-1.277.212a1.5 1.5 0 0 0-.539.204 1.46 1.46 0 0 0-.565.645 1.5 1.5 0 0 0-.111.851l.237 1.428 19.508-3.24-.021-.126z"/><path fill="#252835" d="m101.389 68.167-.322-1.938a2 2 0 0 1 .026-.778q.045-.192.125-.37a2 2 0 0 1 .453-.633 2 2 0 0 1 1.037-.514l16.594-2.756a2 2 0 0 1 1.486.346 1.9 1.9 0 0 1 .533.567 2 2 0 0 1 .274.729l.322 1.938zm18.241-5.982a1 1 0 0 0-.16.013l-16.592 2.756a.9.9 0 0 0-.351.133.926.926 0 0 0-.273.257 1 1 0 0 0-.095.163 1 1 0 0 0-.084.365 1 1 0 0 0 .012.188l.153.918 18.488-3.071-.152-.918a.964.964 0 0 0-.946-.804"/><path fill="#c6eef0" d="M94.74 82.787h1.375a1 1 0 0 1 .406.08 1 1 0 0 1 .343.23 1.05 1.05 0 0 1 .31.749v3.366H93.68v-3.366a1.1 1.1 0 0 1 .081-.406 1 1 0 0 1 .23-.343 1.1 1.1 0 0 1 .344-.23 1.1 1.1 0 0 1 .406-.08"/><path fill="#252835" d="M97.692 87.729h-4.528v-3.883a1.6 1.6 0 0 1 .121-.602 1.56 1.56 0 0 1 .58-.708 1.5 1.5 0 0 1 .568-.236q.152-.03.308-.03h1.375a1.6 1.6 0 0 1 .603.12q.144.06.272.146a1.5 1.5 0 0 1 .435.435 1.55 1.55 0 0 1 .235.568q.03.153.031.307zm-3.494-1.035h2.46v-2.848a.54.54 0 0 0-.542-.543H94.74a.54.54 0 0 0-.501.336.5.5 0 0 0-.042.207z"/><path fill="#252835" d="M128.571 90.204c-13.405.779-26.293.86-38.495.01a.944.944 0 0 1-.826-.608 1 1 0 0 1-.067-.352v-2.176a.97.97 0 0 1 .527-.86 1 1 0 0 1 .337-.098c12.156-1.2 25.036-1.147 38.55.011a.95.95 0 0 1 .627.31.9.9 0 0 1 .187.3 1 1 0 0 1 .066.35v2.152a.96.96 0 0 1-.263.66.9.9 0 0 1-.293.212.9.9 0 0 1-.35.089"/><path fill="#252835" d="M108.332 91.341c-6.37 0-12.436-.204-18.293-.611a1.5 1.5 0 0 1-.532-.142 1.4 1.4 0 0 1-.445-.327 1.473 1.473 0 0 1-.398-1.007v-2.176a1.47 1.47 0 0 1 .218-.776 1.5 1.5 0 0 1 .594-.546 1.5 1.5 0 0 1 .52-.15c11.874-1.173 24.876-1.17 38.645.01a1.47 1.47 0 0 1 1.126.695 1.5 1.5 0 0 1 .226.78v2.152q0 .14-.026.278-.028.138-.079.269a1.5 1.5 0 0 1-.298.468 1.5 1.5 0 0 1-.451.325 1.4 1.4 0 0 1-.539.137c-7.123.414-13.848.621-20.268.621m.22-5.578c-6.403 0-12.567.29-18.454.872a.44.44 0 0 0-.4.443v2.176a.444.444 0 0 0 .413.445c11.714.815 24.284.812 38.429-.011a.43.43 0 0 0 .387-.28.4.4 0 0 0 .032-.165v-2.152a.4.4 0 0 0-.032-.162.44.44 0 0 0-.375-.282c-6.874-.59-13.558-.884-20-.884"/><path fill="#f3ffff" d="M93.87 39.012a.62.62 0 0 1-.182.44.62.62 0 0 1-.44.183.62.62 0 0 1-.44-.183.63.63 0 0 1-.135-.678.62.62 0 0 1 .575-.385.6.6 0 0 1 .44.183.62.62 0 0 1 .183.44"/><path fill="#f3ffff" fill-opacity=".3" d="M87.662 50.129a1.1 1.1 0 0 1-.082.406 1 1 0 0 1-.23.345 1.063 1.063 0 1 1 .312-.751M88.856 51.43a.5.5 0 0 1-.15.36.5.5 0 0 1-.358.15.496.496 0 0 1-.47-.314.51.51 0 0 1 .664-.666.51.51 0 0 1 .314.47"/><path fill="#f3ffff" d="M113.984 115.822a10 10 0 0 1-.143-1.092 17 17 0 0 1-.039-2.185q.028-.55.133-1.093a.17.17 0 0 1 .061-.102.18.18 0 0 1 .113-.041.17.17 0 0 1 .113.04q.05.04.063.102.109.54.138 1.092.034.546.023 1.092c-.007.365-.018.729-.048 1.093q-.038.551-.136 1.093a.14.14 0 0 1-.049.083.14.14 0 0 1-.229-.083zM111.193 13.111a25 25 0 0 1-.143-1.743 44 44 0 0 1-.036-3.485c.023-.581.057-1.162.133-1.744a.17.17 0 0 1 .059-.11.17.17 0 0 1 .116-.044.176.176 0 0 1 .175.153c.077.58.113 1.162.137 1.744q.034.87.022 1.743a39 39 0 0 1-.049 1.744c-.03.582-.067 1.163-.137 1.743a.13.13 0 0 1-.046.088.13.13 0 0 1-.092.036.14.14 0 0 1-.139-.124M113.155 43.537c-.135-1.916-.18-3.832-.198-5.749-.013-1.915.006-3.831.148-5.748v-.001a.17.17 0 0 1 .056-.116.17.17 0 0 1 .12-.046q.069 0 .119.046a.17.17 0 0 1 .055.116c.147 1.915.171 3.832.162 5.749-.013 1.916-.053 3.833-.184 5.749a.13.13 0 0 1-.045.092.13.13 0 0 1-.094.038.13.13 0 0 1-.095-.038.13.13 0 0 1-.044-.092M113.149 48.782a8 8 0 0 1-.139-.965 13 13 0 0 1-.03-1.93q.03-.487.136-.964a.17.17 0 0 1 .064-.1.17.17 0 0 1 .112-.038q.061 0 .111.039a.17.17 0 0 1 .064.099q.106.477.134.965.031.483.019.965c-.007.322-.021.643-.052.965a8 8 0 0 1-.141.965.14.14 0 0 1-.05.08.14.14 0 0 1-.09.032.14.14 0 0 1-.138-.113"/><path fill="#c6eef0" d="m100.039 67.264 23.019-3.823q.127-.021.255-.017a1.3 1.3 0 0 1 1.066.615 1.2 1.2 0 0 1 .18.476l.11.66a2.7 2.7 0 0 1-.032 1.019 2.62 2.62 0 0 1-.757 1.313 2.6 2.6 0 0 1-1.359.672l-20.445 3.397a2.7 2.7 0 0 1-1.018-.033 2.64 2.64 0 0 1-1.625-1.163 2.7 2.7 0 0 1-.227-.46 2.7 2.7 0 0 1-.133-.494l-.109-.66a1.3 1.3 0 0 1 .226-.974 1.3 1.3 0 0 1 .602-.462q.12-.045.247-.066"/><path fill="#252835" fill-opacity=".2" d="m123.775 66.887-20.444 3.396q-.255.043-.511.034a2.6 2.6 0 0 1-.993-.23 2.63 2.63 0 0 1-1.367-1.458 2.6 2.6 0 0 1-.133-.495l-.109-.66a1.3 1.3 0 0 1-.017-.237l-.163.027a1.3 1.3 0 0 0-.477.18 1.3 1.3 0 0 0-.5.57 1.3 1.3 0 0 0-.098.752l.11.66a2.614 2.614 0 0 0 3.003 2.149l20.444-3.395a2.6 2.6 0 0 0 1.17-.511 2.6 2.6 0 0 0 .787-1.004 2.6 2.6 0 0 1-.702.222"/><path fill="#252835" d="M117.201 64.127c1.106-.421 2.244-.647 3.389-.834l1.715-.293.429-.073.214-.037q.15-.025.301-.028a1.84 1.84 0 0 1 .9.215 1.87 1.87 0 0 1 .94 1.188l.033.152.055.323.037.215c.012.07.025.14.035.234q.072.531-.034 1.057a3.1 3.1 0 0 1-.378.988 3.2 3.2 0 0 1-.684.81 3.2 3.2 0 0 1-.909.546 3.6 3.6 0 0 1-.511.148l-.128.027-.107.018-.214.037-.857.146-13.724 2.34-3.433.568-1.716.285-.215.036c-.076.011-.131.023-.23.034q-.135.017-.27.03l-.272.003a3.3 3.3 0 0 1-1.063-.209 3.2 3.2 0 0 1-.936-.543 3.24 3.24 0 0 1-1.105-1.827l-.028-.132-.02-.111-.035-.215-.035-.215c-.013-.073-.024-.13-.037-.253a1.9 1.9 0 0 1 .141-.956q.063-.15.15-.288a1.95 1.95 0 0 1 1-.799q.152-.054.313-.082l.221-.037.43-.07.858-.139 6.872-1.111c1.146-.181 2.288-.384 3.439-.538a27 27 0 0 1 3.485-.256q.095 0 .168.063a.25.25 0 0 1 .088.156q.016.093-.033.175a.26.26 0 0 1-.139.114 27 27 0 0 1-3.381.885c-1.139.225-2.285.402-3.428.601l-6.861 1.169-.858.146-.429.074-.207.036a.657.657 0 0 0-.533.719c.031.197.091.583.135.79q.066.323.238.603.354.579.987.816.31.114.635.125l.164-.002.162-.019c.047-.002.133-.02.2-.03l.214-.036 5.15-.857 13.742-2.222.859-.139.214-.035.108-.017.086-.018a2 2 0 0 0 .324-.09 2 2 0 0 0 1.016-.85q.364-.603.275-1.302a2 2 0 0 0-.028-.195l-.035-.216-.034-.214-.017-.107-.013-.06a.72.72 0 0 0-.264-.405.73.73 0 0 0-.457-.156 1 1 0 0 0-.132.01l-.216.036-.429.069-1.718.277c-1.144.193-2.294.348-3.477.306a.28.28 0 0 1-.179-.071.27.27 0 0 1-.093-.169.28.28 0 0 1 .034-.19.28.28 0 0 1 .147-.126zM101.556 60.265a.504.504 0 0 1-.454-.276.51.51 0 0 1 .339-.734c.281-.066 6.958-1.58 13.741 0a.52.52 0 0 1 .384.415.5.5 0 0 1-.007.198.5.5 0 0 1-.226.318.5.5 0 0 1-.383.066c-6.552-1.526-13.212-.015-13.278 0a.5.5 0 0 1-.116.013"/><path fill="#f3ffff" d="M118.056 65.462a9 9 0 0 1 1.051-.289 14 14 0 0 1 2.147-.302 5.7 5.7 0 0 1 1.1.04.17.17 0 0 1 .105.057q.043.046.046.11a.17.17 0 0 1-.033.114.17.17 0 0 1-.097.069h-.004c-.348.097-.698.166-1.05.227q-.53.09-1.065.147-.534.062-1.074.09-.543.034-1.087.012a.14.14 0 0 1-.088-.038.13.13 0 0 1-.044-.084.139.139 0 0 1 .092-.154zM114.901 65.895q.28-.136.581-.219.287-.083.581-.133.293-.052.588-.058.307-.012.606.054h.004q.056.015.095.057a.185.185 0 0 1 .028.21.2.2 0 0 1-.077.08 2.5 2.5 0 0 1-.582.215 4 4 0 0 1-.598.103q-.303.03-.606.027-.306 0-.606-.058-.1-.022-.112-.121-.014-.1.076-.146z"/><path fill="#f3ffff" fill-opacity=".2" d="M116.846 86.775c.926-.09 1.849-.116 2.773-.121.923-.01 1.845.018 2.767.054l1.38.079c.461.039.921.065 1.38.116.918.09 1.835.201 2.748.379q.072.014.116.071t.041.13a.18.18 0 0 1-.053.124.2.2 0 0 1-.121.06h-.006c-.928.09-1.851.116-2.772.117-.461.007-.921-.01-1.382-.015l-1.379-.052a57 57 0 0 1-2.755-.208 31 31 0 0 1-2.748-.383l-.005-.001a.17.17 0 0 1-.104-.065.17.17 0 0 1-.038-.117.17.17 0 0 1 .048-.114.17.17 0 0 1 .111-.054z"/><path fill="#f3ffff" d="M8.203 123.309h63.561c2.912 0 5.272-2.715 5.272-6.065v-7.375c0-3.35-2.36-6.065-5.272-6.065H8.203q5.398 9.752 0 19.505"/><path fill="#252835" fill-opacity=".2" d="M74.956 120.091v-7.376c0-3.349-2.36-6.065-5.273-6.065H9.546a24 24 0 0 0-1.343-2.846h63.561c2.912 0 5.272 2.715 5.272 6.065v7.375c0 2.166-.987 4.065-2.47 5.137a6.8 6.8 0 0 0 .39-2.29"/><path fill="#252835" d="M7.748 122.977c3.508-6.339 3.508-12.502 0-18.841l-.528-.952h64.544c3.205 0 5.811 2.999 5.811 6.685v7.375c0 3.686-2.606 6.685-5.81 6.685H7.22zm1.412-18.553c3.035 6.065 3.035 12.2 0 18.265h62.604c2.61 0 4.734-2.442 4.734-5.445v-7.375c0-3.003-2.124-5.445-4.734-5.445z"/><path fill="#fdbf30" d="M71.762 127.029c4.69 0 8.506-4.389 8.506-9.785v-7.375c0-5.396-3.816-9.785-8.506-9.785H7.467c-1.04 0-1.886.973-1.886 2.17 0 1.196.846 2.17 1.886 2.17h64.295c2.58 0 4.657 2.323 4.73 5.289l.004.165v7.357c-.081 3.008-2.274 5.454-4.891 5.454H7.466c-1.04 0-1.886.974-1.886 2.17 0 1.197.846 2.17 1.886 2.17z"/><mask id="d" width="923" height="462" x="-396" y="-167" maskUnits="userSpaceOnUse" style="mask-type:luminance"><path fill="#000" fill-opacity=".2" d="M526.255-166.412h-921.854v460.927h921.854z"/></mask><g mask="url(#d)"><mask id="e" width="76" height="27" x="5" y="101" maskUnits="userSpaceOnUse" style="mask-type:luminance"><path fill="#fff" d="M80.572 101.141H5.377v26.194h75.195z"/></mask><g mask="url(#e)"><mask id="f" width="76" height="13" x="5" y="115" maskUnits="userSpaceOnUse" style="mask-type:luminance"><path fill="#fff" d="M5.451 115.593h74.895v11.516H5.45z"/></mask><g mask="url(#f)"><path fill="#252835" d="M7.467 125.412h64.295c4.69 0 8.506-4.39 8.506-9.786v1.618c0 5.396-3.816 9.785-8.506 9.785H7.467c-1.04 0-1.886-.973-1.886-2.17q0-.416.138-.809c.28.798.957 1.362 1.748 1.362"/></g><mask id="g" width="72" height="9" x="5" y="101" maskUnits="userSpaceOnUse" style="mask-type:luminance"><path fill="#fff" d="M5.451 101.367h71.056v8.58H5.451z"/></mask><g mask="url(#g)"><path fill="#252835" d="M7.467 102.806h64.295c2.58 0 4.657 2.324 4.73 5.29l.004.164v1.618l-.004-.165c-.073-2.966-2.15-5.289-4.73-5.289H7.467c-1.04 0-1.886-.974-1.886-2.17q0-.416.138-.809c.28.797.957 1.361 1.748 1.361"/></g></g></g><path fill="#252835" d="M60.038 104.785q.608.17 1.238.226.617.06 1.237.055l2.475.007 4.95.015 1.238.004c.205.001.416 0 .615.003l.273.017c.045.004.09.003.135.009l.403.071.262.077q.067.018.131.04l.128.053c.084.036.17.067.254.106q.25.126.482.284c.075.054.157.1.23.163l.218.182q.435.394.755.886l.082.123c.028.041.048.088.073.131l.144.264.121.278.06.138.049.146.096.29.072.3c.011.049.026.098.035.15l.022.153.047.307.019.311.01.156.004.167-.002.71-.009 5.678c-.002.467.011.977-.031 1.35a1 1 0 0 1-.019.152l-.05.305-.01.077-.02.074q-.066.3-.168.589a5 5 0 0 1-.518 1.089 5 5 0 0 1-.348.478c-.063.074-.12.157-.189.223l-.203.207a3 3 0 0 1-.216.19c-.074.059-.142.128-.221.179a4 4 0 0 1-.474.299 3.8 3.8 0 0 1-1.02.39 4 4 0 0 1-.535.074l-.271.015h-.31l-1.237-.001-4.95-.006-19.8.032-9.9.033-4.95.016-2.475.01q-1.253.005-2.475.291a.36.36 0 0 0-.195.162.35.35 0 0 0-.034.25.32.32 0 0 0 .23.264q1.22.287 2.474.291l2.475.011 4.95.016 9.9.032 19.8.032 4.95-.005 1.238-.001h.309l.347-.02q.35-.022.693-.097a5 5 0 0 0 1.32-.506 5 5 0 0 0 .608-.387c.1-.067.19-.154.285-.23q.145-.114.274-.245l.26-.265c.088-.087.162-.191.243-.286q.24-.294.444-.614a7 7 0 0 0 .88-2.165l.023-.097.016-.098.032-.197.031-.198q.018-.1.024-.2c.055-.572.033-1.013.037-1.495l-.009-5.711-.002-.713-.004-.189-.013-.199-.029-.398q-.026-.198-.059-.394l-.031-.197q-.021-.097-.045-.193l-.096-.387q-.059-.187-.124-.374l-.064-.186-.079-.18-.159-.357-.186-.339c-.032-.055-.06-.114-.095-.167l-.107-.159a5.6 5.6 0 0 0-.977-1.134l-.282-.235c-.095-.079-.199-.139-.298-.21a5 5 0 0 0-.621-.358c-.107-.05-.218-.092-.328-.137l-.164-.066q-.084-.027-.167-.05l-.338-.096c-.114-.022-.229-.039-.343-.059l-.172-.028c-.058-.008-.116-.008-.173-.012l-.346-.018c-.213-.003-.415 0-.623 0l-1.237.004-4.95.015-2.475.007a12 12 0 0 0-1.237.054q-.63.055-1.238.226a.38.38 0 0 0-.204.183.37.37 0 0 0-.029.271.34.34 0 0 0 .233.268"/><path fill="#252835" d="M17.734 122.242a6 6 0 0 0-.914-.147 9 9 0 0 0-.915-.037l-1.828-.002-3.658-.002-1.829-.001h-.914c-.08 0-.146-.001-.235.002a2 2 0 0 0-.584.09q-.144.042-.283.105a2.43 2.43 0 0 0-.953.78 2.94 2.94 0 0 0-.53 1.202 3.1 3.1 0 0 0 .234 1.958q.144.305.35.57.39.5.975.744.279.115.576.151l.148.01c.049.003.102.005.135.004h.229l1.828.001 3.658.002 7.316.004 29.259.015 14.63.007 7.315.004q.99 0 1.953-.24a8 8 0 0 0 1.837-.704 9 9 0 0 0 1.678-1.145 10 10 0 0 0 1.425-1.532 10.7 10.7 0 0 0 1.114-1.842q.474-1.001.744-2.076.275-1.089.34-2.211c.017-.187.015-.375.02-.561l.004-.141v-1.446l.001-4.208v-1.052c0-.352.004-.693-.008-1.078a12 12 0 0 0-.281-2.223 11.1 11.1 0 0 0-1.757-3.984 9.4 9.4 0 0 0-3.036-2.785 8 8 0 0 0-1.82-.767 8 8 0 0 0-1.952-.305l-.244-.007h-3.427l-58.52.032H7.472l-.073.004-.148.01a3 3 0 0 0-.295.05 2.35 2.35 0 0 0-1.06.595 2.86 2.86 0 0 0-.697 1.092q-.227.652-.174 1.342.056.681.392 1.279.32.565.861.921.52.335 1.138.353c.055.004.087.002.126.003h.8l1.83-.002 3.657-.002 14.63-.008 14.63-.008 7.314-.005 3.658-.002c.61 0 1.22-.008 1.829-.045a17 17 0 0 0 1.828-.187.4.4 0 0 0 .134-.06.397.397 0 0 0 .159-.389.36.36 0 0 0-.09-.217.35.35 0 0 0-.203-.12 17 17 0 0 0-1.828-.187c-.61-.037-1.22-.045-1.829-.045l-3.658-.002-7.314-.005-14.63-.008-14.63-.008-3.658-.002-1.829-.002h-.8c-.037 0-.08 0-.102-.002a1.2 1.2 0 0 1-.61-.189 1.44 1.44 0 0 1-.464-.498 1.7 1.7 0 0 1-.116-1.404q.121-.336.376-.588.242-.232.568-.317.079-.017.157-.027l.08-.004.04-.003h2.344l58.52.034h3.428l.213.006a6.9 6.9 0 0 1 3.274.927 8.2 8.2 0 0 1 2.642 2.419 9.65 9.65 0 0 1 1.53 3.46q.215.955.246 1.933c.01.316.008.676.008 1.026v1.051l.001 4.208v1.446l-.002.122c-.005.163-.003.327-.017.49q-.057.975-.295 1.923a10 10 0 0 1-.645 1.807 9.3 9.3 0 0 1-.97 1.605q-.55.734-1.24 1.337a7.8 7.8 0 0 1-1.462.999 6.94 6.94 0 0 1-3.303.825l-7.315.003-14.63.008-29.26.015-7.315.004-3.657.001-1.829.001H7.51l-.093-.003-.08-.005a1.281 1.281 0 0 1-.845-.487 1.69 1.69 0 0 1-.32-1.378q.061-.352.275-.638a1.5 1.5 0 0 1 .535-.445q.074-.034.153-.056a1.09 1.09 0 0 1 .32-.05c.062-.003.148-.001.221-.002h.915l7.314-.004q.458.002.915-.037.463-.037.915-.148a.5.5 0 0 0 .148-.083.463.463 0 0 0 .154-.464.42.42 0 0 0-.101-.218.42.42 0 0 0-.202-.13"/><path fill="#252835" fill-opacity=".2" d="M68.677 112.81a42 42 0 0 0-3.402-.269 73 73 0 0 0-3.403-.067 88 88 0 0 0-3.402.069c-1.133.053-2.268.115-3.403.243a.3.3 0 0 0-.234.224.3.3 0 0 0-.006.113.3.3 0 0 0 .072.181.3.3 0 0 0 .168.095c1.134.129 2.269.192 3.403.244q1.702.067 3.402.069a73 73 0 0 0 3.403-.068 42 42 0 0 0 3.402-.268.286.286 0 0 0 .215-.21.3.3 0 0 0 .005-.105.26.26 0 0 0-.066-.164.26.26 0 0 0-.154-.087"/><path fill="#f2355b" d="M71.224 100.084H2.669c-.647 0-1.218-.479-1.41-1.178C.2 95.07.215 91.209 1.263 87.324c.19-.705.764-1.188 1.414-1.188h68.49c.66 0 1.24.498 1.421 1.218 1.01 4.003 1.104 7.872.04 11.572-.199.69-.766 1.158-1.405 1.158"/><path fill="#f3ffff" fill-opacity=".33" d="M17.458 88.124q1.312-.302 2.656-.393c.885-.072 1.77-.09 2.655-.08.886.01 1.77.047 2.656.122q1.34.107 2.656.377.068.02.103.08.037.06.022.13a.16.16 0 0 1-.125.142q-1.317.27-2.656.376c-.886.075-1.77.113-2.656.123-.885.01-1.77-.009-2.655-.08q-1.342-.091-2.656-.394a.2.2 0 0 1-.117-.094.2.2 0 0 1-.022-.15.18.18 0 0 1 .14-.159M11.98 88.124q.501-.292 1.071-.393.53-.102 1.07-.08.54.012 1.07.122.562.111 1.07.377a.2.2 0 0 1 .09.114.2.2 0 0 1-.009.145.18.18 0 0 1-.08.093 4 4 0 0 1-1.07.376q-.53.11-1.07.123a4.7 4.7 0 0 1-1.07-.08 3.2 3.2 0 0 1-1.071-.394.24.24 0 0 1-.082-.308.2.2 0 0 1 .082-.095"/><path fill="#fdbf30" d="M5.537 86.136H3.984c-.728 4.85-.658 9.518.213 13.948h1.57c-.917-4.408-.994-9.078-.23-13.948M8.771 86.136H7.22c-.73 4.85-.66 9.518.211 13.948h1.57c-.917-4.408-.993-9.078-.23-13.948M68.458 100.084h1.57c.87-4.43.94-9.098.212-13.948h-1.552c.764 4.87.687 9.54-.23 13.948M65.22 100.084h1.569c.87-4.43.941-9.098.212-13.948h-1.553c.765 4.87.687 9.54-.228 13.948"/><path fill="#252835" fill-opacity=".2" d="M72.589 87.355c-.182-.72-.76-1.218-1.42-1.218h-.101c.85 3.757.878 7.392-.125 10.878-.199.69-.766 1.158-1.405 1.158H1.069q.09.366.189.733c.193.7.764 1.178 1.41 1.178h68.555c.64 0 1.207-.467 1.405-1.157 1.065-3.7.97-7.57-.04-11.572"/><path fill="#252835" d="M71.224 100.56H2.67c-.865 0-1.617-.614-1.868-1.528A22.1 22.1 0 0 1 0 93.116 22.2 22.2 0 0 1 .806 87.2c.249-.922 1.001-1.54 1.872-1.54H71.17c.874 0 1.647.648 1.881 1.578 1.065 4.223 1.076 8.2.035 11.82-.258.897-1.006 1.501-1.862 1.501M2.678 86.612c-.435 0-.819.336-.954.836a21.3 21.3 0 0 0-.58 8.524q.193 1.422.573 2.807c.137.495.52.829.952.829h68.555c.427 0 .808-.327.947-.812.995-3.457.98-7.266-.043-11.326-.127-.505-.521-.858-.959-.858z"/><path fill="#252835" d="M71.224 100.56H2.67c-.865 0-1.617-.614-1.868-1.528A22.1 22.1 0 0 1 0 93.116 22.2 22.2 0 0 1 .806 87.2c.249-.922 1.001-1.54 1.872-1.54H71.17c.874 0 1.647.648 1.881 1.578 1.065 4.223 1.076 8.2.035 11.82-.258.897-1.006 1.501-1.862 1.501M2.678 86.612c-.435 0-.819.336-.954.836a21.3 21.3 0 0 0-.58 8.524q.193 1.422.573 2.807c.137.495.52.829.952.829h68.555c.427 0 .808-.327.947-.812.995-3.457.98-7.266-.043-11.326-.127-.505-.521-.858-.959-.858z"/><path fill="#f3ffff" d="M54.84 92.833a.64.64 0 0 1-.088.314q-.09.156-.264.311a2.7 2.7 0 0 1-.437.305q-.26.15-.605.297-.345.145-.768.284t-.924.27q-.5.13-1.07.253-.572.12-1.208.233-.635.11-1.331.211a58 58 0 0 1-2.985.349q-.793.074-1.624.135-.832.06-1.693.105a90 90 0 0 1-3.52.123 101 101 0 0 1-8.802-.228 75 75 0 0 1-3.166-.297q-.748-.087-1.443-.187a46 46 0 0 1-1.332-.211 33 33 0 0 1-1.207-.233 24 24 0 0 1-1.07-.254q-.499-.13-.924-.27a10 10 0 0 1-.768-.283 6 6 0 0 1-.605-.297q-.262-.15-.437-.305a1.2 1.2 0 0 1-.264-.311.63.63 0 0 1-.088-.314q0-.158.088-.315.088-.156.264-.31.174-.156.437-.306.26-.151.605-.296.345-.146.768-.285.425-.14.924-.27.5-.131 1.07-.252.57-.123 1.207-.234.636-.111 1.332-.211.695-.1 1.443-.188a67 67 0 0 1 1.541-.161 82 82 0 0 1 3.317-.241 98 98 0 0 1 3.52-.123 110 110 0 0 1 3.59 0 97 97 0 0 1 5.213.229q.831.06 1.624.135.794.074 1.542.161a53 53 0 0 1 2.774.399q.636.112 1.208.234.57.12 1.07.252.499.13.924.27.423.139.768.285t.605.296q.261.15.437.305.175.155.264.31.088.158.088.316"/><path fill="#252835" fill-opacity=".2" d="M60.11 120.485a.63.63 0 0 1-.184.444.6.6 0 0 1-.205.136.6.6 0 0 1-.48 0 .62.62 0 0 1-.34-.339.63.63 0 0 1 .136-.687.62.62 0 0 1 .684-.135.62.62 0 0 1 .389.581"/><path fill="#c6eef0" d="m68.543 78.336-17.23-21.249a4.8 4.8 0 0 1-.81-1.445 4.8 4.8 0 0 1-.281-1.634v-18.43H40.196v18.43q0 .84-.281 1.634a4.8 4.8 0 0 1-.81 1.445l-17.23 21.249c-2.483 3.23-.08 7.8 4.1 7.8h38.47c4.18 0 6.58-4.57 4.098-7.8"/><path fill="#252835" fill-opacity=".2" d="m23.35 78.846 17.23-21.248q.53-.653.811-1.447a4.9 4.9 0 0 0 .28-1.633v-18.43h8.55v-.51H40.197v18.43q0 .841-.282 1.634a4.8 4.8 0 0 1-.81 1.445l-17.23 21.249c-2.277 2.964-.442 7.052 3.104 7.707-2.53-1.346-3.563-4.678-1.628-7.197"/><path fill="#fdbf30" d="M57.285 70.087c-1.294-.24-2.78-.011-3.893.321-1.658.497-3.228 1.374-4.956 1.49-2.977.2-5.58-1.865-8.427-2.76a11 11 0 0 0-2.533-.475q-1.294-.09-2.574.119c-.942.154-1.998.312-2.664 1.002-.403.418-.746.92-1.112 1.371l-3.014 3.717-4.145 5.111a2.02 2.02 0 0 0-.212 2.17c.405.825 1.234 1.317 2.217 1.317h38.47c.98 0 1.81-.492 2.216-1.317a2.013 2.013 0 0 0 .074-1.673 2 2 0 0 0-.286-.497l-4.314-5.32c-.973-1.2-1.889-2.676-3.021-3.725a3.54 3.54 0 0 0-1.826-.852"/><path fill="#252835" fill-opacity=".2" d="M28.195 82.404c-.98 0-1.81-.492-2.216-1.317a2.03 2.03 0 0 1 .212-2.17l4.146-5.112 3.013-3.716c.32-.394.626-.825.966-1.207-.77.14-1.547.353-2.078.902-.403.418-.745.92-1.112 1.372l-3.014 3.716-4.145 5.111a2.04 2.04 0 0 0-.397 1.628q.054.285.184.542c.406.825 1.235 1.317 2.218 1.317h38.47a2.44 2.44 0 0 0 1.173-.267 2.4 2.4 0 0 0 .899-.8z"/><path fill="#252835" d="M64.445 86.612h-38.47c-2.173 0-4.102-1.176-5.034-3.07a5.1 5.1 0 0 1-.524-2.83 5 5 0 0 1 .35-1.41q.136-.339.321-.654.182-.315.41-.602l17.238-21.259q.477-.59.73-1.305.254-.716.255-1.475V35.102h10.977v18.906q0 .759.255 1.474.252.715.73 1.305L68.92 78.046a5 5 0 0 1 .732 1.255 5.2 5.2 0 0 1 .35 1.411 5.15 5.15 0 0 1-.243 2.157 5 5 0 0 1-.281.673c-.932 1.894-2.86 3.07-5.033 3.07M40.673 36.055v17.953q-.001.923-.31 1.793a5.4 5.4 0 0 1-.888 1.587l-17.23 21.248a4.2 4.2 0 0 0-.595 1.025 4.1 4.1 0 0 0-.285 1.151 4.2 4.2 0 0 0 .2 1.761q.095.282.229.548c.771 1.567 2.373 2.54 4.18 2.54h38.47c1.808 0 3.41-.974 4.18-2.54a4 4 0 0 0 .38-1.125 4.2 4.2 0 0 0 .049-1.186 4.2 4.2 0 0 0-.286-1.153 4.1 4.1 0 0 0-.596-1.026L50.945 57.387a5.3 5.3 0 0 1-.889-1.587 5.4 5.4 0 0 1-.31-1.792V36.054z"/><path fill="#c6eef0" d="M39.377 32.676h11.66q.238 0 .472.047a2.42 2.42 0 0 1 1.904 1.905q.047.234.047.473v.131a2.4 2.4 0 0 1-.184.929 2.45 2.45 0 0 1-.893 1.088 2.4 2.4 0 0 1-1.347.409h-11.66a2.44 2.44 0 0 1-1.345-.409 2.5 2.5 0 0 1-.368-.301A2.448 2.448 0 0 1 37 35.706a2.4 2.4 0 0 1-.047-.474v-.131a2.43 2.43 0 0 1 1.497-2.24 2.4 2.4 0 0 1 .927-.185"/><path fill="#252835" fill-opacity=".2" d="M51.436 36.586h-10.53q-.216 0-.428-.041a2.163 2.163 0 0 1-1.121-.6 2.2 2.2 0 0 1-.475-.711 2.2 2.2 0 0 1-.166-.838v-.12q0-.455.182-.873.183-.417.517-.727h-.038q-.239 0-.473.047a2.4 2.4 0 0 0-.873.361 2.4 2.4 0 0 0-.893 1.089 2.4 2.4 0 0 0-.185.928v.132a2.43 2.43 0 0 0 1.078 2.016 2.4 2.4 0 0 0 1.346.409h11.66a2.427 2.427 0 0 0 2.423-2.425v-.004a2.2 2.2 0 0 1-.806.987 2.2 2.2 0 0 1-1.218.37"/><path fill="#252835" d="M42.339 38.006c-.77.228-1.541.163-2.312.177l-.578.001h-.073l-.087-.003-.175-.009a2.93 2.93 0 0 1-1.867-.892 2.93 2.93 0 0 1-.782-1.551 2.3 2.3 0 0 1-.038-.35c-.003-.057-.008-.123-.008-.17 0-.052-.002-.09.002-.153a3 3 0 0 1 .2-1.037 2.97 2.97 0 0 1 1.385-1.549 3 3 0 0 1 1.006-.316c.117-.018.236-.017.353-.025h.292l.578-.003 2.312-.006 4.623-.009 2.311.008 1.156.005c.201.002.362-.007.617.012a2.96 2.96 0 0 1 2.368 1.502 3 3 0 0 1 .37 1.264l.008.177v.149c-.006.114-.008.233-.022.35q-.089.713-.488 1.31a3 3 0 0 1-1.035.937q-.63.339-1.348.355l-2.323-.005c-1.541-.025-3.083.063-4.624-.195a.32.32 0 0 1-.195-.111.32.32 0 0 1-.077-.21q0-.12.077-.211a.32.32 0 0 1 .195-.111c1.54-.259 3.083-.17 4.624-.195l2.3-.01q.459-.015.864-.234.399-.226.66-.607a1.9 1.9 0 0 0 .305-.837c.009-.075.008-.15.013-.226l-.002-.141-.006-.113a1.86 1.86 0 0 0-.397-1.03 1.9 1.9 0 0 0-.907-.629c-.29-.096-.555-.09-.977-.086l-1.156.004-2.311.008-4.624-.009-2.311-.006-.578-.002h-.287c-.074.008-.15.002-.224.016a1.875 1.875 0 0 0-1.651 1.832c-.004.032-.002.092-.003.136 0 .049.005.079.006.119q.001.113.023.224.037.222.124.43.18.423.535.717.355.293.805.39.11.021.223.033l.114.007.056.003h.072l.577.002c.771.014 1.542-.051 2.312.176q.117.035.188.132a.35.35 0 0 1 .072.217q0 .12-.072.217a.35.35 0 0 1-.188.131"/><path fill="#f3ffff" fill-opacity=".5" d="M57.529 74.372c.798-.296 1.555-.756 2.084-1.424l.007-.008a1.2 1.2 0 0 0 .25-.8 1.2 1.2 0 0 0-.326-.772 9 9 0 0 0-.43-.43 3.54 3.54 0 0 0-1.828-.85c-1.293-.241-2.78-.012-3.892.32-1.659.497-3.229 1.374-4.956 1.49a7.1 7.1 0 0 1-2.579-.336c.801.624 1.784 1.05 2.701 1.419 2.764 1.112 5.998 2.494 8.969 1.391"/><path fill="#252835" d="M50.439 73.556q.504.047.983.21.48.146.918.394a.2.2 0 0 1 .079.093q.024.06.006.12a.19.19 0 0 1-.183.138 3.2 3.2 0 0 1-1.004-.198 3.4 3.4 0 0 1-.909-.467.15.15 0 0 1-.062-.107.16.16 0 0 1 .03-.12.16.16 0 0 1 .142-.063M46.114 71.234a15 15 0 0 0 1.741 1.076c.621.323 1.272.634 1.905.972l.001.001q.057.03.08.091.022.06-.002.12a.16.16 0 0 1-.082.087.16.16 0 0 1-.12.01q-.518-.145-1.032-.305a17 17 0 0 1-1.03-.345 9 9 0 0 1-1.018-.437 5 5 0 0 1-.953-.614.4.4 0 0 1-.15-.273.42.42 0 0 1 .201-.408.4.4 0 0 1 .309-.046q.079.02.145.068z"/><path fill="#252835" d="M64.443 83.898h-38.47c-1.15 0-2.121-.581-2.601-1.555a2.47 2.47 0 0 1-.254-1.345 2.45 2.45 0 0 1 .508-1.272l.01-.013 7.158-8.827q.179-.223.353-.453.366-.495.784-.947c.75-.776 1.86-.957 2.839-1.117l.063-.01a11.563 11.563 0 0 1 5.306.37c1.01.317 1.99.778 2.936 1.223 1.797.844 3.493 1.642 5.334 1.518 1.084-.073 2.103-.463 3.183-.878a24 24 0 0 1 1.678-.595c.678-.203 2.432-.64 4.093-.332.835.155 1.521.477 2.04.958.788.73 1.466 1.647 2.121 2.533.323.437.627.849.941 1.237l4.325 5.333a2.46 2.46 0 0 1 .254 2.617c-.48.974-1.453 1.555-2.601 1.555m-40.137-3.652a1.59 1.59 0 0 0-.166 1.718c.332.674 1.017 1.078 1.832 1.078h38.47c.816 0 1.501-.404 1.833-1.078a1.58 1.58 0 0 0 .063-1.324 1.6 1.6 0 0 0-.23-.393L61.8 74.933c-.327-.403-.652-.842-.966-1.266-.631-.855-1.284-1.74-2.014-2.414a3.1 3.1 0 0 0-1.614-.745c-1.477-.275-3.074.126-3.691.312-.54.16-1.089.37-1.618.573-1.091.418-2.22.85-3.431.932-2.063.138-3.94-.744-5.755-1.597-.922-.433-1.875-.881-2.83-1.181a10.74 10.74 0 0 0-4.91-.342l-.064.01c-.889.145-1.809.295-2.36.867a10 10 0 0 0-.72.872q-.182.241-.369.472z"/><path fill="#252835" fill-opacity=".2" d="M38.235 75.214a1.6 1.6 0 0 1-.117.586 1.52 1.52 0 0 1-.827.828 1.6 1.6 0 0 1-.586.116 1.55 1.55 0 0 1-.85-.257 1.541 1.541 0 0 1-.65-1.571q.03-.148.088-.287.057-.14.141-.264a1.5 1.5 0 0 1 .686-.564 1.5 1.5 0 0 1 .585-.117 1.6 1.6 0 0 1 .586.117 1.525 1.525 0 0 1 .944 1.413M50.93 78.154a1.53 1.53 0 0 1-.944 1.413 1.5 1.5 0 0 1-.586.117 1.54 1.54 0 0 1-.85-.258 1.5 1.5 0 0 1-.421-.422 1.502 1.502 0 0 1-.258-.85 1.6 1.6 0 0 1 .117-.586q.056-.138.14-.264a1.54 1.54 0 0 1 .687-.564 1.54 1.54 0 0 1 1.17 0q.14.058.264.142a1.5 1.5 0 0 1 .423.422 1.6 1.6 0 0 1 .228.55q.03.15.03.3"/><path fill="#fdbf30" d="M44.902 63.87a2.6 2.6 0 0 1-.197.99 2.6 2.6 0 0 1-.56.837 2.5 2.5 0 0 1-.838.56 2.6 2.6 0 0 1-.988.197 2.6 2.6 0 0 1-.989-.197 2.5 2.5 0 0 1-.446-.239 2.5 2.5 0 0 1-.713-.712 2.6 2.6 0 0 1-.385-.932 2.5 2.5 0 0 1 0-1.008 2.58 2.58 0 0 1 4.36-1.323 2.58 2.58 0 0 1 .756 1.827M51.56 67.261a1.1 1.1 0 0 1-.492.92 1.08 1.08 0 0 1-.83.166 1.1 1.1 0 0 1-.398-.167 1.095 1.095 0 0 1-.491-.92 1.11 1.11 0 0 1 .682-1.021 1.13 1.13 0 0 1 .64-.063 1.2 1.2 0 0 1 .397.165 1.1 1.1 0 0 1 .306.305 1.1 1.1 0 0 1 .164.4q.022.105.022.215M47.919 57.401a2.1 2.1 0 0 1-.16.801 2.123 2.123 0 0 1-.77.939 2.2 2.2 0 0 1-.753.312 2.1 2.1 0 0 1-.816 0 2.119 2.119 0 0 1-1.07-.573 2.1 2.1 0 0 1-.454-.678 2.1 2.1 0 0 1-.16-.8 2.1 2.1 0 0 1 .16-.802 2.1 2.1 0 0 1 .453-.678 2.1 2.1 0 0 1 .679-.453q.19-.08.392-.12a2.1 2.1 0 0 1 .816 0q.202.04.392.12A2.1 2.1 0 0 1 47.76 56.6q.078.191.119.393t.04.408"/><path fill="#252835" fill-opacity=".2" d="M39.734 77.83a.6.6 0 0 1-.044.22.56.56 0 0 1-.313.315.58.58 0 1 1 .357-.536M45.607 74.24a.577.577 0 0 1-.58.58.58.58 0 0 1-.535-.358.577.577 0 0 1 .314-.757.56.56 0 0 1 .443 0 .57.57 0 0 1 .314.313q.044.107.044.222M30.101 80.551a.58.58 0 0 1-.357.536.58.58 0 0 1-.632-.126.6.6 0 0 1-.125-.188.567.567 0 0 1 .125-.632.58.58 0 0 1 .632-.125.58.58 0 0 1 .313.313q.044.108.044.222"/></g></svg>