<svg xmlns="http://www.w3.org/2000/svg" width="99" height="98" fill="none" viewBox="0 0 99 98"><path fill="#b6332f" fill-rule="evenodd" d="M39.082 52.382h21.242c5.223 0 9.494 4.276 9.494 9.499v19.662H29.58V61.88c0-5.223 4.277-9.5 9.502-9.5" clip-rule="evenodd"/><path fill="#f94640" fill-rule="evenodd" d="M40.626 52.382h18.15c6.074 0 11.04 4.276 11.04 9.499v9.552c-4.026 1.714-8.818 2.432-13.951 1.857-11.118-1.24-20.6-8.168-24.29-16.835 2.001-2.457 5.313-4.073 9.05-4.073" clip-rule="evenodd"/><path fill="#ff8281" fill-rule="evenodd" d="M49.7 30.983c5.913 0 10.706 4.791 10.706 10.704 0 5.905-4.793 10.697-10.705 10.697-5.913 0-10.706-4.792-10.706-10.697.002-5.913 4.795-10.704 10.706-10.704" clip-rule="evenodd"/><path fill="#666" fill-rule="evenodd" d="m26.166 43.577-1.133 4.156c-1.12 4.133-10.909 4.528-12.143 0l-1.133-4.156a1 1 0 0 0 .121.007h14.168c.041 0 .077 0 .12-.007" clip-rule="evenodd"/><path fill="#b3b3b3" fill-rule="evenodd" d="M10.35 38.169h17.223c1.431 0 2.6 1.168 2.6 2.598v1.143a2.605 2.605 0 0 1-2.6 2.6H10.351a2.605 2.605 0 0 1-2.6-2.6v-1.143a2.6 2.6 0 0 1 2.6-2.599" clip-rule="evenodd"/><path fill="#ffa203" fill-rule="evenodd" d="M18.964 1.479c9.38 0 16.988 7.607 16.988 16.992 0 6.33-5.642 11.935-8.597 19.71h-16.79c-2.947-7.773-8.595-13.38-8.595-19.71 0-9.385 7.607-16.992 16.994-16.992" clip-rule="evenodd"/><path fill="#fc0" fill-rule="evenodd" d="M18.965 1.479c9.38 0 16.988 7.607 16.988 16.992 0 4.988-3.504 9.529-6.432 15.032-12.682-1.472-22.614-12.696-23.094-26.5a16.94 16.94 0 0 1 12.538-5.524" clip-rule="evenodd"/><path fill="#dd6e42" d="M11.386 68.414v-5.462c0-2.007.719-3.594 1.881-4.73 1.247-1.215 2.942-1.832 4.774-1.832h11.722c1.832 0 3.533.617 4.78 1.831 1.162 1.14 1.875 2.726 1.875 4.731v5.462H31.1v-5.462c0-.454-.107-.76-.28-.927-.216-.21-.594-.317-1.055-.317H18.04c-.46 0-.84.107-1.055.317-.173.167-.274.473-.274.927v5.462z"/><path fill="#dd6e42" fill-rule="evenodd" d="M3.66 66.929h40.487a2.19 2.19 0 0 1 2.182 2.18v25.232a2.19 2.19 0 0 1-2.182 2.18H3.66a2.19 2.19 0 0 1-2.18-2.18V69.109a2.19 2.19 0 0 1 2.18-2.18" clip-rule="evenodd"/><path fill="#9e4521" fill-rule="evenodd" d="M4.93 66.929h37.947l-4.283 13.445H9.217z" clip-rule="evenodd"/><path fill="#8c3f0a" fill-rule="evenodd" d="M18.253 75.948h11.304v9.128H18.253z" clip-rule="evenodd"/><path fill="#ffa203" fill-rule="evenodd" d="m62.07 7.978 3.116 6.278 6.931 1.022-5.008 4.9 1.174 6.904-6.213-3.245-6.213 3.245 1.176-6.904-5.009-4.9 6.932-1.022z" clip-rule="evenodd"/><path fill="#fc0" fill-rule="evenodd" d="m62.07 7.978 3.116 6.278 6.931 1.024-5.008 4.9.245 1.437c-.108 0-.215.006-.324.006-4.211 0-7.835-2.952-9.404-7.169l1.33-.198z" clip-rule="evenodd"/><path fill="#ffa203" fill-rule="evenodd" d="m80.06 29.077 3.114 6.277 6.931 1.019-5.008 4.905 1.175 6.906-6.213-3.246-6.21 3.246 1.172-6.906-5.006-4.905 6.929-1.019z" clip-rule="evenodd"/><path fill="#fc0" fill-rule="evenodd" d="m80.058 29.077 3.114 6.277 6.932 1.019-5.009 4.905.245 1.431q-.16.007-.323.006c-4.218 0-7.835-2.947-9.404-7.168l1.33-.193z" clip-rule="evenodd"/><path fill="#ffa203" fill-rule="evenodd" d="m86.529 55.868 3.115 6.275 6.932 1.025-5.009 4.9 1.173 6.904-6.211-3.245-6.213 3.245 1.175-6.905-5.008-4.9 6.931-1.024z" clip-rule="evenodd"/><path fill="#fc0" fill-rule="evenodd" d="m86.53 55.868 3.115 6.277 6.931 1.025-5.008 4.9.245 1.436c-.108 0-.216.007-.324.007-4.218 0-7.836-2.952-9.404-7.17l1.33-.198z" clip-rule="evenodd"/><mask id="a" width="100" height="100" x="-1" y="-1" maskUnits="userSpaceOnUse" style="mask-type:luminance"><path fill="#fff" d="M-.006-.049h98.083V98.04H-.006z"/></mask><g mask="url(#a)"><path fill="#222" d="m87.853 55.215 2.768 5.582 6.171.91c1.257.18 1.689 1.714.76 2.57l-4.397 4.306 1.042 6.15a1.476 1.476 0 0 1-2.223 1.503l-5.446-2.845-5.529 2.887c-1.084.568-2.33-.36-2.131-1.545h-.007l1.042-6.15-4.457-4.365c-.875-.856-.378-2.337.82-2.51l6.17-.91 2.77-5.583c.544-1.103 2.115-1.084 2.647 0m.467 7.581-1.792-3.61-1.76 3.544a1.48 1.48 0 0 1-1.14.875l-3.99.587 2.841 2.78c.359.322.552.818.467 1.334l-.676 3.983 3.575-1.868a1.47 1.47 0 0 1 1.365 0l3.576 1.868-.676-3.983a1.48 1.48 0 0 1 .425-1.293l2.88-2.82-3.99-.588a1.5 1.5 0 0 1-1.105-.809m-6.936-34.372L84.153 34l6.17.91c1.258.187 1.689 1.714.761 2.576l-4.397 4.3 1.041 6.15a1.479 1.479 0 0 1-2.223 1.509l-5.446-2.85-5.528 2.892c-1.084.562-2.331-.36-2.132-1.544l-.007-.007 1.042-6.15-4.456-4.36c-.875-.857-.379-2.338.82-2.511v-.006l6.17-.91 2.769-5.577c.544-1.105 2.115-1.082 2.647.002m.467 7.577-1.792-3.605-1.76 3.545c-.198.45-.617.797-1.14.875l-3.989.587 2.84 2.773c.36.33.552.826.468 1.342L75.8 45.5l3.576-1.867a1.47 1.47 0 0 1 1.365 0l3.576 1.867-.677-3.982a1.48 1.48 0 0 1 .425-1.293l2.88-2.822-3.99-.587v-.006a1.46 1.46 0 0 1-1.105-.81M63.394 7.326l2.769 5.582 6.17.91c1.258.18 1.69 1.714.761 2.57l-4.397 4.306 1.041 6.15a1.476 1.476 0 0 1-2.223 1.502l-5.446-2.844-5.528 2.886c-1.077.569-2.33-.359-2.132-1.544h-.006l1.041-6.15-4.456-4.366c-.869-.856-.373-2.335.82-2.51l6.17-.91 2.769-5.582c.547-1.104 2.114-1.085 2.647 0m.47 7.583-1.793-3.611-1.76 3.545a1.47 1.47 0 0 1-1.139.875l-3.99.587 2.84 2.779c.36.323.552.819.468 1.335l-.677 3.983 3.576-1.869a1.47 1.47 0 0 1 1.365 0l3.576 1.869-.676-3.983c-.073-.455.065-.94.424-1.294l2.88-2.82-3.989-.587a1.5 1.5 0 0 1-1.106-.81M16.772 85.076v-3.222H9.219A1.48 1.48 0 0 1 7.77 80.69L3.86 68.407c-.271 0-.474-.013-.69.203a.7.7 0 0 0-.209.497v25.232c0 .382.317.7.702.7H44.15a.706.706 0 0 0 .702-.7v-25.23a.707.707 0 0 0-.702-.702h-.192l-3.96 12.416a1.48 1.48 0 0 1-1.401 1.024v.007h-7.56v3.222c0 .82-.665 1.479-1.479 1.479H18.255c-.816 0-1.481-.657-1.481-1.479m0-6.18v-2.948c0-.82.665-1.478 1.479-1.478h11.304a1.48 1.48 0 0 1 1.478 1.478v2.947h6.482l3.35-10.486H6.95l3.343 10.486zm2.96-1.473V83.6h8.345v-6.176zM3.66 65.45h6.253c0-1.995-.156-3.804.581-5.667 1.24-3.12 4.248-4.874 7.549-4.874h11.721c.275 0 .552.012.82.036 2.073-2.52 5.163-4.042 8.496-4.042h2.66c-5.355-4.623-5.667-12.823-.653-17.83 4.757-4.763 12.473-4.763 17.227 0 5.008 5.007 4.702 13.204-.659 17.83h2.664c6.038 0 10.974 4.935 10.974 10.978v19.662c0 .82-.659 1.479-1.478 1.479H47.809V94.34A3.664 3.664 0 0 1 44.149 98H3.66A3.67 3.67 0 0 1 0 94.34V69.11a3.67 3.67 0 0 1 3.66-3.66m9.207 0h2.367v-2.498c0-1.756 1.097-2.725 2.809-2.725h11.721c.774 0 1.552.216 2.09.743.516.497.726 1.235.726 1.982v2.498h2.36v-2.498c0-3.137-2.198-5.085-5.176-5.085H18.043c-3.02 0-5.176 1.981-5.176 5.085zm5.326 0h9.909v-2.265h-9.91zm19.707 0h6.247a3.664 3.664 0 0 1 3.66 3.659v10.955h9.142V68.35a1.479 1.479 0 1 1 2.959 0v11.715h8.427V61.881c0-4.407-3.605-8.02-8.016-8.02H39.082a7.97 7.97 0 0 0-5.296 2.007c2.648 1.394 4.114 4.055 4.114 7.084zM20.53 36.69V20.328c0-.131.012-.258.048-.383a4.33 4.33 0 0 1 1.444-2.448c2.57-2.18 6.51-.695 7.05 2.592a1.477 1.477 0 0 1-1.216 1.695 1.48 1.48 0 0 1-1.694-1.221c-.167-1.042-1.431-1.492-2.234-.814-.21.18-.372.425-.444.705v16.238h2.88c1.156-2.785 2.593-5.266 3.954-7.613 2.187-3.76 4.157-7.163 4.157-10.606 0-8.566-6.942-15.513-15.509-15.513-8.571 0-15.515 6.947-15.515 15.513 0 3.443 1.975 6.845 4.156 10.606 1.366 2.347 2.805 4.828 3.96 7.613h2.877V20.454c-.06-.486-.653-1.03-1.323-1.03-.677 0-1.247.486-1.355 1.139a1.474 1.474 0 1 1-2.91-.474c.54-3.287 4.486-4.773 7.056-2.592a4.32 4.32 0 0 1 1.443 2.448c.03.128.049.252.049.383V36.69zM18.965 0c10.2 0 18.467 8.272 18.467 18.47 0 4.222-2.161 7.953-4.558 12.086-1.198 2.06-2.456 4.222-3.486 6.558a4.09 4.09 0 0 1 2.262 3.653v1.143a4.086 4.086 0 0 1-4.078 4.078h-.533l-.574 2.132c-1.522 5.57-13.37 6-15 0l-.581-2.132h-.533a4.086 4.086 0 0 1-4.078-4.078v-1.143c0-1.576.904-2.97 2.263-3.653-1.031-2.336-2.288-4.498-3.48-6.564C2.66 26.423.491 22.692.491 18.47.492 8.273 8.763 0 18.966 0m8.535 39.65q-.071.008-.144.006v.006L10.35 39.65c-.61 0-1.12.51-1.12 1.12v1.142c0 .611.51 1.12 1.12 1.12h17.223c.617 0 1.12-.509 1.12-1.12V40.77c0-.637-.49-1.12-1.192-1.12m-3.523 6.34H13.952l.366 1.355c.45 1.642 2.912 2.174 4.558 2.167 1.652-.013 4.313-.629 4.732-2.167zm32.246-10.828c-3.605-3.604-9.446-3.604-13.047 0a9.22 9.22 0 0 0 0 13.038c3.601 3.605 9.44 3.605 13.047 0 3.601-3.598 3.601-9.438 0-13.038"/></g></svg>