<svg xmlns="http://www.w3.org/2000/svg" width="94" height="94" fill="none" viewBox="0 0 94 94"><path fill="#d15b7b" d="M2.514.636h68.951v91.329H2.514z"/><path fill="#30a5f8" fill-rule="evenodd" d="M9.038 49.874V39.726c0-4.833 3.385-8.794 7.515-8.794H31.37c4.131 0 7.514 3.96 7.514 8.794v10.148z" clip-rule="evenodd"/><path fill="#ffbe82" fill-rule="evenodd" d="M23.959 16.122a7.4 7.4 0 0 1 2.15.318 7.3 7.3 0 0 1 1.34.555 7.6 7.6 0 0 1 1.208.808 7.3 7.3 0 0 1 1.026 1.026 7.2 7.2 0 0 1 .806 1.207 7.3 7.3 0 0 1 .557 1.34 7.5 7.5 0 0 1 .283 1.425 7.4 7.4 0 0 1-.529 3.559 8 8 0 0 1-.31.658q-.172.32-.374.623a7.4 7.4 0 0 1-2.043 2.043 7.5 7.5 0 0 1-1.964.929 7.2 7.2 0 0 1-1.424.283 7.4 7.4 0 0 1-3.56-.528 7.3 7.3 0 0 1-1.28-.684 7.284 7.284 0 0 1-1.61-1.46 7.4 7.4 0 0 1-1.54-3.252 7.3 7.3 0 0 1-.141-1.445q0-.364.036-.726a7.37 7.37 0 0 1 1.645-3.971 7.3 7.3 0 0 1 1.61-1.46 7.3 7.3 0 0 1 1.28-.684 7.4 7.4 0 0 1 2.834-.564" clip-rule="evenodd"/><path fill="#72818b" fill-rule="evenodd" d="M17.682 11.724H30.24a.6.6 0 0 1 .427.166.592.592 0 0 1 .188.417v7.332c0 .317-.296.468-.615.583a18.1 18.1 0 0 1-6.278 1.124 18.1 18.1 0 0 1-6.279-1.124c-.317-.115-.614-.266-.614-.583v-7.332a.6.6 0 0 1 .187-.417.6.6 0 0 1 .427-.166" clip-rule="evenodd"/><path fill="#72818b" fill-rule="evenodd" d="m12.291 11.61 11.33-3.862q.459-.088.9.073l10.891 3.716c.307.104.406.244.218.306l-11.328 3.862a1.7 1.7 0 0 1-.9-.072l-10.893-3.717c-.306-.104-.405-.244-.218-.307" clip-rule="evenodd"/><path fill="#3c6" fill-rule="evenodd" d="M71.528 59.075c1.628 8.486 4.631 16.502 9.898 22.528l4.085 4.684-1.046-8.992 8.441-1.036.114-.155-4.085-4.68c-2.873-3.293-4.714-7.69-5.901-12.348z" clip-rule="evenodd"/><path fill="#3c6" fill-rule="evenodd" d="M74.145 59.075c-1.625 8.486-4.632 16.502-9.893 22.528l-4.085 4.684 1.046-8.993-8.44-1.036-.12-.155 4.09-4.68c2.874-3.293 4.715-7.69 5.896-12.348z" clip-rule="evenodd"/><path fill="#44bc59" fill-rule="evenodd" d="m74.899 37.838 1.202 1.067q.254.231.552.4a3.08 3.08 0 0 0 1.977.375l1.947-.245a3.19 3.19 0 0 1 3.492 2.31l.436 1.546a3.1 3.1 0 0 0 .628 1.202q.22.264.494.471.273.208.585.35l1.77.844a3.19 3.19 0 0 1 1.829 2.703 3.2 3.2 0 0 1-.138 1.127l-.473 1.54a3.1 3.1 0 0 0 .041 2.013q.119.32.302.61l1.036 1.67q.153.242.258.508a3.1 3.1 0 0 1 .227 1.112q.008.285-.038.568a3.16 3.16 0 0 1-.696 1.54 3 3 0 0 1-.4.404l-1.23 1.04a3.1 3.1 0 0 0-.83 1.073 3.1 3.1 0 0 0-.297 1.322l-.037 1.96a3.16 3.16 0 0 1-.467 1.626 3.3 3.3 0 0 1-.754.848 3.2 3.2 0 0 1-1.558.655l-1.597.213a3.1 3.1 0 0 0-1.278.448 3.1 3.1 0 0 0-.965.951l-1.088 1.635a3.22 3.22 0 0 1-1.807 1.312 3.2 3.2 0 0 1-1.13.106 3.163 3.163 0 0 1-1.095-.295l-1.458-.686a3.1 3.1 0 0 0-2.644-.031l-1.8.785a3.1 3.1 0 0 1-1.102.267 3.18 3.18 0 0 1-2.133-.658 3.2 3.2 0 0 1-.76-.842l-.86-1.363a3.1 3.1 0 0 0-.94-.978 3 3 0 0 0-.607-.312 3 3 0 0 0-.66-.173l-1.935-.307a3.18 3.18 0 0 1-1.95-1.096 3.17 3.17 0 0 1-.709-1.536 3 3 0 0 1-.042-.568l.016-1.608a3.16 3.16 0 0 0-.265-1.331 3.1 3.1 0 0 0-.805-1.092l-1.457-1.307a3.18 3.18 0 0 1-.542-4.152l.885-1.342a3.2 3.2 0 0 0 .495-1.262 3.1 3.1 0 0 0-.083-1.35l-.526-1.896a3.2 3.2 0 0 1-.106-1.13q.023-.285.098-.56a3.15 3.15 0 0 1 .857-1.459 3.2 3.2 0 0 1 .94-.634l1.473-.655a3.1 3.1 0 0 0 1.76-1.973l.583-1.873a3.2 3.2 0 0 1 .519-1.01 3.1 3.1 0 0 1 .84-.763 3.17 3.17 0 0 1 2.19-.444l1.592.245a3.1 3.1 0 0 0 1.988-.327q.302-.162.562-.387l1.504-1.26q.217-.183.466-.327a3.2 3.2 0 0 1 1.069-.383q.281-.047.567-.042a3.15 3.15 0 0 1 1.625.47q.244.15.457.34" clip-rule="evenodd"/><path fill="#fdbf00" fill-rule="evenodd" d="M72.84 65.762a10.7 10.7 0 0 0 3.093-.46 10.8 10.8 0 0 0 1.93-.8 10.7 10.7 0 0 0 2.51-1.863q.372-.37.703-.775.332-.405.622-.84a10.6 10.6 0 0 0 1.337-2.827 10.6 10.6 0 0 0 .407-2.049 10.7 10.7 0 0 0-.409-4.138 10.8 10.8 0 0 0-.8-1.929 10.62 10.62 0 0 0-3.478-3.836 10.5 10.5 0 0 0-1.843-.984q-.484-.2-.985-.352a10.7 10.7 0 0 0-3.093-.457 10.7 10.7 0 0 0-4.078.812 10.66 10.66 0 0 0-6.365 11.925q.103.511.256 1.013a10.6 10.6 0 0 0 1.962 3.662 10.67 10.67 0 0 0 8.23 3.899z" clip-rule="evenodd"/><path fill="#222" d="M39.972 15.184h23.183a1.3 1.3 0 0 0 .492-.098q.117-.048.222-.12a1.26 1.26 0 0 0 .474-.575 1.29 1.29 0 0 0-.474-1.562 1.3 1.3 0 0 0-.463-.192 1.3 1.3 0 0 0-.251-.024H39.972a1.3 1.3 0 0 0-.492.098 1.285 1.285 0 0 0 .492 2.473M39.973 26.216h23.182a1.28 1.28 0 0 0 1.171-.798 1.2 1.2 0 0 0 .097-.487 1.29 1.29 0 0 0-1.02-1.258 1.3 1.3 0 0 0-.248-.028H39.972a1.285 1.285 0 0 0 0 2.57M39.738 49.316V39.17c0-5.558-3.948-10.08-8.8-10.08h-1.242a8.7 8.7 0 0 0 1.502-2.026 8.6 8.6 0 0 0 1.013-3.627 8.7 8.7 0 0 0-.621-3.714q.12-.31.118-.641v-5.247l3.9-1.328q.209-.066.388-.19.18-.127.31-.303.133-.176.203-.384.07-.207.072-.427c0-.312-.113-1.076-1.184-1.44L24.502 6.046c-.164-.055-1.023-.322-1.732-.072l-11.321 3.86a1.4 1.4 0 0 0-.696.494 1.35 1.35 0 0 0-.27.809c0 .311.112 1.077 1.183 1.439l3.688 1.26v5.246q-.002.33.118.64-.239.587-.388 1.203-.15.615-.208 1.247a8.66 8.66 0 0 0 2.49 6.918h-1.242c-4.852 0-8.8 4.522-8.8 10.08v10.147a1.3 1.3 0 0 0 .098.492 1.3 1.3 0 0 0 .28.417 1.27 1.27 0 0 0 .657.352q.123.025.25.025h29.844q.127 0 .25-.025a1.25 1.25 0 0 0 .463-.192 1.3 1.3 0 0 0 .356-.354 1.3 1.3 0 0 0 .191-.464 1.3 1.3 0 0 0 .025-.25M15.5 11.168l7.991-2.724a1 1 0 0 1 .183.036l7.883 2.689-7.99 2.723a1 1 0 0 1-.187-.034zm7.994 10.902q3.012-.01 5.885-.911a6 6 0 0 1 .237 2.466 6 6 0 0 1-.105.65 6.18 6.18 0 0 1-1.09 2.374 6 6 0 0 1-.9.959 6.1 6.1 0 0 1-2.298 1.242 6.15 6.15 0 0 1-2.608.17 6 6 0 0 1-1.27-.333 6 6 0 0 1-1.17-.598 6.1 6.1 0 0 1-1.451-1.327 5.986 5.986 0 0 1-.955-1.718 5.985 5.985 0 0 1-.362-1.933 6.4 6.4 0 0 1 .11-1.309q.062-.324.16-.638 2.839.9 5.817.906m-5.572-3.531v-3.827l4.636 1.581q.51.167 1.045.17.35.005.682-.099l4.852-1.653v3.824a16.65 16.65 0 0 1-11.215.004M37.167 48.03h-4.735v-8.743a1.3 1.3 0 0 0-.098-.491 1.29 1.29 0 0 0-.696-.696 1.3 1.3 0 0 0-.492-.097 1.2 1.2 0 0 0-.491.097 1.3 1.3 0 0 0-.578.473 1.4 1.4 0 0 0-.19.463 1.3 1.3 0 0 0-.026.251v8.743H17.2v-8.743a1.3 1.3 0 0 0-.092-.497 1.3 1.3 0 0 0-.277-.424 1.27 1.27 0 0 0-.662-.358 1.3 1.3 0 0 0-.506 0 1.29 1.29 0 0 0-1.012 1.026 1.3 1.3 0 0 0-.02.253v8.743H9.894v-8.863c0-4.14 2.793-7.51 6.229-7.51h14.816c3.434 0 6.228 3.37 6.228 7.51zM57.374 34.678H45.561a1.3 1.3 0 0 0-.492.097 1.3 1.3 0 0 0-.416.279 1.3 1.3 0 0 0-.279.417 1.29 1.29 0 0 0 .936 1.753q.125.024.251.024h11.813a1.3 1.3 0 0 0 .492-.097 1.3 1.3 0 0 0 .417-.279 1.3 1.3 0 0 0 .279-.417 1.3 1.3 0 0 0 .097-.492 1.2 1.2 0 0 0-.097-.492 1.3 1.3 0 0 0-.279-.417 1.3 1.3 0 0 0-.417-.279 1.3 1.3 0 0 0-.492-.097M10.533 56.748a1.3 1.3 0 0 0-.493.097 1.321 1.321 0 0 0-.578.474 1.3 1.3 0 0 0-.217.714 1.3 1.3 0 0 0 .099.492 1.3 1.3 0 0 0 .279.418 1.26 1.26 0 0 0 .66.351q.124.025.25.025H47.19q.127 0 .25-.026a1.25 1.25 0 0 0 .463-.192 1.26 1.26 0 0 0 .473-.576 1.3 1.3 0 0 0 .097-.492 1.3 1.3 0 0 0-.216-.714 1.3 1.3 0 0 0-.817-.546 1.3 1.3 0 0 0-.25-.025zM50.441 45.716h-4.88a1.3 1.3 0 0 0-.493.096 1.3 1.3 0 0 0-.418.279 1.3 1.3 0 0 0-.28.418 1.3 1.3 0 0 0-.097.492 1.3 1.3 0 0 0 .097.492 1.3 1.3 0 0 0 .28.417 1.26 1.26 0 0 0 .66.352q.123.024.25.024h4.881a1.3 1.3 0 0 0 .715-.217 1.3 1.3 0 0 0 .354-.354 1.2 1.2 0 0 0 .192-.463 1.3 1.3 0 0 0 0-.502 1.3 1.3 0 0 0-.192-.463 1.3 1.3 0 0 0-.354-.355 1.3 1.3 0 0 0-.464-.192 1.2 1.2 0 0 0-.25-.024M84.347 54.552a11.8 11.8 0 0 0-.229-2.33 11.8 11.8 0 0 0-.68-2.24 11.9 11.9 0 0 0-2.587-3.875 11.827 11.827 0 0 0-2.814-2.087 11.9 11.9 0 0 0-3.3-1.181 11.7 11.7 0 0 0-2.33-.23 11.8 11.8 0 0 0-2.329.229 12 12 0 0 0-4.305 1.783 12 12 0 0 0-1.81 1.485 11.8 11.8 0 0 0-1.484 1.81 12 12 0 0 0-1.104 2.065 11.95 11.95 0 0 0 1.105 11.203 12 12 0 0 0 1.485 1.81 12 12 0 0 0 2.815 2.087 12 12 0 0 0 2.163.895 11.8 11.8 0 0 0 2.296.456 11.8 11.8 0 0 0 3.498-.174q.575-.115 1.136-.287a11.93 11.93 0 0 0 6.457-4.791q.327-.487.603-1.004a12 12 0 0 0 .896-2.161 11.7 11.7 0 0 0 .46-2.294q.057-.583.058-1.17M72.41 63.92a9.6 9.6 0 0 1-1.828-.18 9.3 9.3 0 0 1-1.758-.533 9.51 9.51 0 0 1-2.358-1.413 9.4 9.4 0 0 1-2.715-3.657 9.3 9.3 0 0 1-.669-2.667 9.6 9.6 0 0 1 0-1.838q.045-.457.136-.91a9.3 9.3 0 0 1 1.399-3.377 9.5 9.5 0 0 1 1.846-2.038 9.203 9.203 0 0 1 2.36-1.414 9.3 9.3 0 0 1 2.667-.667 9.3 9.3 0 0 1 2.747.134 9.6 9.6 0 0 1 1.758.534q.425.176.83.393a9.3 9.3 0 0 1 1.528 1.021 9.35 9.35 0 0 1 2.712 3.659 9.3 9.3 0 0 1 .666 4.504 9.5 9.5 0 0 1-.36 1.8 9.4 9.4 0 0 1-4.548 5.54 9.5 9.5 0 0 1-1.695.702 9.2 9.2 0 0 1-1.8.36q-.457.046-.918.047"/><path fill="#222" d="M89.473 70.023a20 20 0 0 1-1.931-2.64 4.48 4.48 0 0 0 .847-2.564l.037-1.965a1.8 1.8 0 0 1 .174-.794q.177-.377.501-.64l1.23-1.042a4.5 4.5 0 0 0 1.013-1.224 4.44 4.44 0 0 0 .575-2.296 4.47 4.47 0 0 0-.678-2.269l-1.036-1.672a1.8 1.8 0 0 1-.281-.759 1.8 1.8 0 0 1 .075-.806l.474-1.547q.12-.383.167-.78a4.5 4.5 0 0 0-.092-1.588 4.44 4.44 0 0 0-1.147-2.073 4.5 4.5 0 0 0-1.297-.922l-1.769-.842a1.82 1.82 0 0 1-1.022-1.214l-.438-1.547a4.428 4.428 0 0 0-1.216-2.034 4.5 4.5 0 0 0-1.325-.876 4.46 4.46 0 0 0-2.346-.325l-1.955.246a1.8 1.8 0 0 1-1.508-.463l-1.201-1.066a4.5 4.5 0 0 0-1.63-.926V4.705a4.7 4.7 0 0 0-.091-.918 4.6 4.6 0 0 0-.268-.882 4.8 4.8 0 0 0-.435-.813 4.6 4.6 0 0 0-.585-.712 5 5 0 0 0-.713-.585 4.6 4.6 0 0 0-1.695-.703A4.6 4.6 0 0 0 68.989 0H4.7a5 5 0 0 0-.916.092A5 5 0 0 0 2.9.36a4.5 4.5 0 0 0-.813.435 4.6 4.6 0 0 0-.711.585 4.6 4.6 0 0 0-.585.712 5 5 0 0 0-.434.813A4.7 4.7 0 0 0 0 4.705v84.59a4.7 4.7 0 0 0 .358 1.799 4.5 4.5 0 0 0 .434.813 4.6 4.6 0 0 0 .585.712 4.6 4.6 0 0 0 .711.586 4.6 4.6 0 0 0 .813.435 4.6 4.6 0 0 0 .882.268A4.6 4.6 0 0 0 4.7 94h64.29q.23 0 .46-.024.23-.023.457-.067a5 5 0 0 0 .882-.27 4.5 4.5 0 0 0 .813-.434 4.71 4.71 0 0 0 2.092-3.91V72.927l.735.347a38 38 0 0 0 5.597 8.618l4.085 4.684q.136.155.313.26a1.3 1.3 0 0 0 .784.174 1.28 1.28 0 0 0 .988-.642q.103-.179.143-.38a1.3 1.3 0 0 0 .018-.406l-.903-7.724 7.178-.879a1.3 1.3 0 0 0 .492-.168q.23-.133.388-.348l.114-.157a1.28 1.28 0 0 0-.069-1.605zm-18.35 19.272a2.2 2.2 0 0 1-.163.816 2.16 2.16 0 0 1-.786.957 2.1 2.1 0 0 1-.769.32 2 2 0 0 1-.416.041H4.7a2.2 2.2 0 0 1-.814-.164 2.2 2.2 0 0 1-.69-.463 2.1 2.1 0 0 1-.583-1.09 2 2 0 0 1-.04-.417V4.705a2.1 2.1 0 0 1 .16-.815 2.2 2.2 0 0 1 .462-.692 2.2 2.2 0 0 1 .691-.462 2.1 2.1 0 0 1 .815-.164h64.29q.21 0 .415.04a2.1 2.1 0 0 1 .769.32 2.1 2.1 0 0 1 .588.588q.117.176.198.369a2.2 2.2 0 0 1 .163.816v30.651a4.5 4.5 0 0 0-1.663.883l-1.504 1.26a1.81 1.81 0 0 1-1.53.428l-1.592-.245a4.4 4.4 0 0 0-1.59.032 4.5 4.5 0 0 0-1.479.588 4.4 4.4 0 0 0-1.178 1.07 4.5 4.5 0 0 0-.725 1.415l-.583 1.87a1.8 1.8 0 0 1-.392.712 1.8 1.8 0 0 1-.664.471l-1.471.656a4.4 4.4 0 0 0-1.32.889 4.5 4.5 0 0 0-.923 1.294 4.4 4.4 0 0 0-.414 1.535 4.5 4.5 0 0 0 .15 1.584l.524 1.886q.119.4.055.812a1.8 1.8 0 0 1-.299.757l-.887 1.343a4.5 4.5 0 0 0-.63 1.461 4.4 4.4 0 0 0-.08 1.59 4.48 4.48 0 0 0 1.464 2.767l1.462 1.304q.319.271.486.655.17.383.154.801l-.015 1.608q-.009.697.194 1.363t.598 1.24a20 20 0 0 1-1.932 2.637L51.254 74.7a1.29 1.29 0 0 0-.052 1.628l.12.156a1.27 1.27 0 0 0 .863.494l7.173.88-.899 7.724a1.27 1.27 0 0 0 .16.787 1.3 1.3 0 0 0 .596.538 1.3 1.3 0 0 0 .8.08q.201-.045.377-.15a1.3 1.3 0 0 0 .313-.261l4.084-4.683a38 38 0 0 0 5.541-8.507l.794-.347zM60.94 75.464l-6.265-.77 2.603-2.98a22.6 22.6 0 0 0 2.02-2.719q.468.189.966.271l1.928.305q.413.058.763.29.35.23.565.59l.858 1.361a4.4 4.4 0 0 0 1.22 1.293 4.4 4.4 0 0 0 1.626.715 34.3 34.3 0 0 1-4.37 6.383l-1.36 1.56.567-4.876a1.3 1.3 0 0 0-.04-.498 1.27 1.27 0 0 0-1.081-.926zm15.004-4.319-.037-.016-1.453-.685a4.4 4.4 0 0 0-1.847-.436 4.3 4.3 0 0 0-1.857.39l-1.79.782q-.039.012-.073.028a1.9 1.9 0 0 1-.982.119 1.9 1.9 0 0 1-.91-.388 2 2 0 0 1-.44-.495l-.858-1.363a4.4 4.4 0 0 0-1.321-1.365 4.4 4.4 0 0 0-1.773-.682l-1.934-.307a1.883 1.883 0 0 1-.926-.416 1.9 1.9 0 0 1-.438-.52 1.9 1.9 0 0 1-.255-.983l.015-1.606a4.4 4.4 0 0 0-.37-1.866 4.4 4.4 0 0 0-1.126-1.532l-1.46-1.304a2 2 0 0 1-.42-.535 1.9 1.9 0 0 1-.22-.99 1.9 1.9 0 0 1 .318-.964l.89-1.35a4.414 4.414 0 0 0 .575-3.656l-.525-1.89a1.868 1.868 0 0 1-.064-.678 1.9 1.9 0 0 1 .178-.658q.072-.155.173-.294a1.9 1.9 0 0 1 .788-.64l1.467-.654a4.34 4.34 0 0 0 1.542-1.108 4.4 4.4 0 0 0 .927-1.659l.582-1.875a1.9 1.9 0 0 1 .69-.977 1.88 1.88 0 0 1 1.135-.372q.152 0 .302.023l1.59.244a4.35 4.35 0 0 0 1.898-.101 4.3 4.3 0 0 0 1.675-.897l1.504-1.259a1.9 1.9 0 0 1 .588-.34 1.91 1.91 0 0 1 1.917.374l1.205 1.068a4.3 4.3 0 0 0 1.647.938 4.4 4.4 0 0 0 1.89.149l1.95-.245a1.9 1.9 0 0 1 .68.034 1.9 1.9 0 0 1 .625.268q.142.095.267.213a1.93 1.93 0 0 1 .519.87l.438 1.546a4.3 4.3 0 0 0 .88 1.683 4.4 4.4 0 0 0 1.51 1.152l1.77.844a1.9 1.9 0 0 1 .554.394q.12.122.216.264a1.8 1.8 0 0 1 .275.62 1.9 1.9 0 0 1 .04.68 2 2 0 0 1-.07.334l-.476 1.547a4.391 4.391 0 0 0 .482 3.67l1.034 1.669a1.91 1.91 0 0 1-.148 2.234 2 2 0 0 1-.24.242l-1.23 1.042a4.37 4.37 0 0 0-1.473 2.4 4.3 4.3 0 0 0-.108.95l-.037 1.964a1.9 1.9 0 0 1-.128.668 1.929 1.929 0 0 1-.889 1 1.9 1.9 0 0 1-.648.207l-1.596.213q-.476.057-.93.217a4.376 4.376 0 0 0-2.215 1.744l-1.084 1.631a1.95 1.95 0 0 1-.752.662 2 2 0 0 1-.644.186 2 2 0 0 1-.67-.047 2 2 0 0 1-.319-.11m7.929 4.318a1.3 1.3 0 0 0-.475.155q-.109.063-.206.145a1.3 1.3 0 0 0-.4.627 1.3 1.3 0 0 0-.04.498l.57 4.871-1.36-1.557a34.4 34.4 0 0 1-4.38-6.395 4.5 4.5 0 0 0 2.323-1.236q.315-.316.563-.687l1.087-1.633q.222-.353.575-.574.354-.221.768-.265l1.599-.215q.508-.07.988-.252a22 22 0 0 0 2.05 2.769l2.604 2.981z"/><path fill="#222" d="M47.19 78.813H10.531a1.3 1.3 0 0 0-.713.217 1.26 1.26 0 0 0-.474.576 1.3 1.3 0 0 0-.098.492 1.2 1.2 0 0 0 .098.492 1.3 1.3 0 0 0 .279.417 1.3 1.3 0 0 0 .416.279 1.3 1.3 0 0 0 .492.097H47.19a1.3 1.3 0 0 0 .492-.097 1.3 1.3 0 0 0 .417-.279 1.3 1.3 0 0 0 .279-.417q.048-.118.073-.241a1.3 1.3 0 0 0 0-.502 1.4 1.4 0 0 0-.192-.463 1.3 1.3 0 0 0-.354-.354 1.3 1.3 0 0 0-.464-.193 1.3 1.3 0 0 0-.25-.024M49.167 67.78H10.534a1.29 1.29 0 0 0-1.054.577 1.2 1.2 0 0 0-.116.221 1.29 1.29 0 0 0 .117 1.196 1.2 1.2 0 0 0 .348.354 1.4 1.4 0 0 0 .457.195q.123.027.248.028h38.633a1.286 1.286 0 0 0 1.244-1.037 1.29 1.29 0 0 0-.758-1.43 1.2 1.2 0 0 0-.486-.104"/></svg>