<svg xmlns="http://www.w3.org/2000/svg" width="130" height="130" fill="none" viewBox="0 0 130 130"><path fill="#64b5f6" d="M83.297 46.164a48.5 48.5 0 0 1 4.69 5.447 49 49 0 0 1 2.66 3.988q.615 1.03 1.18 2.089a49 49 0 0 1 2.047 4.336q.46 1.11.862 2.239.405 1.13.751 2.278a48 48 0 0 1 1.165 4.654q.233 1.177.41 2.364.173 1.186.293 2.382.118 1.193.175 2.393a48 48 0 0 1 0 4.797 48 48 0 0 1-.468 4.774 49.2 49.2 0 0 1-5.233 15.872 49 49 0 0 1-2.463 4.116 50 50 0 0 1-2.851 3.852 48 48 0 0 1-1.566 1.817 50 50 0 0 1-3.385 3.393 49 49 0 0 1-9.767 6.891q-1.056.566-2.139 1.078-1.083.516-2.19.974a49 49 0 0 1-6.816 2.256 48 48 0 0 1-4.697.936 48.7 48.7 0 0 1-16.679-.41 48.6 48.6 0 0 1-13.482-4.834 48 48 0 0 1-4.106-2.465 50 50 0 0 1-1.96-1.382 51 51 0 0 1-1.888-1.475 48.7 48.7 0 0 1-8.238-8.67 49 49 0 0 1-5.887-10.413 50 50 0 0 1-.862-2.238q-.405-1.13-.751-2.279a50 50 0 0 1-.64-2.312 49.5 49.5 0 0 1-1.227-7.086 50 50 0 0 1-.176-2.393Q0 81.933 0 80.733t.059-2.398a50 50 0 0 1 .47-4.774q.174-1.187.41-2.364a48.9 48.9 0 0 1 8.664-19.585 49 49 0 0 1 3.037-3.708 48.4 48.4 0 0 1 5.2-4.96 49 49 0 0 1 3.846-2.858 47 47 0 0 1 2.022-1.283q1.028-.618 2.084-1.183a49 49 0 0 1 8.837-3.669 50 50 0 0 1 4.646-1.165 49 49 0 0 1 2.36-.41 50 50 0 0 1 4.765-.47 48 48 0 0 1 4.789 0 50 50 0 0 1 4.764.47 49 49 0 0 1 7.005 1.575 49 49 0 0 1 6.699 2.59 48.4 48.4 0 0 1 6.246 3.545q.996.665 1.957 1.381.962.714 1.889 1.476.926.761 1.814 1.567.886.807 1.734 1.654"/><path fill="#42a5f5" fill-rule="evenodd" d="M81.197 44.184c10.056 8.955 16.394 22.01 16.394 36.55 0 26.998-21.847 48.886-48.794 48.886-14.513 0-27.543-6.351-36.48-16.426 8.616 7.673 19.964 12.338 32.399 12.338 26.949 0 48.794-21.888 48.794-48.887 0-12.459-4.654-23.828-12.313-32.461" clip-rule="evenodd"/><path fill="#3cbe52" fill-rule="evenodd" d="M88.688 52.576c-27.275-3.1-29.766 5.287-24.063 13.238 5.37 7.488 10.596 5.673 13.438 12.385 3.832 9.05-18.26 11.8 6.78 35.484 7.918-8.692 12.747-20.255 12.747-32.95a48.73 48.73 0 0 0-8.902-28.157M43.304 55.99c-8.102 8.566-16.994 6.273-17.776 6.174-5.156-.656-9.977 2.29-6.878 7.28 3.327 5.361 5.344 6.048 9.474 4.447 7.605-2.95 6.7 2.275 15.067 3.08 3.969.38 5.415 4.626 8.242 8.486 9.404 12.837-6.334 3.037-6.272 16.73-1.763 7.987-4.02 4.896-5.283 11.254-.518 2.069-3.277 3.825-4.959 1.963-3.697-3.61-.151-8.62-6.538-16.29-4.43-5.743.728-9.891-5.45-13.467C10.9 78.677 12.95 71.86.532 73.499c2.498-16.87 13.6-30.931 28.693-37.56 9.042.4 21.717 10.706 14.08 20.05" clip-rule="evenodd"/><path fill="#30aa44" fill-rule="evenodd" d="M88.689 52.576q-.81-.092-1.591-.17c4.08 7.145 6.411 15.42 6.411 24.239 0 12.687-4.823 24.244-12.736 32.934a84 84 0 0 0 4.07 4.103c7.918-8.691 12.747-20.254 12.747-32.949a48.73 48.73 0 0 0-8.901-28.157" clip-rule="evenodd"/><path fill="#596c76" fill-rule="evenodd" d="m97.18 27.805-6.268 23.437a2.13 2.13 0 0 1-1.695 1.573L65.27 57.303c-5.568 1.043-10.79-.358-15.092-4.052l-18.496-15.88A2.13 2.13 0 0 1 31 35.159l5.74-21.463z" clip-rule="evenodd"/><path fill="#465a61" fill-rule="evenodd" d="m97.182 27.804-6.269 23.438a2.13 2.13 0 0 1-1.695 1.573l-23.946 4.487c-5.568 1.043-10.79-.358-15.092-4.051l-3.07-2.638c4.3 3.694 9.523 5.096 15.092 4.052l23.944-4.487a2.13 2.13 0 0 0 1.696-1.574l5.786-21.63z" clip-rule="evenodd"/><mask id="a" width="88" height="43" x="23" y="0" maskUnits="userSpaceOnUse" style="mask-type:luminance"><path fill="#fff" d="M23.553 0h86.721v42.12H23.553z"/></mask><g mask="url(#a)"><path fill="#8d9ca8" fill-rule="evenodd" d="M23.967 9.058 71.717.109c.442-.082 1.162.158 1.6.535l36.536 31.367c.439.375.436.75-.007.835l-47.75 8.947c-.442.083-1.163-.157-1.6-.533L23.96 9.893c-.439-.377-.436-.753.007-.835" clip-rule="evenodd"/></g><path fill="#7a8c98" fill-rule="evenodd" d="m23.966 9.058 4.01-.752L61.59 37.165c.439.377 1.159.617 1.6.534l43.741-8.196 2.922 2.508c.439.376.436.751-.007.835l-47.75 8.948c-.441.082-1.163-.158-1.6-.533L23.96 9.893c-.439-.377-.436-.752.006-.835" clip-rule="evenodd"/><path fill="#596c76" fill-rule="evenodd" d="M66.386 22.56a1.694 1.694 0 0 1-1.087-2.129 1.69 1.69 0 0 1 2.126-1.09l38.995 12.634a1.69 1.69 0 0 1 1.112 2.047h.005l-7.946 29.71a1.69 1.69 0 0 1-2.072 1.198 1.697 1.697 0 0 1-1.198-2.077l7.531-28.156z" clip-rule="evenodd"/><path fill="#ffda2d" fill-rule="evenodd" d="m101.191 53.988 3.636 5.802c.162.26.205.542.127.838l-2.524 9.435a1.06 1.06 0 0 1-1.295.75l-9.683-2.6a1.063 1.063 0 0 1-.748-1.299l2.523-9.435c.08-.294.258-.518.528-.661l6.046-3.204a1.056 1.056 0 0 1 1.39.374" clip-rule="evenodd"/><path fill="#ffc700" fill-rule="evenodd" d="m101.192 53.988 3.637 5.802c.162.26.204.542.126.838l-2.524 9.435c-.15.564-.732.9-1.295.75l-2.044-.55a1.06 1.06 0 0 0 1.296-.75l2.523-9.434a1.02 1.02 0 0 0-.127-.838l-3.39-5.41.408-.217a1.056 1.056 0 0 1 1.39.374" clip-rule="evenodd"/></svg>