<svg xmlns="http://www.w3.org/2000/svg" width="99" height="99" fill="none" viewBox="0 0 99 99"><path fill="#edbdb0" fill-rule="evenodd" d="M14.413 1.403A7.29 7.29 0 0 1 21.7 8.692a7.29 7.29 0 1 1-7.289-7.289m70.18 0a7.29 7.29 0 1 1-.001 14.578 7.29 7.29 0 0 1 .002-14.578m0 68.613a7.29 7.29 0 1 1-.001 14.578 7.29 7.29 0 0 1 .002-14.578m-70.18 0a7.29 7.29 0 1 1-.001 14.578 7.29 7.29 0 0 1 0-14.578" clip-rule="evenodd"/><path fill="#ffcec0" fill-rule="evenodd" d="M15.856 1.545a7.29 7.29 0 0 1 5.846 7.147 7.284 7.284 0 0 1-5.846 7.14 7.28 7.28 0 0 1-5.845-7.14 7.29 7.29 0 0 1 5.845-7.147m70.182 14.287a7.284 7.284 0 0 1-5.846-7.14 7.29 7.29 0 0 1 5.846-7.147 7.29 7.29 0 0 1 5.845 7.147 7.28 7.28 0 0 1-5.845 7.14m0 68.619a7.29 7.29 0 0 1 0-14.293 7.29 7.29 0 0 1 0 14.293m-70.182 0a7.29 7.29 0 0 1 0-14.293 7.29 7.29 0 0 1 0 14.293" clip-rule="evenodd"/><path fill="#75e075" fill-rule="evenodd" d="M71.585 28.983h26.012c0-7.152-5.851-13.003-13.002-13.003-7.159 0-13.01 5.851-13.01 13.003" clip-rule="evenodd"/><path fill="#8893a3" fill-rule="evenodd" d="M71.585 97.596h26.012c0-7.151-5.851-13.002-13.002-13.002-7.159 0-13.01 5.85-13.01 13.002" clip-rule="evenodd"/><path fill="#ed405d" fill-rule="evenodd" d="M1.404 97.596h26.013c0-7.151-5.852-13.002-13.004-13.002-7.157 0-13.009 5.85-13.009 13.002" clip-rule="evenodd"/><path fill="#fce77c" fill-rule="evenodd" d="M1.404 28.983h26.013c0-7.152-5.852-13.003-13.004-13.003-7.157 0-13.009 5.851-13.009 13.003" clip-rule="evenodd"/><path fill="#90ef90" fill-rule="evenodd" d="M86.038 16.06c-6.482.721-11.566 6.26-11.566 12.923h23.126c0-6.663-5.078-12.202-11.56-12.923" clip-rule="evenodd"/><path fill="#939dab" fill-rule="evenodd" d="M86.038 84.673c-6.482.721-11.566 6.26-11.566 12.923h23.126c0-6.663-5.078-12.202-11.56-12.923" clip-rule="evenodd"/><path fill="#f7516d" fill-rule="evenodd" d="M15.856 84.673c-6.482.721-11.566 6.26-11.566 12.923h23.127c0-6.663-5.08-12.202-11.561-12.923" clip-rule="evenodd"/><path fill="#fff28f" fill-rule="evenodd" d="M4.29 28.983h23.127c0-6.663-5.08-12.202-11.561-12.923C9.374 16.78 4.29 22.32 4.29 28.983" clip-rule="evenodd"/><path fill="#ffcec0" fill-rule="evenodd" d="M49.691 29.92c5.715 0 10.345 4.636 10.345 10.346 0 5.715-4.63 10.35-10.345 10.35s-10.345-4.635-10.345-10.35c0-5.71 4.63-10.345 10.345-10.345" clip-rule="evenodd"/><path fill="#ffcec0" fill-rule="evenodd" d="M51.134 30.023c5.027.705 8.901 5.022 8.901 10.243 0 5.226-3.874 9.543-8.901 10.248-5.033-.705-8.902-5.022-8.902-10.248 0-5.221 3.869-9.538 8.902-10.243" clip-rule="evenodd"/><path fill="#78c5ff" fill-rule="evenodd" d="M31.223 69.079h36.931c0-10.158-8.305-18.463-18.463-18.463-10.157 0-18.468 8.305-18.468 18.463" clip-rule="evenodd"/><path fill="#78c5ff" fill-rule="evenodd" d="M34.108 69.079h34.046c0-9.67-7.533-17.667-17.02-18.406-9.493.739-17.026 8.737-17.026 18.406" clip-rule="evenodd"/><path fill="#d6e9fc" fill-rule="evenodd" d="M68.695 55.161v-1.909l-6.335-6.141 6.335-1.182v-2.272a2.02 2.02 0 0 1 2.016-2.017h15.827c1.108 0 2.017.904 2.017 2.017V55.16a2.02 2.02 0 0 1-2.017 2.011H70.71a2.02 2.02 0 0 1-2.016-2.011m-38.011 0v-1.909l6.34-6.141-6.34-1.182v-2.272a2.016 2.016 0 0 0-2.011-2.017H12.84c-1.107 0-2.01.904-2.01 2.017V55.16c0 1.107.903 2.011 2.01 2.011h15.833a2.016 2.016 0 0 0 2.01-2.011" clip-rule="evenodd"/><path fill="#e3f1ff" fill-rule="evenodd" d="M73.597 41.64h12.94c1.108 0 2.017.904 2.017 2.017V55.16a2.02 2.02 0 0 1-2.017 2.01h-12.94a2.02 2.02 0 0 1-2.017-2.01v-1.909l-6.334-6.141 6.334-1.182v-2.272a2.02 2.02 0 0 1 2.017-2.017m-58.593 0a2.016 2.016 0 0 0-2.01 2.017V55.16c0 1.107.902 2.01 2.01 2.01h13.668a2.015 2.015 0 0 0 2.011-2.01v-1.909l6.34-6.141-6.34-1.182v-2.272a2.016 2.016 0 0 0-2.01-2.017z" clip-rule="evenodd"/><mask id="a" width="100" height="101" x="0" y="-1" maskUnits="userSpaceOnUse" style="mask-type:luminance"><path fill="#fff" d="M0-.001h99.001V99H0z"/></mask><g mask="url(#a)"><path fill="#222" d="M1.403 30.387h26.013c.775 0 1.403-.628 1.403-1.403 0-6.079-3.786-11.286-9.122-13.398a8.68 8.68 0 0 0 3.407-6.894C23.104 3.9 19.204 0 14.412 0S5.721 3.9 5.721 8.692a8.68 8.68 0 0 0 3.406 6.893C3.788 17.697 0 22.905 0 28.984c0 .775.628 1.403 1.403 1.403M8.527 8.692a5.89 5.89 0 0 1 5.885-5.885 5.89 5.89 0 0 1 5.886 5.885 5.89 5.89 0 0 1-5.886 5.885 5.89 5.89 0 0 1-5.885-5.885m5.885 8.691c5.922 0 10.821 4.46 11.516 10.197H2.891c.695-5.736 5.597-10.197 11.521-10.197M19.697 84.2a8.68 8.68 0 0 0 3.407-6.894c0-4.792-3.9-8.692-8.692-8.692s-8.691 3.9-8.691 8.692a8.68 8.68 0 0 0 3.406 6.893C3.788 86.31 0 91.518 0 97.597 0 98.372.628 99 1.403 99h26.013c.775 0 1.403-.628 1.403-1.403 0-6.079-3.786-11.286-9.122-13.398m-11.17-6.894a5.89 5.89 0 0 1 5.885-5.885 5.89 5.89 0 0 1 5.886 5.885 5.89 5.89 0 0 1-5.886 5.885 5.89 5.89 0 0 1-5.885-5.885M2.89 96.193c.695-5.736 5.597-10.196 11.521-10.196 5.922 0 10.821 4.46 11.516 10.196zm86.985-11.995a8.68 8.68 0 0 0 3.404-6.893c0-4.792-3.897-8.692-8.686-8.692-4.793 0-8.692 3.9-8.692 8.692a8.68 8.68 0 0 0 3.406 6.893c-5.339 2.112-9.127 7.32-9.127 13.399 0 .775.629 1.403 1.403 1.403h26.013c.775 0 1.403-.628 1.403-1.403 0-6.08-3.787-11.287-9.124-13.399m-11.168-6.893a5.89 5.89 0 0 1 5.886-5.885c3.242 0 5.88 2.64 5.88 5.885s-2.638 5.885-5.88 5.885a5.89 5.89 0 0 1-5.886-5.885m-5.636 18.888c.695-5.736 5.597-10.196 11.522-10.196 5.921 0 10.821 4.46 11.516 10.196zm16.804-80.609a8.68 8.68 0 0 0 3.404-6.892C93.28 3.9 89.383 0 84.594 0c-4.793 0-8.692 3.9-8.692 8.692a8.68 8.68 0 0 0 3.406 6.893c-5.339 2.112-9.127 7.32-9.127 13.399 0 .775.629 1.403 1.403 1.403h26.013c.775 0 1.403-.628 1.403-1.403 0-6.08-3.787-11.288-9.124-13.4M78.708 8.692a5.89 5.89 0 0 1 5.886-5.885c3.242 0 5.88 2.64 5.88 5.885s-2.638 5.885-5.88 5.885a5.89 5.89 0 0 1-5.886-5.885M73.072 27.58c.695-5.736 5.597-10.197 11.522-10.197 5.921 0 10.821 4.46 11.516 10.197zM90.99 65.21c3.41-9.042 3.765-19.127.996-28.4a1.403 1.403 0 0 1 2.69-.803c2.942 9.859 2.565 20.58-1.06 30.193a1.404 1.404 0 0 1-2.626-.99M69.782 9.925c-.208 0-.42-.047-.62-.146-12.305-6.083-26.996-6.083-39.3 0a1.403 1.403 0 1 1-1.245-2.516c13.084-6.468 28.705-6.468 41.788 0a1.403 1.403 0 0 1-.623 2.662m-3.978 82.374a1.4 1.4 0 0 1-.868 1.784 47.3 47.3 0 0 1-15.425 2.578c-5.226 0-10.45-.86-15.424-2.578a1.402 1.402 0 1 1 .917-2.652 44.6 44.6 0 0 0 29.015 0 1.403 1.403 0 0 1 1.785.868M7.037 36.809c-2.768 9.274-2.414 19.36.996 28.4a1.402 1.402 0 1 1-2.625.991c-3.627-9.612-4.003-20.335-1.06-30.193a1.404 1.404 0 0 1 2.689.803M55.93 50.219c3.305-2.082 5.508-5.763 5.508-9.952 0-6.478-5.27-11.748-11.747-11.748-6.479 0-11.749 5.27-11.749 11.748 0 4.188 2.203 7.87 5.508 9.951C35.542 52.84 29.82 60.303 29.82 69.08c0 .775.628 1.403 1.403 1.403h36.931c.775 0 1.404-.628 1.404-1.403 0-8.775-5.72-16.239-13.628-18.861m-15.181-9.952c0-4.93 4.01-8.942 8.942-8.942 4.93 0 8.941 4.012 8.941 8.942 0 4.934-4.011 8.947-8.941 8.947s-8.942-4.013-8.942-8.947m-8.067 27.41c.717-8.752 8.071-15.656 17.009-15.656 8.934 0 16.286 6.904 17.002 15.656zm38.028-9.1h15.827a3.42 3.42 0 0 0 3.413-3.415V43.657a3.42 3.42 0 0 0-3.413-3.42H70.71a3.424 3.424 0 0 0-3.42 3.42v1.107l-5.189.968a1.403 1.403 0 0 0-.719 2.387l5.908 5.727v1.315a3.42 3.42 0 0 0 3.42 3.414m-5.426-10.583 3.666-.684a1.404 1.404 0 0 0 1.146-1.38v-2.272c0-.338.275-.613.614-.613h15.826c.336 0 .609.275.609.613v11.504a.61.61 0 0 1-.609.608H70.71a.61.61 0 0 1-.614-.608v-1.909c0-.38-.154-.743-.426-1.007zm6.92 4.003c0-.774.628-1.403 1.403-1.403h10.032a1.403 1.403 0 0 1 0 2.807H73.607a1.403 1.403 0 0 1-1.403-1.404m0-5.18c0-.775.628-1.404 1.403-1.404h10.032a1.403 1.403 0 0 1 0 2.807H73.607a1.403 1.403 0 0 1-1.403-1.403M28.67 40.237H12.84a3.42 3.42 0 0 0-3.414 3.42v11.504a3.42 3.42 0 0 0 3.413 3.414h15.833a3.42 3.42 0 0 0 3.415-3.414v-1.314l5.912-5.728a1.403 1.403 0 0 0-.719-2.387l-5.193-.968v-1.107a3.42 3.42 0 0 0-3.415-3.42m5.424 7.756-4.389 4.251a1.4 1.4 0 0 0-.427 1.008v1.91a.61.61 0 0 1-.608.607H12.84a.61.61 0 0 1-.608-.608V43.657c0-.338.273-.613.607-.613h15.833c.335 0 .608.275.608.613v2.273c0 .675.482 1.255 1.146 1.38zm-6.923 4.003c0 .776-.629 1.404-1.404 1.404H15.742a1.403 1.403 0 0 1 0-2.807h10.026c.775 0 1.404.629 1.404 1.403m0-5.18c0 .775-.629 1.403-1.404 1.403H15.742a1.403 1.403 0 0 1 0-2.806h10.026c.775 0 1.404.628 1.404 1.403"/></g></svg>