<svg xmlns="http://www.w3.org/2000/svg" width="32" height="32" fill="none" viewBox="0 0 32 32"><path fill="#222" d="M6.667 29.333a2.57 2.57 0 0 1-1.884-.783A2.57 2.57 0 0 1 4 26.667V8q0-1.1.783-1.883a2.57 2.57 0 0 1 1.884-.784H8V4q0-.567.383-.95a1.3 1.3 0 0 1 .95-.383q.567 0 .95.383.384.383.384.95v1.333h10.666V4q0-.567.384-.95a1.3 1.3 0 0 1 .95-.383q.566 0 .95.383Q24 3.433 24 4v1.333h1.333q1.1 0 1.884.784Q28 6.9 28 8v18.667q0 1.099-.783 1.883a2.57 2.57 0 0 1-1.884.783zm0-2.666h18.666V13.333H6.667zm0-16h18.666V8H6.667z"/></svg>