<svg xmlns="http://www.w3.org/2000/svg" width="74" height="72" fill="none" viewBox="0 0 74 72"><mask id="a" width="102" height="101" x="-15" y="-13" maskUnits="userSpaceOnUse" style="mask-type:alpha"><path fill="#d9d9d9" d="m-14.346 17.7 70.248-30.38 30.38 70.248-70.249 30.38z"/></mask><g mask="url(#a)"><path fill="#f28a15" fill-opacity=".25" d="m71.674 45.471-12.579-4.983 2.326-5.87L73.999 39.6zM45.947 14.904l-5.87-2.325L45.06 0l5.87 2.326zm-33.368 14.43L0 24.351l2.326-5.87 12.579 4.983zm4.652 39.682-5.87-2.326 4.984-12.579 5.87 2.326zM32.86 55.743l6.815-9.55 11.657 1.648-6.972-9.493 5.085-10.537L38.35 31.48l-8.548-8.117.028 11.714-10.272 5.572 11.192 3.585zm-3.57 16.049-4.135-22.62-21.933-6.93 20.283-10.944-.19-22.936 16.58 15.848 21.866-7.284-9.971 20.729L65.438 56.16l-22.79-3.087z"/></g></svg>