<svg width="165" height="157" viewBox="0 0 165 157" fill="none" xmlns="http://www.w3.org/2000/svg">
<path d="M54.417 86.7369C63.6917 86.7369 71.2037 79.2248 71.2037 69.9502C71.2037 60.6756 63.6917 53.1636 54.417 53.1636C45.1424 53.1636 37.6304 60.6756 37.6304 69.9502C37.6304 79.2248 45.1424 86.7369 54.417 86.7369ZM54.417 95.1302C43.212 95.1302 20.8438 100.754 20.8438 111.917V120.31H87.9903V111.917C87.9903 100.754 65.6221 95.1302 54.417 95.1302Z" fill="#DAA5AE"/>
<path d="M132.473 109.082C136.941 109.082 140.561 105.463 140.561 100.994C140.561 96.5256 136.941 92.9062 132.473 92.9062C128.004 92.9062 124.385 96.5256 124.385 100.994C124.385 105.463 128.004 109.082 132.473 109.082ZM132.473 113.126C127.074 113.126 116.297 115.835 116.297 121.214V125.258H148.648V121.214C148.648 115.835 137.871 113.126 132.473 113.126Z" fill="#DAA5AE"/>
<path d="M132.473 58.5462C136.941 58.5462 140.561 54.9268 140.561 50.4583C140.561 45.9897 136.941 42.3704 132.473 42.3704C128.004 42.3704 124.385 45.9897 124.385 50.4583C124.385 54.9268 128.004 58.5462 132.473 58.5462ZM132.473 62.5901C127.074 62.5901 116.297 65.2996 116.297 70.678V74.722H148.648V70.678C148.648 65.2996 137.871 62.5901 132.473 62.5901Z" fill="#DAA5AE"/>
<path d="M116.143 0.369629H73.0437C70.0806 0.369629 67.6832 2.79398 67.6832 5.75707L67.6562 54.244L78.4311 43.4692H116.143C119.106 43.4692 121.531 41.0448 121.531 38.0817V5.75707C121.531 2.79398 119.106 0.369629 116.143 0.369629ZM78.4311 19.2257H110.756V24.6131H78.4311V19.2257ZM99.9809 32.6943H78.4311V27.3068H99.9809V32.6943ZM110.756 16.532H78.4311V11.1445H110.756V16.532Z" fill="#DAA5AE"/>
<path d="M60.0539 32.7485H8.96628C5.53313 32.7485 2.75 35.5317 2.75 38.9648V129.693C2.75 133.126 5.53312 135.909 8.96628 135.909H156.167C159.6 135.909 162.383 133.126 162.383 129.693V38.9648C162.383 35.5317 159.6 32.7485 156.167 32.7485H126.989" stroke="#DAA5AE" stroke-width="4.35139" stroke-linecap="round"/>
<path d="M104.836 46.4731V135.559" stroke="#DAA5AE" stroke-width="3.31535" stroke-linecap="square"/>
<path d="M159.781 84.3293L104.768 84.3293" stroke="#DAA5AE" stroke-width="3.31535" stroke-linecap="square"/>
<path d="M70.3188 149.448L73.3792 137.761H103.431L106.213 149.448H128.961C130.997 149.448 132.647 151.099 132.647 153.135C132.647 155.171 130.997 156.822 128.961 156.822H47.015C44.9788 156.822 43.3281 155.171 43.3281 153.135C43.3281 151.099 44.9788 149.448 47.015 149.448H70.3188Z" fill="#DAA5AE"/>
</svg>
