<svg xmlns="http://www.w3.org/2000/svg" width="63" height="63" fill="none" viewBox="0 0 63 63"><path fill="#fff" d="M23.19 43.3a2.17 2.17 0 0 1-1.593-.651 2.17 2.17 0 0 1-.652-1.593V24.44q0-.94.652-1.592a2.17 2.17 0 0 1 1.592-.652h1.72V19.57h1.91v2.626h9.405V19.57h1.862v2.626h1.72q.94 0 1.592.652.651.651.651 1.592v16.616q0 .94-.651 1.593a2.17 2.17 0 0 1-1.593.651zm0-1.862h16.615q.144 0 .263-.12.12-.118.12-.262v-11.65h-17.38v11.65q0 .144.119.263.12.12.262.12m-.383-13.894h17.38V24.44a.36.36 0 0 0-.12-.262.36.36 0 0 0-.262-.12H23.19a.37.37 0 0 0-.263.12.37.37 0 0 0-.12.262z" opacity=".9"/><circle cx="31.5" cy="31.5" r="30.5" stroke="#fff" stroke-opacity=".45" stroke-width="2"/></svg>