<svg xmlns="http://www.w3.org/2000/svg" version="1.1" xmlns:xlink="http://www.w3.org/1999/xlink" width="1000" height="1000"><style>
    #light-icon {
      display: inline;
    }
    #dark-icon {
      display: none;
    }

    @media (prefers-color-scheme: dark) {
      #light-icon {
        display: none;
      }
      #dark-icon {
        display: inline;
      }
    }
  </style><g id="light-icon"><svg xmlns="http://www.w3.org/2000/svg" version="1.1" xmlns:xlink="http://www.w3.org/1999/xlink" width="1000" height="1000"><g><g transform="matrix(0.970873786407767,0,0,0.970873786407767,0,0)"><svg xmlns="http://www.w3.org/2000/svg" version="1.1" xmlns:xlink="http://www.w3.org/1999/xlink" width="1030" height="1030"><svg id="a" xmlns="http://www.w3.org/2000/svg" xmlns:xlink="http://www.w3.org/1999/xlink" viewBox="0 0 1030 1030"><defs><linearGradient id="b" x1="1730.09" y1="1142.37" x2="1460.59" y2="1729.39" gradientTransform="translate(-1001 -710)" gradientUnits="userSpaceOnUse"><stop offset="0" stop-color="#2191b1"></stop><stop offset=".47" stop-color="#227ba7"></stop><stop offset="1" stop-color="#133d7b"></stop></linearGradient><linearGradient id="c" x1="1637.61" y1="824.52" x2="1501.77" y2="1071.7" gradientTransform="translate(-1001 -710)" gradientUnits="userSpaceOnUse"><stop offset="0" stop-color="#16cbdd"></stop><stop offset=".3" stop-color="#21ced7"></stop><stop offset="1" stop-color="#2697b2"></stop></linearGradient><linearGradient id="d" x1="1368.67" y1="1055.5" x2="1073.98" y2="1506.01" gradientTransform="translate(-1001 -710)" gradientUnits="userSpaceOnUse"><stop offset="0" stop-color="#134084"></stop><stop offset=".97" stop-color="#091346"></stop><stop offset="1" stop-color="#020b2c"></stop></linearGradient></defs><path d="M546.48,780.76l175.25-178.75v-178.39l170.21,159.72.11,71.74c-.02,1.43-1.6,4.22-2.63,5.25l-286.48,288.74c-1.64,1.67-4.25,3.16-6.82,3.15l-72.16-.08-220.42.22v-171.54" fill="url(#b)"></path><path d="M545.99,258.71l-4.98-1.62c-48.79.03-237.47-.58-237.47-.58L137.65,89l449.33-.16h10.42s294.95,262.49,294.95,262.49l-.41,232.01" fill="url(#c)"></path><path d="M303.54,952.36l-163.46-163.48c-1.06-1.03-2.4-3.97-2.4-5.67l-.03-594.87,165.9,165.2" fill="url(#d)"></path><path d="M588.48,571.81c.03,5.26-78.01,79.55-78.01,79.55l-3.55,3.58c-.9.91-4.21,1.27-5.69,1.26l-67.49-.1-1.04-1.66-.22-269.23c.27-.47,1.34-1.7,1.85-1.7l5.37-.03,61.46-.21c3.85.03,7.37,5.46,11.31,9.42l64.95,64.09c4.63,4.5,10.83,7.89,10.83,12.3l.23,102.74Z" fill="#0e2254"></path><path d="M137.65,188.34v-99.34l165.9,167.51s-.09,13.32,0,97.02" fill="#091a45"></path></svg></svg></g></g></svg></g><g id="dark-icon"><svg xmlns="http://www.w3.org/2000/svg" version="1.1" xmlns:xlink="http://www.w3.org/1999/xlink" width="1000" height="1000"><g><g transform="matrix(0.970873786407767,0,0,0.970873786407767,0,0)"><svg xmlns="http://www.w3.org/2000/svg" version="1.1" xmlns:xlink="http://www.w3.org/1999/xlink" width="1030" height="1030"><svg id="a" xmlns="http://www.w3.org/2000/svg" xmlns:xlink="http://www.w3.org/1999/xlink" viewBox="0 0 1030 1030"><defs><linearGradient id="b" x1="1730.09" y1="1141.51" x2="1460.59" y2="1728.52" gradientTransform="translate(-1001 -710)" gradientUnits="userSpaceOnUse"><stop offset="0" stop-color="#2191b1"></stop><stop offset=".47" stop-color="#227ba7"></stop><stop offset="1" stop-color="#133d7b"></stop></linearGradient><linearGradient id="c" x1="1637.61" y1="823.66" x2="1501.77" y2="1070.83" gradientTransform="translate(-1001 -710)" gradientUnits="userSpaceOnUse"><stop offset="0" stop-color="#16cbdd"></stop><stop offset=".3" stop-color="#21ced7"></stop><stop offset="1" stop-color="#2697b2"></stop></linearGradient><linearGradient id="d" x1="1368.67" y1="1054.64" x2="1073.98" y2="1505.15" gradientTransform="translate(-1001 -710)" gradientUnits="userSpaceOnUse"><stop offset="0" stop-color="#134084"></stop><stop offset=".97" stop-color="#091346"></stop><stop offset="1" stop-color="#020b2c"></stop></linearGradient></defs><path d="M546.48,779.9l175.25-178.75v-178.39l170.21,159.72.11,71.74c-.02,1.43-1.6,4.22-2.63,5.25l-286.48,288.74c-1.64,1.67-4.25,3.16-6.82,3.15l-72.16-.08-220.42.22v-171.54" fill="url(#b)"></path><path d="M545.99,257.85l-4.98-1.62c-48.79.03-237.47-.58-237.47-.58L137.65,88.14l449.33-.16h10.42s294.95,262.49,294.95,262.49l-.41,232.01" fill="url(#c)"></path><path d="M303.54,951.5l-163.46-163.48c-1.06-1.03-2.4-3.97-2.4-5.67l-.03-594.87,165.9,165.2" fill="url(#d)"></path><path d="M588.48,570.95c.03,5.26-78.01,79.55-78.01,79.55l-3.55,3.58c-.9.91-4.21,1.27-5.69,1.26l-67.49-.1-1.04-1.66-.22-269.23c.27-.47,1.34-1.7,1.85-1.7l5.37-.03,61.46-.21c3.85.03,7.37,5.46,11.31,9.42l64.95,64.09c4.63,4.5,10.83,7.89,10.83,12.3l.23,102.74Z" fill="#e0e4eb"></path><path d="M137.65,187.47v-99.34l165.9,167.51s-.09,13.32,0,97.02" fill="#091a45"></path></svg></svg></g></g></svg></g></svg>